<?xml version="1.0" encoding="utf-8"?>
<!-- Generator: Adobe Illustrator 26.5.1, SVG Export Plug-In . SVG Version: 6.00 Build 0)  -->
<svg version="1.1" xmlns="http://www.w3.org/2000/svg" xmlns:xlink="http://www.w3.org/1999/xlink" x="0px" y="0px"
	 viewBox="0 0 360 640" style="enable-background:new 0 0 360 640;" xml:space="preserve">
<style type="text/css">
	.st0{fill:#0000FF;}
	.st1{fill:#FFFFFF;}
	.st2{fill:none;stroke:#FFFFFF;stroke-width:0.5;}
</style>
<g id="background">
	<rect x="-0.5" y="-0.5" class="st0" width="360" height="640"/>
</g>
<g id="Layer_3">
	<path class="st1" d="M274.3,86.3c-5.1,2.4-7.7,4.1-11,9.4c-4.8,7.8-8.9,8.7-13.2,9.6c-3.8,0.8-7.8,1.7-12.8,9.1
		c-5.7,8.3-12.5,8.8-20.1,9.4c-6.7,0.5-14,1.1-21.3,8c-4.3,4-7.6,9.8-9.3,15.7c-2.3,8.1-1,16,1.8,23.8c0.7,1.9-2.2,2.9-2.9,1
		c-3-8.4-4.2-16.9-1.9-25.6c0.9-3.2,0.5-3.7-2.4-2.1c-6.8,3.7-14.5,5.4-22.2,6.1c-10.2,1-18,2.4-23.3,6.9c-5.3,4.4-8.3,12-9,25.3
		c-0.3,5.3-2.8,10.1-5.5,15.2c-6.4,12.1-10.3,24.3-2.6,37c7.8,12.9,26.3,20.8,37.9,35.9c9,11.8,23.2,12,36.6,9.9
		c15.7-2.5,21.4,1.4,35.4,2.5c14.7,1.2,21.2-5,28.2-11.8c5.3-5.1,11-10.6,20.6-13.7c20.9-6.8,23.6-21.1,26.5-36.9
		c0.8-4.3,1.6-8.6,2.8-13c1.4-5.1,2.2-5.8-1.4-0.8c-4.3,5.9-8.1,11.8-10.2,18.4c-4.9,15.2-8,20.5-24.5,26.1
		c-0.8,0.3-1.7-0.2-1.9-0.9c-0.3-0.8,0.2-1.7,0.9-1.9c15.3-5.3,18-10.1,22.6-24.2c2.8-8.7,8.2-16,13.8-23.6c5.7-7.7,11-15.1,14.5-24
		c6.6-16.6,8.4-33.5,4.1-50.9c-1.4-5.8-3.7-11.2-7-16.1c-2.8-4.2-1.8-5.5-2.7,0.6c-0.7,4.7-1.8,9.3-3.4,13.8
		c-6.9,20.3-23.1,36.1-44.4,40.5c-2,0.4-2.6-2.6-0.6-3c20.2-4.1,35.6-19.2,42.1-38.5c2.2-6.4,3.5-12.9,4-19.6
		c0.5-6.9,0.2-15.8-1.4-22.7c-3.2-13.6-16.4-17.7-25-7.3C281.9,79.6,281.7,82.7,274.3,86.3L274.3,86.3z M196.1,81.6
		c-1.2,0.7-2.2-1.2-1-1.9c8.9-4.8,14.2-5.2,19-5.6c4.3-0.3,8.1-0.6,13.9-4.3c7.3-4.7,17.4-7.4,19.3,3.8c0.7,4.3,0.1,10.1-2.1,17.2
		c-0.4,1.3-2.4,0.7-2-0.6c2.1-6.7,2.7-12.3,2-16.2c-1.6-9.5-10.2-6.1-16-2.3c-6.2,4-10.3,4.3-14.9,4.6
		C209.7,76.6,204.6,77,196.1,81.6L196.1,81.6z M68.6,175c0.5,0.6-0.4,1.4-0.9,0.8c-5.5-6.8-9.6-15.1-12-23.5c-0.2-0.8,1-1.1,1.2-0.3
		C59.2,160.2,63.2,168.4,68.6,175L68.6,175z M119.9,132.7c0.1,0.6-0.8,0.7-0.9,0.2c-1.5-8.8-1.1-23.8,9.8-26.7
		c4.8-1.3,9.7,1.1,10.6,6.3c1.7,9.8,9.5,6.9,11.5-2.1c1.2-5.7,3.5-8.3,6.4-9.2c7.7-2.4,13.1,5.6,21.8-1.3c2.8-2.2,6-4.7,14.8-4
		c0.6,0,0.5,1-0.1,0.9c-8.4-0.7-11.4,1.7-14.1,3.8c-9.3,7.2-14.7-1-22.1,1.4c-2.6,0.8-4.6,3.2-5.7,8.5c-2.2,10.2-11.5,12.7-13.3,2.1
		c-0.8-4.6-5.2-6.7-9.5-5.6C118.7,109.8,118.5,124.4,119.9,132.7L119.9,132.7z M73.1,132.8c0,0.6-0.9,0.6-0.9,0
		c0-5.6,2-11.7,6.4-15.5c0.5-0.4,1.1,0.3,0.6,0.7C75,121.6,73.1,127.4,73.1,132.8L73.1,132.8z M108.1,190.9c1.3,0.4,0.7,2.5-0.6,2
		c-8.2-2.6-16-6.4-22.9-11.6c-14.4-10.9-23.5-29.8-22.2-47.9c1.2-16.6,10.6-29.2,26-35.3c23.7-9.5,52.4-6.4,77.1-13
		c1.4-0.4,1.9,1.7,0.5,2.1c-24.6,6.5-53.5,3.6-76.9,12.9c-14.6,5.8-23.5,17.7-24.7,33.5c-1.2,17.4,7.5,35.6,21.3,46.1
		C92.5,184.6,100.1,188.4,108.1,190.9L108.1,190.9z M270.7,75.2c0.6,1.9-2.3,2.8-2.9,0.9c-1.8-5.6-1.6-9.8-1.3-13.8
		c0.5-8.2-1-19.1-10.3-21.8c-9.2-2.6-21.3,5.2-29.2,9.6c-8.8,4.9-12.2,7.3-22.9,7.2c-5.5,0-11,0-19.1,6.1
		c-16.2,12.2-27.7-7.7-48.9,5.3c-11.5,7.1-24.1,7-36.9,4c-22.5-5.3-31.9-2.6-41,20.1c-4.1,10.3-16.9,16-22.2,27.8
		c-6.7,14.7-1.2,27,8,39c6.3,8.2,10.8,16.6,14.1,26.3c4.8,14.1,18.1,18.9,31.5,21.2c5.9,1,10.2,1.9,15.3,5.3
		c1.7,1.1-0.1,3.6-1.7,2.5c-4.6-3.1-8.7-3.9-14.1-4.8c-14.6-2.5-28.7-7.9-33.9-23.2c-3.2-9.4-7.5-17.6-13.6-25.5
		c-9.9-12.9-15.5-26.3-8.3-42.1c5.4-12,18.4-18.2,22.2-27.6c9.6-24.1,20.4-27.6,44.5-22c12,2.8,23.8,3.1,34.6-3.6
		c22.2-13.6,34.2,5.7,48.6-5.2c8.9-6.7,14.9-6.7,20.9-6.7c10.1,0,13.2-2.3,21.5-6.9c8.8-4.9,21.1-12.8,31.5-9.8
		c10.9,3.1,13.1,15,12.5,24.9C269.3,66.3,269,70.1,270.7,75.2L270.7,75.2z M193.7,129.7c8.1-7.7,16-8.3,23.3-8.9
		c6.8-0.5,13-1,17.8-8.1c5.7-8.4,10.3-9.4,14.7-10.3c3.7-0.8,7.1-1.6,11.2-8.2c3.6-5.9,6.5-7.9,12.3-10.6c6.2-2.9,6.8-5.7,10.3-10.4
		c9.8-13.1,26.9-9.2,30.9,7.6c0.9,3.7,1.2,7.6,1.6,11.4c0.5,5.8,1.2,11.5,4.4,16.4c3.5,5.2,5.9,11,7.4,17.1
		c4.4,17.9,2.7,35.2-4.1,52.3c-3.6,9.2-9.4,17.5-12.5,26.6c-1.9,5.7-3,11.5-4,17.1c-3.1,16.7-5.9,31.9-28.6,39.3
		c-8.9,2.9-14.3,8.1-19.4,13c-7.5,7.3-14.5,13.9-30.6,12.6c-13.6-1.1-19.6-5-34.7-2.6c-14.6,2.3-29.7,1.7-39.5-11.1
		c-11.7-15.3-29.9-22.5-38.1-36.2c-8.3-13.8-4.4-26.9,2.5-40c2.6-4.9,4.9-9.4,5.2-14c0.7-14.3,4.1-22.5,10.1-27.5
		c5.9-5,14.2-6.5,25-7.6c7.3-0.7,13.5-2.2,18.7-4.6C186,139.2,187.7,135.4,193.7,129.7L193.7,129.7z M306.5,93.4
		c-0.1,1-1.6,0.9-1.5-0.1c0.2-3.2-0.2-7.2-1.5-10.2c-0.4-0.9,1-1.5,1.4-0.6C306.2,85.8,306.7,90,306.5,93.4L306.5,93.4z
		 M198.1,142.7c-0.2,0.6-1.1,0.2-0.9-0.3c1.2-3.4,3.6-6.5,6.7-8.3c0.5-0.3,1,0.5,0.5,0.8C201.5,136.6,199.3,139.5,198.1,142.7
		L198.1,142.7z M138.1,169.6c-0.3,0.9-1.8,0.5-1.4-0.5c1.2-3.6,3.7-6.6,7.4-7.8c0.4-0.1,0.8,0.1,1,0.5c0.1,0.4-0.1,0.8-0.5,1
		C141.3,163.8,139.2,166.5,138.1,169.6L138.1,169.6z M151.8,235.6c-0.3-0.5,0.5-1,0.8-0.4c4.3,7.9,15.5,15.3,24.2,17.5
		c0.6,0.1,0.4,1-0.2,0.9C167.6,251.3,156.2,243.7,151.8,235.6L151.8,235.6z M129.7,206c0-1.4,2.1-1.5,2.1-0.1
		c1.1,45.6,52.9,71.1,93.6,60.7c1.4-0.3,1.9,1.7,0.5,2.1C183.9,279.4,130.8,252.9,129.7,206L129.7,206z M282,214.5
		c0.9-0.8,2.1,0.5,1.3,1.3c-17.5,16.5-48,21-71,17.8c-1.2-0.2-0.9-2,0.3-1.8C235,235,264.9,230.7,282,214.5L282,214.5z M221.9,159.4
		c-0.8-0.6,0.2-1.8,0.9-1.2c6.3,5,18.3,7.6,26.2,6.4c1-0.2,1.2,1.4,0.2,1.5C240.9,167.4,228.5,164.6,221.9,159.4L221.9,159.4z
		 M314.2,128c-0.1-1.4,2-1.5,2.1-0.1c2.8,47.4-33.5,88.8-81.6,88.8c-1.4,0-1.4-2.1,0-2.1C281.6,214.5,317,174.2,314.2,128L314.2,128
		z M250.1,151.3c-1-0.1-0.8-1.6,0.2-1.5c12.3,1.3,32-4.3,39.2-15c0.6-0.8,1.8,0,1.3,0.8C283.2,146.9,262.9,152.7,250.1,151.3
		L250.1,151.3z"/>
	<g>
		<path class="st1" d="M102.6,53c0,0,0.1-0.1,0.1-0.3c0.1-0.3-0.1-0.7-0.5-0.9c-0.4-0.3-0.9-0.5-1.6-0.7c-0.8-0.2-1.5-0.2-1.9-0.1
			c-0.4,0.1-0.7,0.4-0.7,0.7c0,0.2,0,0.3,0.1,0.4c0.1,0.1,0.2,0.2,0.4,0.2l6.2,2.3c1.2,0.5,2,1,2.6,1.7c0.5,0.7,0.7,1.4,0.5,2.3
			c-0.2,1.1-0.8,2-1.6,2.8c-0.9,0.8-2.1,1.3-3.7,1.5c-1.6,0.2-3.6,0-6-0.5c-1.4-0.3-2.7-0.6-3.7-1c-1-0.4-1.8-0.8-2.3-1.2
			c-1.1-0.9-1.5-2-1.3-3.2c0.1-0.3,0.2-0.6,0.3-0.9l6.7,1.4L96,57.8c-0.1,0.4,0,0.6,0.4,0.9c0.3,0.2,0.9,0.4,1.6,0.6
			c0.8,0.2,1.5,0.2,1.9,0.1c0.4-0.1,0.7-0.4,0.8-0.8s-0.1-0.8-0.7-1l-5.7-2.2c-1.1-0.4-1.8-0.9-2.3-1.5c-0.4-0.6-0.5-1.3-0.4-2.2
			c0.2-0.9,0.6-1.7,1.4-2.5c0.7-0.8,1.8-1.3,3.2-1.5c1.4-0.2,3.3-0.1,5.7,0.4c1.3,0.3,2.5,0.6,3.5,1c1,0.4,1.8,0.8,2.3,1.2
			c1.2,0.9,1.7,2.1,1.4,3.4c0,0.1-0.1,0.4-0.2,0.6L102.6,53z"/>
		<path class="st1" d="M122.1,64.1l0.6-5.8l-6.3,0.7l-0.6,5.8l-5.6,0.6l1.5-14.5l5.6-0.6l-0.5,5.1l6.3-0.7l0.5-5.1l5.6-0.6
			l-1.5,14.5L122.1,64.1z"/>
		<path class="st1" d="M142.4,46.2l-0.1-0.2c-0.3-0.7-0.7-1.2-1.2-1.4c-0.6-0.2-1.2-0.2-1.9,0.1c-1.1,0.4-1.8,1-2.3,1.8
			c-0.5,0.8-0.7,1.7-0.6,2.7c0.1,1,0.2,1.8,0.4,2.3c0.3,0.8,0.8,1.4,1.4,1.6c0.6,0.2,1.3,0.2,2.2-0.1c0.9-0.3,1.5-0.8,1.9-1.4
			c0.4-0.6,0.7-1.3,0.7-2.3l5.9-2.3c0,2.3-0.6,4.2-1.8,5.7c-1.2,1.5-3.2,2.7-6,3.8c-1.7,0.6-3,1-4,1.1c-1,0.1-1.9,0.1-2.6-0.1
			c-0.7-0.2-1.3-0.5-1.9-1.1c-0.5-0.5-1-1.2-1.3-2.1c-0.2-0.5-0.4-1.3-0.5-2.1c-0.1-0.9-0.2-1.7-0.1-2.6s0.2-1.6,0.5-2.3
			c0.3-0.7,0.6-1.3,1-1.9c0.4-0.6,0.9-1.1,1.5-1.6c0.6-0.5,1.3-1,2.1-1.4c0.8-0.4,1.8-0.9,2.8-1.2c1.7-0.7,3.2-1,4.4-1.1
			c1.2-0.1,2.2,0.1,3.1,0.7c0.9,0.5,1.6,1.4,2,2.7c0,0.1,0.1,0.3,0.2,0.6L142.4,46.2z"/>
		<path class="st1" d="M161.5,55.5l-1.7-5.9l-2.5,1.2l-1.5,3.6l-5.5-1.1l5.6-13.5l5.5,1.1l-2,4.8l7.1-3.8l7.3,1.4l-8.4,4l3.3,9.6
			L161.5,55.5z"/>
		<path class="st1" d="M177.2,58l-5.6-13.5l9.2-6.3c0.8-0.6,1.6-1,2.4-1.3c0.7-0.3,1.4-0.4,2-0.4c1.3,0.1,2.4,0.8,3.3,2.1
			c0.4,0.6,0.8,1.3,1.1,2.1c0.3,0.7,0.6,1.5,0.8,2.4c0.7,3.4-0.5,6.2-3.8,8.5L177.2,58z M183.2,49.6c1.2-0.8,1.9-1.8,2-3
			c0.1-1.2-0.2-2.3-1-3.3c-0.9-1.3-2.2-1.4-3.8-0.3l-2.7,1.9l2.8,6.7L183.2,49.6z"/>
		<path class="st1" d="M201.5,48.4c0.1-2.2,0.7-4,1.8-5.4c1.1-1.4,2.8-2.6,5.1-3.5l4-1.5c0.4-0.2,0.8-0.4,1-0.6
			c0.2-0.3,0.3-0.6,0.2-0.9c0-0.3-0.3-0.5-0.6-0.6s-0.9-0.1-1.6,0c-1.1,0.2-1.9,0.5-2.4,0.8c-0.5,0.4-0.7,0.9-0.9,1.7l-5.9,1
			c0.3-2,1.1-3.5,2.5-4.6c1.4-1.1,3.5-1.9,6.1-2.3c1.4-0.2,2.6-0.3,3.6-0.4s1.9,0.1,2.5,0.3c1.4,0.4,2.1,1.2,2.3,2.5
			c0.2,1.2-0.1,2.3-0.9,3.3c-0.8,1-2.2,1.9-4.3,2.7l-4.3,1.6c-0.8,0.3-1.3,0.5-1.6,0.7c-0.3,0.2-0.6,0.5-0.8,0.8l11.5-1.9l-0.1,3.6
			L201.5,48.4z"/>
		<path class="st1" d="M222.6,42.1c-0.6-2.1-0.7-4-0.1-5.7c0.6-1.7,1.8-3.4,3.7-5l3.2-2.8c0.4-0.3,0.6-0.6,0.7-0.9
			c0.1-0.3,0.1-0.6-0.1-0.9c-0.1-0.3-0.4-0.4-0.8-0.3c-0.4,0-0.9,0.2-1.5,0.5c-1,0.6-1.6,1.1-2,1.6s-0.4,1.1-0.3,1.9l-5.2,2.9
			c-0.4-1.9-0.1-3.7,0.8-5.2c1-1.5,2.6-2.9,5-4.3c1.2-0.7,2.3-1.2,3.3-1.5c1-0.3,1.8-0.5,2.5-0.6c1.4-0.1,2.4,0.4,3,1.5
			c0.6,1.1,0.7,2.2,0.3,3.4c-0.4,1.2-1.4,2.6-3.2,4l-3.6,2.9c-0.7,0.5-1.1,0.9-1.3,1.2c-0.2,0.3-0.4,0.6-0.5,1l10.2-5.6l1.1,3.4
			L222.6,42.1z"/>
	</g>
</g>
<g id="Layer_4">
	<g>
		<path class="st1" d="M62.3,316.5h-4.6v1.8h4.2v1.5h-4.2v2.2h4.8v1.6H56V315h6.3V316.5z"/>
		<path class="st1" d="M63.9,315h1.9l3.4,6v-6h1.7v8.6h-1.8l-3.5-6.1v6.1h-1.7V315z"/>
		<path class="st1" d="M77.6,315.2c0.6,0.2,1.1,0.6,1.5,1.1c0.3,0.4,0.5,0.9,0.6,1.4c0.1,0.5,0.2,1,0.2,1.4c0,1.1-0.2,2.1-0.7,2.9
			c-0.6,1.1-1.6,1.6-2.9,1.6h-3.7V315h3.7C76.8,315,77.3,315.1,77.6,315.2z M74.3,316.5v5.6H76c0.9,0,1.4-0.4,1.8-1.3
			c0.2-0.5,0.3-1,0.3-1.6c0-0.9-0.1-1.6-0.4-2c-0.3-0.5-0.8-0.7-1.6-0.7H74.3z"/>
		<path class="st1" d="M80.6,319.5h3.3v1.6h-3.3V319.5z"/>
		<path class="st1" d="M91.9,322.9c-0.7,0.7-1.6,1-2.8,1s-2.2-0.3-2.8-1c-0.9-0.8-1.3-2-1.3-3.6c0-1.6,0.4-2.8,1.3-3.6
			c0.7-0.7,1.6-1,2.8-1s2.2,0.3,2.8,1c0.9,0.8,1.3,2,1.3,3.6C93.2,320.8,92.8,322,91.9,322.9z M90.8,321.5c0.4-0.5,0.6-1.3,0.6-2.2
			c0-1-0.2-1.7-0.6-2.2s-1-0.8-1.7-0.8s-1.3,0.3-1.7,0.8s-0.6,1.3-0.6,2.2s0.2,1.7,0.6,2.2s1,0.8,1.7,0.8S90.3,322.1,90.8,321.5z"/>
		<path class="st1" d="M94.6,315h6.2v1.5h-4.4v2h3.8v1.5h-3.8v3.6h-1.8V315z"/>
		<path class="st1" d="M101.3,319.5h3.3v1.6h-3.3V319.5z"/>
		<path class="st1" d="M110.8,315h2l-2.9,5.4v3.2h-1.8v-3.2l-3-5.4h2.1l1.8,3.8L110.8,315z"/>
		<path class="st1" d="M120.3,316.5h-4.6v1.8h4.2v1.5h-4.2v2.2h4.8v1.6H114V315h6.3V316.5z"/>
		<path class="st1" d="M124.4,315h2l3.1,8.6h-2l-0.6-1.8h-3.2l-0.6,1.8h-1.9L124.4,315z M124.3,320.4h2.2l-1.1-3.4L124.3,320.4z"/>
		<path class="st1" d="M136.1,315.2c0.3,0.1,0.6,0.3,0.8,0.6c0.2,0.2,0.3,0.5,0.4,0.7c0.1,0.3,0.2,0.6,0.2,0.9
			c0,0.4-0.1,0.8-0.3,1.2s-0.5,0.7-1,0.8c0.4,0.2,0.7,0.4,0.8,0.7s0.2,0.7,0.2,1.4v0.6c0,0.4,0,0.7,0,0.8c0,0.2,0.2,0.4,0.3,0.5v0.2
			h-2c-0.1-0.2-0.1-0.3-0.1-0.5c0-0.2-0.1-0.5-0.1-0.7l0-0.8c0-0.6-0.1-0.9-0.3-1.1c-0.2-0.2-0.5-0.3-1-0.3h-1.8v3.4h-1.8V315h4.1
			C135.3,315,135.8,315.1,136.1,315.2z M132.4,316.5v2.3h1.9c0.4,0,0.7,0,0.9-0.1c0.3-0.2,0.5-0.5,0.5-1c0-0.5-0.2-0.9-0.5-1.1
			c-0.2-0.1-0.5-0.2-0.8-0.2H132.4z"/>
		<path class="st1" d="M147.7,315.9c0.7-0.7,1.6-1.1,2.7-1.1c1.4,0,2.5,0.5,3.2,1.4c0.4,0.5,0.6,1.1,0.6,1.6h-1.8
			c-0.1-0.4-0.3-0.7-0.4-0.9c-0.3-0.4-0.8-0.6-1.4-0.6c-0.6,0-1.2,0.3-1.5,0.8s-0.6,1.3-0.6,2.2s0.2,1.7,0.6,2.2s0.9,0.7,1.5,0.7
			c0.6,0,1.1-0.2,1.4-0.6c0.2-0.2,0.3-0.6,0.4-1h1.8c-0.2,0.9-0.5,1.7-1.2,2.3s-1.5,0.9-2.4,0.9c-1.2,0-2.2-0.4-2.9-1.2
			c-0.7-0.8-1.1-1.9-1.1-3.3C146.5,317.9,146.9,316.7,147.7,315.9z"/>
		<path class="st1" d="M155.5,323.6V315h1.8v3.3h3.4V315h1.8v8.6h-1.8v-3.9h-3.4v3.9H155.5z"/>
		<path class="st1" d="M166.7,315h2l3.1,8.6h-2l-0.6-1.8h-3.2l-0.6,1.8h-1.9L166.7,315z M166.6,320.4h2.2l-1.1-3.4L166.6,320.4z"/>
		<path class="st1" d="M178.6,315h2.6v8.6h-1.7v-5.8c0-0.2,0-0.4,0-0.7s0-0.5,0-0.7l-1.6,7.2h-1.8l-1.6-7.2c0,0.2,0,0.4,0,0.7
			s0,0.5,0,0.7v5.8h-1.7V315h2.6l1.6,6.8L178.6,315z"/>
		<path class="st1" d="M188.7,319.9c-0.5,0.4-1.2,0.6-2.2,0.6h-1.8v3.1h-1.8V315h3.7c0.9,0,1.5,0.2,2,0.7c0.5,0.4,0.8,1.1,0.8,2.1
			C189.4,318.7,189.2,319.5,188.7,319.9z M187.3,316.8c-0.2-0.2-0.5-0.3-1-0.3h-1.6v2.5h1.6c0.4,0,0.7-0.1,1-0.3s0.3-0.5,0.3-1
			S187.5,317,187.3,316.8z"/>
		<path class="st1" d="M192.5,315h2l3.1,8.6h-2l-0.6-1.8h-3.2l-0.6,1.8h-1.9L192.5,315z M192.3,320.4h2.2l-1.1-3.4L192.3,320.4z"/>
		<path class="st1" d="M204.5,317.7c-0.1-0.6-0.5-1-1-1.2c-0.3-0.1-0.6-0.2-1-0.2c-0.7,0-1.3,0.3-1.7,0.8s-0.7,1.3-0.7,2.4
			c0,1.1,0.2,1.8,0.7,2.3c0.5,0.4,1,0.7,1.7,0.7c0.6,0,1.1-0.2,1.5-0.5c0.4-0.3,0.6-0.8,0.7-1.4h-2V319h3.6v4.6h-1.2l-0.2-1.1
			c-0.3,0.4-0.7,0.7-0.9,0.9c-0.5,0.3-1.1,0.4-1.8,0.4c-1.1,0-2.1-0.4-2.8-1.2c-0.8-0.8-1.1-1.9-1.1-3.3c0-1.4,0.4-2.5,1.2-3.4
			s1.8-1.3,3.1-1.3c1.1,0,2,0.3,2.6,0.8s1,1.3,1.1,2.1H204.5z"/>
		<path class="st1" d="M208,315h1.9l3.4,6v-6h1.7v8.6h-1.8l-3.5-6.1v6.1H208V315z"/>
		<path class="st1" d="M223,316.5h-4.6v1.8h4.2v1.5h-4.2v2.2h4.8v1.6h-6.5V315h6.3V316.5z"/>
		<path class="st1" d="M232.4,320c0.3-0.4,0.7-0.7,1.3-1.1l0.2-0.1c-0.2-0.3-0.4-0.6-0.6-0.9c-0.1-0.3-0.2-0.6-0.2-0.9
			c0-0.6,0.2-1.1,0.6-1.5s1-0.5,1.7-0.5c0.6,0,1.1,0.2,1.5,0.5c0.4,0.4,0.6,0.8,0.6,1.4c0,0.5-0.1,0.9-0.4,1.2s-0.6,0.6-1.1,0.9
			l1.2,1.5c0.1-0.2,0.3-0.4,0.3-0.7s0.1-0.5,0.1-0.8h1.5c0,0.5-0.2,1.1-0.4,1.6c-0.1,0.3-0.3,0.6-0.6,1l1.6,1.9h-2l-0.6-0.7
			c-0.3,0.3-0.6,0.5-0.8,0.6c-0.5,0.2-1,0.3-1.6,0.3c-0.9,0-1.6-0.3-2.1-0.8c-0.5-0.5-0.7-1.1-0.7-1.7
			C232,320.8,232.1,320.4,232.4,320z M234,322.1c0.2,0.2,0.5,0.4,0.9,0.4c0.3,0,0.5-0.1,0.8-0.2c0.2-0.1,0.5-0.3,0.6-0.4l-1.6-2
			c-0.4,0.3-0.7,0.5-0.8,0.7c-0.1,0.2-0.2,0.4-0.2,0.7C233.7,321.6,233.8,321.8,234,322.1z M234.8,317.5c0.1,0.1,0.2,0.3,0.5,0.6
			c0.2-0.2,0.4-0.3,0.5-0.4c0.2-0.2,0.3-0.4,0.3-0.7c0-0.2-0.1-0.3-0.2-0.5c-0.1-0.1-0.3-0.2-0.6-0.2c-0.2,0-0.3,0-0.4,0.1
			c-0.2,0.1-0.3,0.3-0.3,0.6C234.6,317.1,234.7,317.3,234.8,317.5z"/>
		<path class="st1" d="M255.2,322.9c-0.7,0.7-1.6,1-2.8,1s-2.2-0.3-2.8-1c-0.9-0.8-1.3-2-1.3-3.6c0-1.6,0.4-2.8,1.3-3.6
			c0.7-0.7,1.6-1,2.8-1s2.2,0.3,2.8,1c0.9,0.8,1.3,2,1.3,3.6C256.5,320.8,256.1,322,255.2,322.9z M254.1,321.5
			c0.4-0.5,0.6-1.3,0.6-2.2c0-1-0.2-1.7-0.6-2.2s-1-0.8-1.7-0.8s-1.3,0.3-1.7,0.8s-0.6,1.3-0.6,2.2s0.2,1.7,0.6,2.2s1,0.8,1.7,0.8
			S253.7,322.1,254.1,321.5z"/>
		<path class="st1" d="M262.8,315h2l-2.9,5.4v3.2h-1.8v-3.2l-3-5.4h2.1l1.8,3.8L262.8,315z"/>
		<path class="st1" d="M267.2,321c0.1,0.4,0.2,0.7,0.3,0.9c0.3,0.4,0.8,0.5,1.5,0.5c0.4,0,0.8,0,1.1-0.1c0.5-0.2,0.8-0.5,0.8-1
			c0-0.3-0.1-0.5-0.4-0.7c-0.3-0.2-0.7-0.3-1.2-0.4l-0.9-0.2c-0.9-0.2-1.6-0.4-1.9-0.7c-0.6-0.4-0.9-1-0.9-1.9
			c0-0.8,0.3-1.4,0.9-1.9c0.6-0.5,1.4-0.8,2.5-0.8c0.9,0,1.7,0.2,2.4,0.7s1,1.2,1,2.1h-1.7c0-0.5-0.3-0.9-0.7-1.1
			c-0.3-0.1-0.6-0.2-1.1-0.2c-0.5,0-0.9,0.1-1.1,0.3s-0.4,0.4-0.4,0.8c0,0.3,0.1,0.5,0.4,0.7c0.2,0.1,0.6,0.2,1.1,0.4l1.5,0.4
			c0.7,0.2,1.2,0.4,1.5,0.6c0.5,0.4,0.8,1,0.8,1.8c0,0.8-0.3,1.4-0.9,2s-1.5,0.8-2.6,0.8c-1.1,0-2-0.3-2.7-0.8c-0.7-0.5-1-1.2-1-2.1
			H267.2z"/>
		<path class="st1" d="M280.2,315v1.5h-2.6v7.1h-1.8v-7.1h-2.6V315H280.2z"/>
		<path class="st1" d="M287.6,316.5h-4.6v1.8h4.2v1.5h-4.2v2.2h4.8v1.6h-6.5V315h6.3V316.5z"/>
		<path class="st1" d="M294.8,315.2c0.3,0.1,0.6,0.3,0.8,0.6c0.2,0.2,0.3,0.5,0.4,0.7s0.2,0.6,0.2,0.9c0,0.4-0.1,0.8-0.3,1.2
			s-0.5,0.7-1,0.8c0.4,0.2,0.7,0.4,0.8,0.7s0.2,0.7,0.2,1.4v0.6c0,0.4,0,0.7,0,0.8c0,0.2,0.2,0.4,0.3,0.5v0.2h-2
			c-0.1-0.2-0.1-0.3-0.1-0.5c0-0.2-0.1-0.5-0.1-0.7l0-0.8c0-0.6-0.1-0.9-0.3-1.1c-0.2-0.2-0.5-0.3-1-0.3H291v3.4h-1.8V315h4.1
			C294,315,294.5,315.1,294.8,315.2z M291,316.5v2.3h1.9c0.4,0,0.7,0,0.9-0.1c0.3-0.2,0.5-0.5,0.5-1c0-0.5-0.2-0.9-0.5-1.1
			c-0.2-0.1-0.5-0.2-0.8-0.2H291z"/>
		<path class="st1" d="M299.2,321c0.1,0.4,0.2,0.7,0.3,0.9c0.3,0.4,0.8,0.5,1.5,0.5c0.4,0,0.8,0,1.1-0.1c0.5-0.2,0.8-0.5,0.8-1
			c0-0.3-0.1-0.5-0.4-0.7c-0.3-0.2-0.7-0.3-1.2-0.4l-0.9-0.2c-0.9-0.2-1.6-0.4-1.9-0.7c-0.6-0.4-0.9-1-0.9-1.9
			c0-0.8,0.3-1.4,0.9-1.9c0.6-0.5,1.4-0.8,2.5-0.8c0.9,0,1.7,0.2,2.4,0.7s1,1.2,1,2.1h-1.7c0-0.5-0.3-0.9-0.7-1.1
			c-0.3-0.1-0.6-0.2-1.1-0.2c-0.5,0-0.9,0.1-1.1,0.3s-0.4,0.4-0.4,0.8c0,0.3,0.1,0.5,0.4,0.7c0.2,0.1,0.6,0.2,1.1,0.4l1.5,0.4
			c0.7,0.2,1.2,0.4,1.5,0.6c0.5,0.4,0.8,1,0.8,1.8c0,0.8-0.3,1.4-0.9,2s-1.5,0.8-2.6,0.8c-1.1,0-2-0.3-2.7-0.8c-0.7-0.5-1-1.2-1-2.1
			H299.2z"/>
		<path class="st1" d="M55.7,327.2H57v5.3h3.2v1.2h-4.6V327.2z"/>
		<path class="st1" d="M61.1,329.2v-0.9c0.4,0,0.7,0,0.8-0.1c0.3-0.1,0.5-0.2,0.6-0.3c0.1-0.1,0.2-0.3,0.2-0.5c0-0.1,0-0.2,0-0.3h1
			v6.4h-1.3v-4.4H61.1z"/>
		<path class="st1" d="M65.6,329.2v-0.9c0.4,0,0.7,0,0.8-0.1c0.3-0.1,0.5-0.2,0.6-0.3c0.1-0.1,0.2-0.3,0.2-0.5c0-0.1,0-0.2,0-0.3h1
			v6.4h-1.3v-4.4H65.6z"/>
		<path class="st1" d="M70.2,330.5h2.5v1.2h-2.5V330.5z"/>
		<path class="st1" d="M73.6,332.4c0.2-0.4,0.6-0.9,1.3-1.3c0.6-0.4,1-0.7,1.1-0.9c0.3-0.3,0.4-0.6,0.4-0.9c0-0.3-0.1-0.5-0.2-0.7
			s-0.4-0.3-0.6-0.3c-0.4,0-0.6,0.1-0.8,0.4c-0.1,0.2-0.1,0.4-0.1,0.8h-1.2c0-0.5,0.1-1,0.3-1.3c0.3-0.6,0.9-1,1.8-1
			c0.7,0,1.2,0.2,1.6,0.6c0.4,0.4,0.6,0.9,0.6,1.5c0,0.5-0.1,0.9-0.4,1.3c-0.2,0.2-0.5,0.5-0.9,0.8l-0.5,0.4
			c-0.3,0.2-0.5,0.4-0.6,0.5s-0.2,0.2-0.3,0.3h2.8v1.1h-4.4C73.3,333.2,73.4,332.8,73.6,332.4z"/>
		<path class="st1" d="M78.6,332.4c0.2-0.4,0.6-0.9,1.3-1.3c0.6-0.4,1-0.7,1.1-0.9c0.3-0.3,0.4-0.6,0.4-0.9c0-0.3-0.1-0.5-0.2-0.7
			s-0.4-0.3-0.6-0.3c-0.4,0-0.6,0.1-0.8,0.4c-0.1,0.2-0.1,0.4-0.1,0.8h-1.2c0-0.5,0.1-1,0.3-1.3c0.3-0.6,0.9-1,1.8-1
			c0.7,0,1.2,0.2,1.6,0.6c0.4,0.4,0.6,0.9,0.6,1.5c0,0.5-0.1,0.9-0.4,1.3c-0.2,0.2-0.5,0.5-0.9,0.8l-0.5,0.4
			c-0.3,0.2-0.5,0.4-0.6,0.5s-0.2,0.2-0.3,0.3h2.8v1.1h-4.4C78.3,333.2,78.4,332.8,78.6,332.4z"/>
		<path class="st1" d="M83.6,329.2v-0.9c0.4,0,0.7,0,0.8-0.1c0.3-0.1,0.5-0.2,0.6-0.3c0.1-0.1,0.2-0.3,0.2-0.5c0-0.1,0-0.2,0-0.3h1
			v6.4h-1.3v-4.4H83.6z"/>
		<path class="st1" d="M100.3,331.7c-0.1,0.4-0.3,0.7-0.5,0.9l0.7,0.7l-0.7,0.7l-0.8-0.7c-0.2,0.1-0.4,0.2-0.6,0.3
			c-0.3,0.1-0.6,0.1-1,0.1c-0.8,0-1.5-0.3-2.1-0.8c-0.7-0.6-1-1.5-1-2.7c0-1.2,0.3-2.1,1-2.7c0.6-0.5,1.3-0.7,2.1-0.7
			c0.8,0,1.5,0.3,2.1,0.8c0.7,0.6,1,1.5,1,2.5C100.5,330.9,100.4,331.3,100.3,331.7z M97.8,332.6c0.1,0,0.2-0.1,0.3-0.1l-0.7-0.6
			l0.7-0.7l0.7,0.6c0.1-0.2,0.2-0.4,0.2-0.6c0.1-0.2,0.1-0.5,0.1-0.8c0-0.7-0.1-1.3-0.4-1.7s-0.7-0.6-1.3-0.6c-0.5,0-1,0.2-1.3,0.6
			s-0.5,1-0.5,1.7c0,0.9,0.2,1.5,0.7,1.9c0.3,0.2,0.7,0.4,1.1,0.4C97.5,332.7,97.7,332.6,97.8,332.6z"/>
		<path class="st1" d="M102.7,328.8v2.9c0,0.3,0,0.5,0.1,0.6c0.1,0.2,0.3,0.4,0.7,0.4c0.4,0,0.7-0.2,0.9-0.5
			c0.1-0.2,0.1-0.4,0.1-0.7v-2.6h1.3v4.8h-1.2V333c0,0,0,0.1-0.1,0.1c0,0.1-0.1,0.1-0.2,0.2c-0.2,0.2-0.4,0.3-0.6,0.4
			s-0.4,0.1-0.6,0.1c-0.7,0-1.2-0.3-1.4-0.8c-0.1-0.3-0.2-0.7-0.2-1.2v-2.9H102.7z"/>
		<path class="st1" d="M110.1,328.9c0.3,0.1,0.6,0.4,0.8,0.7c0.2,0.3,0.3,0.6,0.4,1c0,0.2,0,0.5,0,1h-3.5c0,0.5,0.2,0.8,0.5,1
			c0.2,0.1,0.4,0.2,0.7,0.2c0.3,0,0.5-0.1,0.7-0.2c0.1-0.1,0.2-0.2,0.3-0.3h1.3c0,0.3-0.2,0.6-0.5,0.9c-0.4,0.5-1,0.7-1.8,0.7
			c-0.6,0-1.2-0.2-1.7-0.6c-0.5-0.4-0.7-1-0.7-1.9c0-0.8,0.2-1.5,0.7-1.9s1-0.7,1.7-0.7C109.3,328.7,109.7,328.8,110.1,328.9z
			 M108.2,330c-0.2,0.2-0.3,0.4-0.3,0.7h2.2c0-0.3-0.1-0.6-0.3-0.8c-0.2-0.2-0.4-0.3-0.7-0.3C108.6,329.7,108.4,329.8,108.2,330z"/>
		<path class="st1" d="M115.1,328.9c0.3,0.1,0.6,0.4,0.8,0.7c0.2,0.3,0.3,0.6,0.4,1c0,0.2,0,0.5,0,1h-3.5c0,0.5,0.2,0.8,0.5,1
			c0.2,0.1,0.4,0.2,0.7,0.2c0.3,0,0.5-0.1,0.7-0.2c0.1-0.1,0.2-0.2,0.3-0.3h1.3c0,0.3-0.2,0.6-0.5,0.9c-0.4,0.5-1,0.7-1.8,0.7
			c-0.6,0-1.2-0.2-1.7-0.6c-0.5-0.4-0.7-1-0.7-1.9c0-0.8,0.2-1.5,0.7-1.9s1-0.7,1.7-0.7C114.4,328.7,114.7,328.8,115.1,328.9z
			 M113.2,330c-0.2,0.2-0.3,0.4-0.3,0.7h2.2c0-0.3-0.1-0.6-0.3-0.8c-0.2-0.2-0.4-0.3-0.7-0.3C113.6,329.7,113.4,329.8,113.2,330z"/>
		<path class="st1" d="M120.8,329.1c0.3,0.3,0.5,0.7,0.5,1.3v3.2H120v-2.9c0-0.3,0-0.4-0.1-0.6c-0.1-0.2-0.4-0.4-0.7-0.4
			c-0.4,0-0.7,0.2-0.9,0.5c-0.1,0.2-0.1,0.4-0.1,0.7v2.6H117v-4.8h1.2v0.7c0.2-0.2,0.3-0.4,0.5-0.5c0.3-0.2,0.6-0.3,1-0.3
			C120.1,328.7,120.5,328.9,120.8,329.1z"/>
		<path class="st1" d="M129.3,331.6c0,0.3,0.1,0.5,0.2,0.7c0.2,0.3,0.6,0.4,1.2,0.4c0.3,0,0.6,0,0.8-0.1c0.4-0.1,0.6-0.4,0.6-0.8
			c0-0.2-0.1-0.4-0.3-0.5c-0.2-0.1-0.5-0.2-0.9-0.3l-0.7-0.2c-0.7-0.2-1.2-0.3-1.4-0.5c-0.4-0.3-0.7-0.8-0.7-1.4
			c0-0.6,0.2-1.1,0.6-1.4s1.1-0.6,1.9-0.6c0.7,0,1.3,0.2,1.8,0.5c0.5,0.4,0.7,0.9,0.8,1.6h-1.3c0-0.4-0.2-0.7-0.5-0.8
			c-0.2-0.1-0.5-0.2-0.8-0.2c-0.4,0-0.6,0.1-0.9,0.2s-0.3,0.3-0.3,0.6c0,0.2,0.1,0.4,0.3,0.5c0.1,0.1,0.4,0.2,0.9,0.3l1.1,0.3
			c0.5,0.1,0.9,0.3,1.1,0.5c0.4,0.3,0.6,0.7,0.6,1.3c0,0.6-0.2,1.1-0.7,1.5c-0.5,0.4-1.1,0.6-1.9,0.6c-0.9,0-1.5-0.2-2-0.6
			c-0.5-0.4-0.7-0.9-0.7-1.6H129.3z"/>
		<path class="st1" d="M133.8,329.8v-0.9h0.7v-1.3h1.2v1.3h0.8v0.9h-0.8v2.5c0,0.2,0,0.3,0.1,0.4c0,0,0.2,0.1,0.5,0.1
			c0,0,0.1,0,0.1,0c0,0,0.1,0,0.1,0v0.9l-0.6,0c-0.6,0-1-0.1-1.2-0.3c-0.1-0.1-0.2-0.4-0.2-0.7v-2.9H133.8z"/>
		<path class="st1" d="M144.5,327h1l-2.5,6.7h-1L144.5,327z"/>
		<path class="st1" d="M151.5,327.2h4.6v1.1h-3.3v1.5h2.9v1.1h-2.9v2.7h-1.3V327.2z"/>
		<path class="st1" d="M159.6,328.7c0,0,0.1,0,0.1,0v1.3c-0.1,0-0.1,0-0.2,0s-0.1,0-0.1,0c-0.5,0-0.8,0.2-1,0.5
			c-0.1,0.2-0.1,0.5-0.1,0.9v2.3h-1.3v-4.8h1.2v0.8c0.2-0.3,0.4-0.5,0.5-0.7C158.8,328.8,159.1,328.7,159.6,328.7
			C159.5,328.7,159.6,328.7,159.6,328.7z"/>
		<path class="st1" d="M161.7,328.3h-1.3v-1.2h1.3V328.3z M160.4,328.8h1.3v4.8h-1.3V328.8z"/>
		<path class="st1" d="M165.5,328.9c0.2,0.1,0.4,0.3,0.5,0.5v-2.3h1.3v6.5h-1.2V333c-0.2,0.3-0.4,0.5-0.6,0.6s-0.5,0.2-0.9,0.2
			c-0.6,0-1-0.2-1.4-0.7c-0.4-0.5-0.6-1-0.6-1.7c0-0.8,0.2-1.5,0.6-1.9c0.4-0.5,0.9-0.7,1.5-0.7C165,328.7,165.2,328.8,165.5,328.9z
			 M165.8,332.3c0.2-0.3,0.3-0.6,0.3-1c0-0.6-0.1-1-0.4-1.3c-0.2-0.2-0.4-0.2-0.6-0.2c-0.4,0-0.6,0.1-0.8,0.4
			c-0.2,0.3-0.3,0.6-0.3,1c0,0.4,0.1,0.8,0.3,1.1c0.2,0.3,0.4,0.4,0.8,0.4S165.6,332.6,165.8,332.3z"/>
		<path class="st1" d="M170.3,330.7c0.2,0,0.4-0.1,0.5-0.1c0.2-0.1,0.3-0.2,0.3-0.4c0-0.2-0.1-0.3-0.2-0.4c-0.1-0.1-0.3-0.1-0.6-0.1
			c-0.3,0-0.5,0.1-0.6,0.2c-0.1,0.1-0.1,0.3-0.2,0.4h-1.2c0-0.4,0.1-0.8,0.4-1c0.3-0.4,0.9-0.6,1.7-0.6c0.5,0,1,0.1,1.4,0.3
			c0.4,0.2,0.6,0.6,0.6,1.2v2.2c0,0.2,0,0.3,0,0.6c0,0.2,0,0.3,0.1,0.3s0.1,0.1,0.2,0.1v0.2h-1.4c0-0.1-0.1-0.2-0.1-0.3s0-0.2,0-0.3
			c-0.2,0.2-0.4,0.3-0.6,0.5c-0.3,0.2-0.6,0.2-0.9,0.2c-0.4,0-0.8-0.1-1.1-0.4c-0.3-0.2-0.4-0.6-0.4-1.1c0-0.6,0.2-1,0.7-1.3
			c0.3-0.1,0.6-0.2,1.1-0.3L170.3,330.7z M171.1,331.3c-0.1,0-0.2,0.1-0.2,0.1c-0.1,0-0.2,0.1-0.3,0.1l-0.3,0.1
			c-0.3,0-0.5,0.1-0.6,0.2c-0.2,0.1-0.3,0.3-0.3,0.5c0,0.2,0.1,0.4,0.2,0.5c0.1,0.1,0.3,0.1,0.4,0.1c0.3,0,0.5-0.1,0.8-0.2
			s0.4-0.4,0.4-0.9V331.3z"/>
		<path class="st1" d="M173.6,334.5l0.2,0c0.1,0,0.2,0,0.4,0s0.2,0,0.3-0.1c0.1,0,0.1-0.2,0.2-0.3s0.1-0.3,0.1-0.3l-1.8-5h1.4l1,3.5
			l1-3.5h1.3l-1.6,4.7c-0.3,0.9-0.6,1.5-0.8,1.7c-0.2,0.2-0.6,0.3-1.1,0.3c-0.1,0-0.2,0-0.3,0c-0.1,0-0.2,0-0.3,0V334.5z"/>
		<path class="st1" d="M184.5,327.8c0.4-0.4,0.9-0.6,1.5-0.6c1,0,1.6,0.4,2,1.3c0.2,0.5,0.3,1.1,0.3,1.9c0,0.8-0.1,1.4-0.3,1.9
			c-0.4,1-1.1,1.5-2.1,1.5c-0.5,0-0.9-0.1-1.3-0.4c-0.4-0.3-0.6-0.7-0.7-1.2h1.2c0,0.2,0.1,0.3,0.2,0.5s0.3,0.2,0.5,0.2
			c0.4,0,0.7-0.2,0.9-0.7c0.1-0.3,0.1-0.6,0.2-1.1c-0.1,0.1-0.2,0.3-0.4,0.3c-0.2,0.1-0.5,0.2-0.9,0.2c-0.5,0-1-0.2-1.3-0.5
			c-0.4-0.3-0.6-0.9-0.6-1.5C183.9,328.8,184.1,328.3,184.5,327.8z M186.6,330.4c0.3-0.2,0.4-0.5,0.4-0.9c0-0.4-0.1-0.6-0.3-0.9
			c-0.2-0.2-0.4-0.3-0.7-0.3c-0.2,0-0.4,0.1-0.5,0.2c-0.2,0.2-0.4,0.5-0.4,1c0,0.4,0.1,0.7,0.2,0.9c0.2,0.2,0.4,0.3,0.7,0.3
			C186.3,330.5,186.5,330.5,186.6,330.4z"/>
		<path class="st1" d="M199,327.3c0.5,0.1,0.8,0.4,1.1,0.8c0.2,0.3,0.4,0.7,0.5,1s0.1,0.7,0.1,1.1c0,0.9-0.2,1.6-0.5,2.2
			c-0.5,0.8-1.2,1.2-2.2,1.2h-2.8v-6.5h2.8C198.4,327.2,198.7,327.2,199,327.3z M196.5,328.3v4.2h1.2c0.6,0,1.1-0.3,1.3-0.9
			c0.1-0.3,0.2-0.8,0.2-1.2c0-0.7-0.1-1.2-0.3-1.5c-0.2-0.4-0.6-0.5-1.2-0.5H196.5z"/>
		<path class="st1" d="M204.7,328.9c0.3,0.1,0.6,0.4,0.8,0.7c0.2,0.3,0.3,0.6,0.4,1c0,0.2,0,0.5,0,1h-3.5c0,0.5,0.2,0.8,0.5,1
			c0.2,0.1,0.4,0.2,0.7,0.2c0.3,0,0.5-0.1,0.7-0.2c0.1-0.1,0.2-0.2,0.3-0.3h1.3c0,0.3-0.2,0.6-0.5,0.9c-0.4,0.5-1,0.7-1.8,0.7
			c-0.6,0-1.2-0.2-1.7-0.6c-0.5-0.4-0.7-1-0.7-1.9c0-0.8,0.2-1.5,0.7-1.9c0.4-0.4,1-0.7,1.7-0.7C204,328.7,204.4,328.8,204.7,328.9z
			 M202.8,330c-0.2,0.2-0.3,0.4-0.3,0.7h2.2c0-0.3-0.1-0.6-0.3-0.8c-0.2-0.2-0.4-0.3-0.7-0.3C203.2,329.7,203,329.8,202.8,330z"/>
		<path class="st1" d="M209.4,330.6c0-0.2-0.1-0.3-0.2-0.5c-0.1-0.2-0.4-0.3-0.7-0.3c-0.4,0-0.7,0.2-0.9,0.6
			c-0.1,0.2-0.1,0.5-0.1,0.9c0,0.4,0,0.6,0.1,0.8c0.1,0.4,0.4,0.6,0.8,0.6c0.3,0,0.5-0.1,0.6-0.2c0.1-0.2,0.2-0.4,0.2-0.6h1.3
			c0,0.4-0.2,0.7-0.4,1.1c-0.4,0.5-1,0.8-1.7,0.8c-0.8,0-1.3-0.2-1.7-0.7s-0.5-1-0.5-1.8c0-0.8,0.2-1.5,0.6-1.9
			c0.4-0.5,1-0.7,1.7-0.7c0.6,0,1.1,0.1,1.5,0.4c0.4,0.3,0.6,0.7,0.7,1.4H209.4z"/>
		<path class="st1" d="M214.7,328.9c0.3,0.1,0.6,0.4,0.8,0.7c0.2,0.3,0.3,0.6,0.4,1c0,0.2,0,0.5,0,1h-3.5c0,0.5,0.2,0.8,0.5,1
			c0.2,0.1,0.4,0.2,0.7,0.2c0.3,0,0.5-0.1,0.7-0.2c0.1-0.1,0.2-0.2,0.3-0.3h1.3c0,0.3-0.2,0.6-0.5,0.9c-0.4,0.5-1,0.7-1.8,0.7
			c-0.6,0-1.2-0.2-1.7-0.6c-0.5-0.4-0.7-1-0.7-1.9c0-0.8,0.2-1.5,0.7-1.9c0.4-0.4,1-0.7,1.7-0.7C214,328.7,214.4,328.8,214.7,328.9z
			 M212.8,330c-0.2,0.2-0.3,0.4-0.3,0.7h2.2c0-0.3-0.1-0.6-0.3-0.8c-0.2-0.2-0.4-0.3-0.7-0.3C213.3,329.7,213,329.8,212.8,330z"/>
		<path class="st1" d="M222.6,328.9c0.2,0.1,0.4,0.2,0.6,0.4c0.1,0.2,0.2,0.4,0.3,0.6c0,0.2,0,0.4,0,0.7l0,3h-1.3v-3
			c0-0.2,0-0.3-0.1-0.4c-0.1-0.2-0.3-0.3-0.6-0.3c-0.3,0-0.6,0.1-0.7,0.4c-0.1,0.2-0.1,0.3-0.1,0.5v2.9h-1.3v-2.9
			c0-0.3,0-0.5-0.1-0.6c-0.1-0.2-0.3-0.3-0.6-0.3c-0.4,0-0.6,0.1-0.7,0.3c-0.1,0.1-0.1,0.3-0.1,0.6v2.9h-1.3v-4.8h1.2v0.7
			c0.2-0.2,0.3-0.4,0.4-0.5c0.2-0.2,0.6-0.3,0.9-0.3c0.4,0,0.7,0.1,0.9,0.2c0.2,0.1,0.3,0.3,0.4,0.6c0.2-0.3,0.4-0.5,0.6-0.6
			c0.3-0.1,0.5-0.2,0.9-0.2C222.1,328.7,222.4,328.8,222.6,328.9z"/>
		<path class="st1" d="M228.7,329.4c0.4,0.5,0.5,1,0.5,1.8c0,0.7-0.2,1.4-0.5,1.8s-0.8,0.7-1.5,0.7c-0.4,0-0.7-0.1-1-0.2
			c-0.1-0.1-0.3-0.3-0.5-0.5v0.6h-1.2v-6.5h1.3v2.3c0.2-0.2,0.3-0.4,0.5-0.5c0.2-0.1,0.5-0.2,0.9-0.2
			C227.8,328.7,228.3,329,228.7,329.4z M227.6,332.3c0.2-0.3,0.3-0.6,0.3-1c0-0.3,0-0.6-0.1-0.8c-0.2-0.4-0.5-0.6-0.9-0.6
			c-0.5,0-0.8,0.2-0.9,0.6c-0.1,0.2-0.1,0.5-0.1,0.9c0,0.4,0.1,0.8,0.3,1c0.2,0.3,0.5,0.4,0.8,0.4
			C227.2,332.7,227.4,332.6,227.6,332.3z"/>
		<path class="st1" d="M233.2,328.9c0.3,0.1,0.6,0.4,0.8,0.7c0.2,0.3,0.3,0.6,0.4,1c0,0.2,0,0.5,0,1H231c0,0.5,0.2,0.8,0.5,1
			c0.2,0.1,0.4,0.2,0.7,0.2c0.3,0,0.5-0.1,0.7-0.2c0.1-0.1,0.2-0.2,0.3-0.3h1.3c0,0.3-0.2,0.6-0.5,0.9c-0.4,0.5-1,0.7-1.8,0.7
			c-0.6,0-1.2-0.2-1.7-0.6c-0.5-0.4-0.7-1-0.7-1.9c0-0.8,0.2-1.5,0.7-1.9c0.4-0.4,1-0.7,1.7-0.7
			C232.5,328.7,232.9,328.8,233.2,328.9z M231.3,330c-0.2,0.2-0.3,0.4-0.3,0.7h2.2c0-0.3-0.1-0.6-0.3-0.8c-0.2-0.2-0.4-0.3-0.7-0.3
			C231.8,329.7,231.5,329.8,231.3,330z"/>
		<path class="st1" d="M237.8,328.7c0,0,0.1,0,0.1,0v1.3c-0.1,0-0.2,0-0.2,0c-0.1,0-0.1,0-0.2,0c-0.5,0-0.8,0.2-1,0.5
			c-0.1,0.2-0.1,0.5-0.1,0.9v2.3h-1.3v-4.8h1.2v0.8c0.2-0.3,0.4-0.5,0.5-0.7C237,328.8,237.3,328.7,237.8,328.7
			C237.7,328.7,237.7,328.7,237.8,328.7z"/>
		<path class="st1" d="M244.4,332.4c0.2-0.4,0.6-0.9,1.3-1.3c0.6-0.4,1-0.7,1.1-0.9c0.3-0.3,0.4-0.6,0.4-0.9c0-0.3-0.1-0.5-0.2-0.7
			s-0.4-0.3-0.6-0.3c-0.4,0-0.6,0.1-0.8,0.4c-0.1,0.2-0.1,0.4-0.1,0.8h-1.2c0-0.5,0.1-1,0.3-1.3c0.3-0.6,0.9-1,1.8-1
			c0.7,0,1.2,0.2,1.6,0.6c0.4,0.4,0.6,0.9,0.6,1.5c0,0.5-0.1,0.9-0.4,1.3c-0.2,0.2-0.5,0.5-0.9,0.8l-0.5,0.4
			c-0.3,0.2-0.5,0.4-0.6,0.5c-0.1,0.1-0.2,0.2-0.3,0.3h2.8v1.1h-4.4C244.1,333.2,244.2,332.8,244.4,332.4z"/>
		<path class="st1" d="M253,328.1c0.3,0.6,0.5,1.4,0.5,2.4s-0.2,1.9-0.5,2.4c-0.3,0.6-0.9,0.9-1.7,0.9s-1.4-0.3-1.7-0.9
			c-0.3-0.6-0.5-1.4-0.5-2.4s0.2-1.9,0.5-2.4c0.3-0.6,0.9-0.9,1.7-0.9S252.7,327.5,253,328.1z M250.6,332.2c0.1,0.4,0.4,0.6,0.7,0.6
			s0.6-0.2,0.7-0.6c0.1-0.4,0.2-0.9,0.2-1.7c0-0.8-0.1-1.3-0.2-1.7c-0.1-0.4-0.4-0.6-0.7-0.6s-0.6,0.2-0.7,0.6s-0.2,0.9-0.2,1.7
			C250.4,331.2,250.5,331.8,250.6,332.2z"/>
		<path class="st1" d="M254.4,332.4c0.2-0.4,0.6-0.9,1.3-1.3c0.6-0.4,1-0.7,1.1-0.9c0.3-0.3,0.4-0.6,0.4-0.9c0-0.3-0.1-0.5-0.2-0.7
			s-0.4-0.3-0.6-0.3c-0.4,0-0.6,0.1-0.8,0.4c-0.1,0.2-0.1,0.4-0.1,0.8h-1.2c0-0.5,0.1-1,0.3-1.3c0.3-0.6,0.9-1,1.8-1
			c0.7,0,1.2,0.2,1.6,0.6c0.4,0.4,0.6,0.9,0.6,1.5c0,0.5-0.1,0.9-0.4,1.3c-0.2,0.2-0.5,0.5-0.9,0.8l-0.5,0.4
			c-0.3,0.2-0.5,0.4-0.6,0.5c-0.1,0.1-0.2,0.2-0.3,0.3h2.8v1.1h-4.4C254.1,333.2,254.2,332.8,254.4,332.4z"/>
		<path class="st1" d="M259.4,332.4c0.2-0.4,0.6-0.9,1.3-1.3c0.6-0.4,1-0.7,1.1-0.9c0.3-0.3,0.4-0.6,0.4-0.9c0-0.3-0.1-0.5-0.2-0.7
			s-0.4-0.3-0.6-0.3c-0.4,0-0.6,0.1-0.8,0.4c-0.1,0.2-0.1,0.4-0.1,0.8h-1.2c0-0.5,0.1-1,0.3-1.3c0.3-0.6,0.9-1,1.8-1
			c0.7,0,1.2,0.2,1.6,0.6c0.4,0.4,0.6,0.9,0.6,1.5c0,0.5-0.1,0.9-0.4,1.3c-0.2,0.2-0.5,0.5-0.9,0.8l-0.5,0.4
			c-0.3,0.2-0.5,0.4-0.6,0.5c-0.1,0.1-0.2,0.2-0.3,0.3h2.8v1.1h-4.4C259.1,333.2,259.2,332.8,259.4,332.4z"/>
		<path class="st1" d="M271.7,327h1l-2.5,6.7h-1L271.7,327z"/>
		<path class="st1" d="M278.5,330.9c0.2-0.3,0.4-0.5,0.7-0.7c-0.3-0.2-0.5-0.4-0.6-0.7c-0.1-0.2-0.1-0.5-0.1-0.7
			c0-0.5,0.2-0.9,0.5-1.2c0.3-0.3,0.8-0.5,1.5-0.5c0.6,0,1.1,0.2,1.5,0.5c0.3,0.3,0.5,0.7,0.5,1.2c0,0.2,0,0.4-0.1,0.7
			c-0.1,0.2-0.3,0.4-0.6,0.6c0.3,0.2,0.6,0.4,0.7,0.7s0.2,0.6,0.2,1c0,0.5-0.2,1-0.6,1.4c-0.4,0.4-1,0.6-1.7,0.6
			c-0.7,0-1.3-0.2-1.6-0.6c-0.4-0.4-0.5-0.8-0.5-1.4C278.2,331.5,278.3,331.2,278.5,330.9z M279.8,332.5c0.2,0.2,0.4,0.3,0.7,0.3
			c0.3,0,0.5-0.1,0.7-0.3c0.2-0.2,0.2-0.4,0.2-0.7c0-0.3-0.1-0.6-0.2-0.7c-0.2-0.2-0.4-0.3-0.7-0.3s-0.5,0.1-0.7,0.3
			c-0.2,0.2-0.2,0.4-0.2,0.7C279.5,332.1,279.6,332.3,279.8,332.5z M279.9,329.6c0.1,0.1,0.3,0.2,0.6,0.2c0.3,0,0.5-0.1,0.6-0.2
			s0.2-0.3,0.2-0.6c0-0.3-0.1-0.4-0.2-0.6c-0.1-0.1-0.3-0.2-0.6-0.2c-0.3,0-0.5,0.1-0.6,0.2c-0.1,0.1-0.2,0.3-0.2,0.6
			C279.6,329.3,279.7,329.5,279.9,329.6z"/>
		<path class="st1" d="M283.2,330.5h2.5v1.2h-2.5V330.5z"/>
		<path class="st1" d="M286.9,327.8c0.4-0.4,0.9-0.6,1.5-0.6c1,0,1.6,0.4,2,1.3c0.2,0.5,0.3,1.1,0.3,1.9c0,0.8-0.1,1.4-0.3,1.9
			c-0.4,1-1.1,1.5-2.1,1.5c-0.5,0-0.9-0.1-1.3-0.4c-0.4-0.3-0.6-0.7-0.7-1.2h1.2c0,0.2,0.1,0.3,0.2,0.5s0.3,0.2,0.5,0.2
			c0.4,0,0.7-0.2,0.9-0.7c0.1-0.3,0.1-0.6,0.2-1.1c-0.1,0.1-0.2,0.3-0.4,0.3c-0.2,0.1-0.5,0.2-0.9,0.2c-0.5,0-1-0.2-1.3-0.5
			c-0.4-0.3-0.6-0.9-0.6-1.5C286.3,328.8,286.5,328.3,286.9,327.8z M289,330.4c0.3-0.2,0.4-0.5,0.4-0.9c0-0.4-0.1-0.6-0.3-0.9
			c-0.2-0.2-0.4-0.3-0.7-0.3c-0.2,0-0.4,0.1-0.5,0.2c-0.2,0.2-0.4,0.5-0.4,1c0,0.4,0.1,0.7,0.2,0.9c0.2,0.2,0.4,0.3,0.7,0.3
			C288.6,330.5,288.8,330.5,289,330.4z"/>
		<path class="st1" d="M293.5,327.2h1.5l2.3,6.5h-1.5l-0.4-1.3h-2.4l-0.4,1.3h-1.4L293.5,327.2z M293.5,331.2h1.7l-0.8-2.5
			L293.5,331.2z"/>
		<path class="st1" d="M302.5,327.2h1.9v6.5h-1.3v-4.4c0-0.1,0-0.3,0-0.5c0-0.2,0-0.4,0-0.5l-1.2,5.4h-1.3l-1.2-5.4
			c0,0.1,0,0.3,0,0.5c0,0.2,0,0.4,0,0.5v4.4h-1.3v-6.5h2l1.2,5.1L302.5,327.2z"/>
	</g>
</g>
<g id="_x33_D::EXISTING_CONDITIONS::OP4">
	<path class="st2" d="M5,380.4c1.5,0,2.9,0,4.4,0c0,2.6,0,5.1,0,7.7c0,1.1,0.2,2.3,0.7,3.4c0.4,1.1,1.1,2,1.9,2.8
		c0.8,0.8,1.8,1.5,2.8,1.9c1.1,0.4,2.2,0.7,3.3,0.7c5.8,0,11.7,0,17.5,0c1.1,0,2.3-0.2,3.3-0.7c1.1-0.4,2-1.1,2.8-1.9
		c0.8-0.8,1.5-1.8,1.9-2.8s0.7-2.2,0.7-3.4c0-2.6,0-5.1,0-7.7c2.9,0,5.8,0,8.7,0c0,2.6,0,5.1,0,7.7c0,1.1,0.2,2.3,0.7,3.4
		s1.1,2,1.9,2.8c0.8,0.8,1.8,1.5,2.8,1.9c1.1,0.4,2.2,0.7,3.3,0.7c5.8,0,11.7,0,17.5,0c1.1,0,2.3-0.2,3.3-0.7c1.1-0.4,2-1.1,2.8-1.9
		c0.8-0.8,1.5-1.8,1.9-2.8c0.4-1.1,0.7-2.2,0.7-3.4c0-2.6,0-5.1,0-7.7c2.9,0,5.8,0,8.8,0c0,2.6,0,5.1,0,7.7c0,1.1,0.2,2.3,0.7,3.4
		c0.4,1.1,1.1,2,1.9,2.8c0.8,0.8,1.8,1.5,2.8,1.9c1.1,0.4,2.2,0.7,3.3,0.7c5.8,0,11.7,0,17.5,0c1.1,0,2.3-0.2,3.3-0.7
		c1.1-0.4,2-1.1,2.8-1.9c0.8-0.8,1.5-1.8,1.9-2.8s0.7-2.2,0.7-3.4c0-2.6,0-5.1,0-7.7c2.9,0,5.8,0,8.7,0c0,2.6,0,5.1,0,7.7
		c0,1.1,0.2,2.3,0.7,3.4c0.4,1.1,1.1,2,1.9,2.8c0.8,0.8,1.8,1.5,2.8,1.9c1.1,0.4,2.2,0.7,3.3,0.7c5.8,0,11.7,0,17.5,0
		c1.1,0,2.3-0.2,3.3-0.7c1.1-0.4,2-1.1,2.8-1.9c0.8-0.8,1.5-1.8,1.9-2.8c0.4-1.1,0.7-2.2,0.7-3.4c0-2.6,0-5.1,0-7.7
		c2.9,0,5.8,0,8.7,0c0,2.6,0,5.1,0,7.7c0,1.1,0.2,2.3,0.7,3.4c0.4,1.1,1.1,2,1.9,2.8c0.8,0.8,1.8,1.5,2.8,1.9
		c1.1,0.4,2.2,0.7,3.3,0.7c5.8,0,11.7,0,17.5,0c1.1,0,2.3-0.2,3.3-0.7c1.1-0.4,2-1.1,2.8-1.9c0.8-0.8,1.5-1.8,1.9-2.8
		c0.4-1.1,0.7-2.2,0.7-3.4c0-2.6,0-5.1,0-7.7c2.9,0,5.8,0,8.7,0c0,2.6,0,5.1,0,7.7c0,1.1,0.2,2.3,0.7,3.4s1.1,2,1.9,2.8
		c0.8,0.8,1.8,1.5,2.8,1.9c1.1,0.4,2.2,0.7,3.3,0.7c5.8,0,11.7,0,17.5,0c1.1,0,2.3-0.2,3.3-0.7c1.1-0.4,2-1.1,2.8-1.9
		c0.8-0.8,1.5-1.8,1.9-2.8s0.7-2.2,0.7-3.4c0-2.6,0-5.1,0-7.7c2.9,0,5.8,0,8.7,0c0,2.6,0,5.1,0,7.7c0,1.1,0.2,2.3,0.7,3.4
		s1.1,2,1.9,2.8c0.8,0.8,1.8,1.5,2.8,1.9c1.1,0.4,2.2,0.7,3.3,0.7c5.8,0,11.7,0,17.5,0c1.1,0,2.3-0.2,3.3-0.7c1.1-0.4,2-1.1,2.8-1.9
		c0.8-0.8,1.5-1.8,1.9-2.8s0.7-2.2,0.7-3.4c0-2.6,0-5.1,0-7.7c2.9,0,5.8,0,8.7,0c0,2.6,0,5.1,0,7.7c0,1.1,0.2,2.3,0.7,3.4
		c0.4,1.1,1.1,2,1.9,2.8c0.8,0.8,1.8,1.5,2.8,1.9c1.1,0.4,2.2,0.7,3.3,0.7c5.8,0,11.7,0,17.5,0c1.1,0,2.3-0.2,3.3-0.7
		c1.1-0.4,2-1.1,2.8-1.9c0.8-0.8,1.5-1.8,1.9-2.8c0.4-1.1,0.7-2.2,0.7-3.4c0-2.6,0-5.1,0-7.7c1.5,0,2.9,0,4.4,0"/>
	<path class="st2" d="M288.5,396.9c0-6.4,0-12.8,0-19.1c0,0,0,0,0,0c0,0,0,0,0.1,0c0,0,0,0,0.1,0c0,0,0,0,0.1,0c0,0,0,0,0.1,0
		c0,0,0,0,0.1,0s0,0,0.1,0c0,0,0,0,0.1,0c0,0,0,0,0,0c0,0,0,0,0,0c0,0,0,0,0,0c0,0,0,0,0,0c0,0,0,0,0,0c0,0,0,0,0,0c0,0,0,0,0,0
		c0,0,0,0,0,0c0,0,0,0,0,0c0,0,0,0,0,0c0,0,0,0,0,0c0,0,0,0,0,0c0,0,0,0,0,0c0,0,0,0,0,0c0,0,0,0,0,0c0,0,0,0,0,0c0,0,0,0,0,0
		c0,0,0,0,0,0c0,0,0,0,0,0c0,0,0,0,0,0c0,0,0,0,0,0c0,0,0,0,0,0c0,0,0,0,0,0c0,0,0,0,0,0c0,0,0,0,0,0c0,0,0,0,0,0c0,0,0,0,0,0
		c0,0,0,0,0,0c0,0,0,0,0,0c0,0,0,0,0,0c0,0,0,0,0,0c0,0,0,0,0,0c0,0,0,0,0,0c0,0,0,0,0,0c0,0,0,0,0,0c0,0,0,0,0,0c0,0,0,0,0,0
		c0,0,0,0,0,0c0,0,0,0,0,0c0,0,0,0,0,0c0,0,0,0,0.1,0c0,0,0,0,0.1,0c0,0,0,0,0.1,0c0,0,0,0,0.1,0c0,0,0,0,0.1,0c0,0,0,0,0,0
		c0,0,0,0,0,0c0,0,0,0,0.1,0c0,0,0,0,0,0c0,6.4,0,12.8,0,19.1"/>
	<path class="st2" d="M69.7,396.9c0-6.4,0-12.8,0-19.3c0,0,0,0,0,0c0,0,0,0,0.1,0c0,0,0,0,0.1,0c0,0,0,0,0.1,0c0,0,0,0,0.1,0
		c0,0,0,0,0.1,0c0,0,0,0,0.1,0c0,0,0,0,0.1,0c0,0,0,0,0,0c0,0,0,0,0,0c0,0,0,0,0,0c0,0,0,0,0,0s0,0,0,0c0,0,0,0,0,0c0,0,0,0,0,0
		c0,0,0,0,0,0c0,0,0,0,0,0c0,0,0,0,0,0c0,0,0,0,0,0c0,0,0,0,0,0c0,0,0,0,0,0c0,0,0,0,0,0c0,0,0,0,0,0c0,0,0,0,0,0c0,0,0,0,0,0
		c0,0,0,0,0,0c0,0,0,0,0,0c0,0,0,0,0,0c0,0,0,0,0,0c0,0,0,0,0,0c0,0,0,0,0,0c0,0,0,0,0,0c0,0,0,0,0,0c0,0,0,0,0,0c0,0,0,0,0,0
		c0,0,0,0,0,0c0,0,0,0,0,0c0,0,0,0,0,0c0,0,0,0,0,0c0,0,0,0,0,0c0,0,0,0,0,0c0,0,0,0,0,0c0,0,0,0,0,0c0,0,0,0,0,0c0,0,0,0,0,0
		c0,0,0,0,0,0c0,0,0,0,0,0c0,0,0,0,0,0c0,0,0,0,0.1,0c0,0,0,0,0.1,0c0,0,0,0,0.1,0c0,0,0,0,0.1,0c0,0,0,0,0.1,0c0,0,0,0,0,0
		c0,0,0,0,0,0c0,0,0,0,0.1,0c0,0,0,0,0,0c0,6.4,0,12.8,0,19.3"/>
	<path class="st2" d="M113.5,396.9c0-6.4,0-12.8,0-19.3c0,0,0,0,0,0c0,0,0,0,0.1,0c0,0,0,0,0.1,0c0,0,0,0,0.1,0c0,0,0,0,0.1,0
		c0,0,0,0,0.1,0c0,0,0,0,0.1,0c0,0,0,0,0.1,0c0,0,0,0,0,0c0,0,0,0,0,0c0,0,0,0,0,0s0,0,0,0s0,0,0,0c0,0,0,0,0,0c0,0,0,0,0,0
		c0,0,0,0,0,0c0,0,0,0,0,0c0,0,0,0,0,0c0,0,0,0,0,0c0,0,0,0,0,0c0,0,0,0,0,0c0,0,0,0,0,0c0,0,0,0,0,0c0,0,0,0,0,0c0,0,0,0,0,0
		c0,0,0,0,0,0c0,0,0,0,0,0c0,0,0,0,0,0c0,0,0,0,0,0c0,0,0,0,0,0c0,0,0,0,0,0c0,0,0,0,0,0c0,0,0,0,0,0c0,0,0,0,0,0c0,0,0,0,0,0
		c0,0,0,0,0,0c0,0,0,0,0,0c0,0,0,0,0,0s0,0,0,0c0,0,0,0,0,0c0,0,0,0,0,0c0,0,0,0,0,0c0,0,0,0,0,0c0,0,0,0,0,0c0,0,0,0,0,0
		c0,0,0,0,0,0c0,0,0,0,0,0c0,0,0,0,0,0c0,0,0,0,0.1,0c0,0,0,0,0.1,0c0,0,0,0,0.1,0c0,0,0,0,0.1,0c0,0,0,0,0.1,0c0,0,0,0,0,0
		c0,0,0,0,0,0c0,0,0,0,0.1,0c0,0,0,0,0,0c0,6.4,0,12.8,0,19.3"/>
	<path class="st2" d="M157.3,396.9c0-6.4,0-12.8,0-19.3c0,0,0,0,0,0c0,0,0,0,0.1,0c0,0,0,0,0.1,0c0,0,0,0,0.1,0c0,0,0,0,0.1,0
		c0,0,0,0,0.1,0c0,0,0,0,0.1,0c0,0,0,0,0.1,0c0,0,0,0,0,0c0,0,0,0,0,0c0,0,0,0,0,0s0,0,0,0c0,0,0,0,0,0c0,0,0,0,0,0c0,0,0,0,0,0
		c0,0,0,0,0,0c0,0,0,0,0,0c0,0,0,0,0,0c0,0,0,0,0,0c0,0,0,0,0,0c0,0,0,0,0,0c0,0,0,0,0,0c0,0,0,0,0,0c0,0,0,0,0,0c0,0,0,0,0,0
		c0,0,0,0,0,0c0,0,0,0,0,0c0,0,0,0,0,0c0,0,0,0,0,0c0,0,0,0,0,0c0,0,0,0,0,0c0,0,0,0,0,0c0,0,0,0,0,0c0,0,0,0,0,0c0,0,0,0,0,0
		c0,0,0,0,0,0c0,0,0,0,0,0c0,0,0,0,0,0c0,0,0,0,0,0c0,0,0,0,0,0c0,0,0,0,0,0c0,0,0,0,0,0c0,0,0,0,0,0c0,0,0,0,0,0c0,0,0,0,0,0
		c0,0,0,0,0,0c0,0,0,0,0,0c0,0,0,0,0,0c0,0,0,0,0.1,0c0,0,0,0,0.1,0c0,0,0,0,0.1,0c0,0,0,0,0.1,0c0,0,0,0,0.1,0c0,0,0,0,0,0
		c0,0,0,0,0,0c0,0,0,0,0.1,0c0,0,0,0,0,0c0,6.4,0,12.8,0,19.3"/>
	<path class="st2" d="M201,396.9c0-6.4,0-12.8,0-19.3c0,0,0,0,0,0c0,0,0,0,0.1,0c0,0,0,0,0.1,0c0,0,0,0,0.1,0c0,0,0,0,0.1,0
		c0,0,0,0,0.1,0c0,0,0,0,0.1,0c0,0,0,0,0.1,0c0,0,0,0,0,0c0,0,0,0,0,0c0,0,0,0,0,0c0,0,0,0,0,0c0,0,0,0,0,0c0,0,0,0,0,0c0,0,0,0,0,0
		c0,0,0,0,0,0c0,0,0,0,0,0c0,0,0,0,0,0c0,0,0,0,0,0c0,0,0,0,0,0c0,0,0,0,0,0c0,0,0,0,0,0c0,0,0,0,0,0c0,0,0,0,0,0c0,0,0,0,0,0
		c0,0,0,0,0,0c0,0,0,0,0,0c0,0,0,0,0,0c0,0,0,0,0,0c0,0,0,0,0,0c0,0,0,0,0,0c0,0,0,0,0,0c0,0,0,0,0,0c0,0,0,0,0,0c0,0,0,0,0,0
		c0,0,0,0,0,0c0,0,0,0,0,0c0,0,0,0,0,0c0,0,0,0,0,0c0,0,0,0,0,0c0,0,0,0,0,0c0,0,0,0,0,0c0,0,0,0,0,0c0,0,0,0,0,0s0,0,0,0
		c0,0,0,0,0,0c0,0,0,0,0,0c0,0,0,0,0,0c0,0,0,0,0.1,0c0,0,0,0,0.1,0c0,0,0,0,0.1,0c0,0,0,0,0.1,0c0,0,0,0,0.1,0c0,0,0,0,0,0
		c0,0,0,0,0,0c0,0,0,0,0.1,0c0,0,0,0,0,0c0,6.4,0,12.8,0,19.3"/>
	<path class="st2" d="M244.7,396.9c0-6.4,0-12.8,0-19.3c0,0,0,0,0,0c0,0,0,0,0.1,0c0,0,0,0,0.1,0c0,0,0,0,0.1,0c0,0,0,0,0.1,0
		c0,0,0,0,0.1,0c0,0,0,0,0.1,0c0,0,0,0,0.1,0c0,0,0,0,0,0c0,0,0,0,0,0c0,0,0,0,0,0c0,0,0,0,0,0c0,0,0,0,0,0c0,0,0,0,0,0c0,0,0,0,0,0
		c0,0,0,0,0,0c0,0,0,0,0,0c0,0,0,0,0,0c0,0,0,0,0,0c0,0,0,0,0,0c0,0,0,0,0,0c0,0,0,0,0,0c0,0,0,0,0,0c0,0,0,0,0,0c0,0,0,0,0,0
		c0,0,0,0,0,0c0,0,0,0,0,0c0,0,0,0,0,0c0,0,0,0,0,0c0,0,0,0,0,0c0,0,0,0,0,0c0,0,0,0,0,0c0,0,0,0,0,0c0,0,0,0,0,0c0,0,0,0,0,0
		c0,0,0,0,0,0c0,0,0,0,0,0c0,0,0,0,0,0s0,0,0,0c0,0,0,0,0,0c0,0,0,0,0,0c0,0,0,0,0,0c0,0,0,0,0,0c0,0,0,0,0,0c0,0,0,0,0,0
		c0,0,0,0,0,0c0,0,0,0,0,0c0,0,0,0,0,0c0,0,0,0,0.1,0s0,0,0.1,0c0,0,0,0,0.1,0c0,0,0,0,0.1,0c0,0,0,0,0.1,0c0,0,0,0,0,0c0,0,0,0,0,0
		c0,0,0,0,0.1,0c0,0,0,0,0,0c0,6.4,0,12.8,0,19.3"/>
	<path class="st2" d="M26,396.9c0-6.4,0-12.8,0-19.3c0,0,0,0,0,0c0,0,0,0,0.1,0c0,0,0,0,0.1,0c0,0,0,0,0.1,0c0,0,0,0,0.1,0
		c0,0,0,0,0.1,0c0,0,0,0,0.1,0c0,0,0,0,0.1,0c0,0,0,0,0,0c0,0,0,0,0,0c0,0,0,0,0,0s0,0,0,0c0,0,0,0,0,0c0,0,0,0,0,0c0,0,0,0,0,0
		c0,0,0,0,0,0c0,0,0,0,0,0c0,0,0,0,0,0c0,0,0,0,0,0c0,0,0,0,0,0c0,0,0,0,0,0c0,0,0,0,0,0c0,0,0,0,0,0c0,0,0,0,0,0c0,0,0,0,0,0
		c0,0,0,0,0,0c0,0,0,0,0,0c0,0,0,0,0,0c0,0,0,0,0,0c0,0,0,0,0,0c0,0,0,0,0,0c0,0,0,0,0,0c0,0,0,0,0,0c0,0,0,0,0,0c0,0,0,0,0,0
		c0,0,0,0,0,0c0,0,0,0,0,0c0,0,0,0,0,0c0,0,0,0,0,0c0,0,0,0,0,0c0,0,0,0,0,0c0,0,0,0,0,0c0,0,0,0,0,0c0,0,0,0,0,0s0,0,0,0
		c0,0,0,0,0,0c0,0,0,0,0,0c0,0,0,0,0,0c0,0,0,0,0.1,0s0,0,0.1,0c0,0,0,0,0.1,0c0,0,0,0,0.1,0c0,0,0,0,0.1,0c0,0,0,0,0,0c0,0,0,0,0,0
		c0,0,0,0,0.1,0c0,0,0,0,0,0c0,6.4,0,12.8,0,19.3"/>
	<path class="st2" d="M332.2,396.9c0-6.4,0-12.8,0-19.1c0,0,0,0,0,0c0,0,0,0,0.1,0c0,0,0,0,0.1,0c0,0,0,0,0.1,0c0,0,0,0,0.1,0
		c0,0,0,0,0.1,0c0,0,0,0,0.1,0c0,0,0,0,0.1,0c0,0,0,0,0,0c0,0,0,0,0,0c0,0,0,0,0,0c0,0,0,0,0,0c0,0,0,0,0,0c0,0,0,0,0,0c0,0,0,0,0,0
		c0,0,0,0,0,0c0,0,0,0,0,0c0,0,0,0,0,0c0,0,0,0,0,0c0,0,0,0,0,0c0,0,0,0,0,0c0,0,0,0,0,0c0,0,0,0,0,0c0,0,0,0,0,0c0,0,0,0,0,0
		c0,0,0,0,0,0c0,0,0,0,0,0c0,0,0,0,0,0s0,0,0,0c0,0,0,0,0,0c0,0,0,0,0,0c0,0,0,0,0,0c0,0,0,0,0,0c0,0,0,0,0,0c0,0,0,0,0,0
		c0,0,0,0,0,0c0,0,0,0,0,0c0,0,0,0,0,0c0,0,0,0,0,0c0,0,0,0,0,0c0,0,0,0,0,0c0,0,0,0,0,0c0,0,0,0,0,0c0,0,0,0,0,0c0,0,0,0,0,0
		c0,0,0,0,0,0c0,0,0,0,0,0c0,0,0,0,0,0c0,0,0,0,0.1,0c0,0,0,0,0.1,0c0,0,0,0,0.1,0c0,0,0,0,0.1,0c0,0,0,0,0.1,0c0,0,0,0,0,0
		c0,0,0,0,0,0c0,0,0,0,0.1,0c0,0,0,0,0,0c0,6.4,0,12.8,0,19.1"/>
	<line class="st2" x1="288.7" y1="377.6" x2="246.5" y2="377.6"/>
	<line class="st2" x1="113.5" y1="377.6" x2="71.5" y2="377.6"/>
	<line class="st2" x1="157.2" y1="377.6" x2="115.3" y2="377.6"/>
	<line class="st2" x1="201" y1="377.6" x2="159" y2="377.6"/>
	<line class="st2" x1="244.7" y1="377.6" x2="202.7" y2="377.6"/>
	<line class="st2" x1="69.7" y1="377.6" x2="27.7" y2="377.6"/>
	<line class="st2" x1="355" y1="377.6" x2="290.1" y2="377.6"/>
	<line class="st2" x1="26" y1="377.6" x2="5" y2="377.6"/>
	<line class="st2" x1="5" y1="375" x2="355" y2="375"/>
	<path class="st2" d="M315.6,493.6c0.2,2.2,1.2,4.3,2.8,5.8c1.6,1.5,3.7,2.3,5.9,2.3"/>
	<path class="st2" d="M315.6,447.5c0,15.4,0,30.8,0,46.2"/>
	<path class="st2" d="M324.4,438.7c-1.1,0-2.3,0.2-3.3,0.7c-1.1,0.4-2,1.1-2.8,1.9c-0.8,0.8-1.5,1.8-1.9,2.8
		c-0.4,1.1-0.7,2.2-0.7,3.4"/>
	<line class="st2" x1="341.9" y1="438.7" x2="324.4" y2="438.7"/>
	<path class="st2" d="M350.6,447.5c0-1.1-0.2-2.3-0.7-3.4c-0.4-1.1-1.1-2-1.9-2.8c-0.8-0.8-1.8-1.5-2.8-1.9
		c-1.1-0.4-2.2-0.7-3.3-0.7"/>
	<path class="st2" d="M350.6,493.6c0-15.4,0-30.8,0-46.2"/>
	<path class="st2" d="M341.9,501.7c2.2,0,4.3-0.8,5.9-2.3c1.6-1.5,2.6-3.6,2.8-5.8"/>
	<line class="st2" x1="324.4" y1="501.7" x2="341.9" y2="501.7"/>
	<path class="st2" d="M271.9,493.8c0.2,2.2,1.2,4.3,2.8,5.8c1.6,1.5,3.7,2.3,5.9,2.3"/>
	<path class="st2" d="M271.9,447.6c0,15.4,0,30.8,0,46.2"/>
	<path class="st2" d="M280.6,438.9c-1.1,0-2.3,0.2-3.3,0.7c-1.1,0.4-2,1.1-2.8,1.9c-0.8,0.8-1.5,1.8-1.9,2.8
		c-0.4,1.1-0.7,2.2-0.7,3.4"/>
	<line class="st2" x1="298.1" y1="438.9" x2="280.6" y2="438.9"/>
	<path class="st2" d="M306.9,447.6c0-1.1-0.2-2.3-0.7-3.4c-0.4-1.1-1.1-2-1.9-2.8c-0.8-0.8-1.8-1.5-2.8-1.9
		c-1.1-0.4-2.2-0.7-3.3-0.7"/>
	<path class="st2" d="M306.9,493.8c0-15.4,0-30.8,0-46.2"/>
	<path class="st2" d="M298.1,501.9c2.2,0,4.3-0.8,5.9-2.3c1.6-1.5,2.6-3.6,2.8-5.8"/>
	<line class="st2" x1="280.6" y1="501.9" x2="298.1" y2="501.9"/>
	<path class="st2" d="M228.1,493.8c0.2,2.2,1.2,4.3,2.8,5.8c1.6,1.5,3.7,2.3,5.9,2.3"/>
	<path class="st2" d="M228.1,447.6c0,15.4,0,30.8,0,46.2"/>
	<path class="st2" d="M236.9,438.9c-1.1,0-2.3,0.2-3.3,0.7c-1.1,0.4-2,1.1-2.8,1.9c-0.8,0.8-1.5,1.8-1.9,2.8
		c-0.4,1.1-0.7,2.2-0.7,3.4"/>
	<line class="st2" x1="254.4" y1="438.9" x2="236.9" y2="438.9"/>
	<path class="st2" d="M263.1,447.6c0-1.1-0.2-2.3-0.7-3.4c-0.4-1.1-1.1-2-1.9-2.8c-0.8-0.8-1.8-1.5-2.8-1.9
		c-1.1-0.4-2.2-0.7-3.3-0.7"/>
	<path class="st2" d="M263.1,493.8c0-15.4,0-30.8,0-46.2"/>
	<path class="st2" d="M254.4,501.9c2.2,0,4.3-0.8,5.9-2.3c1.6-1.5,2.6-3.6,2.8-5.8"/>
	<line class="st2" x1="236.9" y1="501.9" x2="254.4" y2="501.9"/>
	<path class="st2" d="M184.4,493.8c0.2,2.2,1.2,4.3,2.8,5.8c1.6,1.5,3.7,2.3,5.9,2.3"/>
	<path class="st2" d="M184.4,447.6c0,15.4,0,30.8,0,46.2"/>
	<path class="st2" d="M193.1,438.9c-1.1,0-2.3,0.2-3.3,0.7c-1.1,0.4-2,1.1-2.8,1.9c-0.8,0.8-1.5,1.8-1.9,2.8
		c-0.4,1.1-0.7,2.2-0.7,3.4"/>
	<line class="st2" x1="210.6" y1="438.9" x2="193.1" y2="438.9"/>
	<path class="st2" d="M219.4,447.6c0-1.1-0.2-2.3-0.7-3.4c-0.4-1.1-1.1-2-1.9-2.8c-0.8-0.8-1.8-1.5-2.8-1.9
		c-1.1-0.4-2.2-0.7-3.3-0.7"/>
	<path class="st2" d="M219.4,493.8c0-15.4,0-30.8,0-46.2"/>
	<path class="st2" d="M210.6,501.9c2.2,0,4.3-0.8,5.9-2.3c1.6-1.5,2.6-3.6,2.8-5.8"/>
	<line class="st2" x1="193.1" y1="501.9" x2="210.6" y2="501.9"/>
	<path class="st2" d="M140.6,493.8c0.2,2.2,1.2,4.3,2.8,5.8c1.6,1.5,3.7,2.3,5.9,2.3"/>
	<path class="st2" d="M140.6,447.6c0,15.4,0,30.8,0,46.2"/>
	<path class="st2" d="M149.4,438.9c-1.1,0-2.3,0.2-3.3,0.7c-1.1,0.4-2,1.1-2.8,1.9c-0.8,0.8-1.5,1.8-1.9,2.8
		c-0.4,1.1-0.7,2.2-0.7,3.4"/>
	<line class="st2" x1="166.9" y1="438.9" x2="149.4" y2="438.9"/>
	<path class="st2" d="M175.6,447.6c0-1.1-0.2-2.3-0.7-3.4c-0.4-1.1-1.1-2-1.9-2.8c-0.8-0.8-1.8-1.5-2.8-1.9
		c-1.1-0.4-2.2-0.7-3.3-0.7"/>
	<path class="st2" d="M175.6,493.8c0-15.4,0-30.8,0-46.2"/>
	<path class="st2" d="M166.9,501.9c2.2,0,4.3-0.8,5.9-2.3c1.6-1.5,2.6-3.6,2.8-5.8"/>
	<line class="st2" x1="149.4" y1="501.9" x2="166.9" y2="501.9"/>
	<path class="st2" d="M96.9,493.8c0.2,2.2,1.2,4.3,2.8,5.8c1.6,1.5,3.7,2.3,5.9,2.3"/>
	<path class="st2" d="M96.9,447.6c0,15.4,0,30.8,0,46.2"/>
	<path class="st2" d="M105.6,438.9c-1.1,0-2.3,0.2-3.3,0.7c-1.1,0.4-2,1.1-2.8,1.9c-0.8,0.8-1.5,1.8-1.9,2.8
		c-0.4,1.1-0.7,2.2-0.7,3.4"/>
	<line class="st2" x1="123.1" y1="438.9" x2="105.6" y2="438.9"/>
	<path class="st2" d="M131.9,447.6c0-1.1-0.2-2.3-0.7-3.4c-0.4-1.1-1.1-2-1.9-2.8c-0.8-0.8-1.8-1.5-2.8-1.9
		c-1.1-0.4-2.2-0.7-3.3-0.7"/>
	<path class="st2" d="M131.9,493.8c0-15.4,0-30.8,0-46.2"/>
	<path class="st2" d="M123.1,501.9c2.2,0,4.3-0.8,5.9-2.3c1.6-1.5,2.6-3.6,2.8-5.8"/>
	<line class="st2" x1="105.6" y1="501.9" x2="123.1" y2="501.9"/>
	<path class="st2" d="M53.1,493.8c0.2,2.2,1.2,4.3,2.8,5.8c1.6,1.5,3.7,2.3,5.9,2.3"/>
	<path class="st2" d="M53.1,447.6c0,15.4,0,30.8,0,46.2"/>
	<path class="st2" d="M61.9,438.9c-1.1,0-2.3,0.2-3.3,0.7c-1.1,0.4-2,1.1-2.8,1.9c-0.8,0.8-1.5,1.8-1.9,2.8
		c-0.4,1.1-0.7,2.2-0.7,3.4"/>
	<line class="st2" x1="79.4" y1="438.9" x2="61.9" y2="438.9"/>
	<path class="st2" d="M88.1,447.6c0-1.1-0.2-2.3-0.7-3.4c-0.4-1.1-1.1-2-1.9-2.8c-0.8-0.8-1.8-1.5-2.8-1.9c-1.1-0.4-2.2-0.7-3.3-0.7
		"/>
	<path class="st2" d="M88.1,493.8c0-15.4,0-30.8,0-46.2"/>
	<path class="st2" d="M79.4,501.9c2.2,0,4.3-0.8,5.9-2.3c1.6-1.5,2.6-3.6,2.8-5.8"/>
	<line class="st2" x1="61.9" y1="501.9" x2="79.4" y2="501.9"/>
	<path class="st2" d="M9.4,493.8c0.2,2.2,1.2,4.3,2.8,5.8c1.6,1.5,3.7,2.3,5.9,2.3"/>
	<path class="st2" d="M9.4,447.6c0,15.4,0,30.8,0,46.2"/>
	<path class="st2" d="M18.1,438.9c-1.1,0-2.3,0.2-3.3,0.7c-1.1,0.4-2,1.1-2.8,1.9c-0.8,0.8-1.5,1.8-1.9,2.8
		c-0.4,1.1-0.7,2.2-0.7,3.4"/>
	<line class="st2" x1="35.6" y1="438.9" x2="18.1" y2="438.9"/>
	<path class="st2" d="M44.4,447.6c0-1.1-0.2-2.3-0.7-3.4c-0.4-1.1-1.1-2-1.9-2.8c-0.8-0.8-1.8-1.5-2.8-1.9c-1.1-0.4-2.2-0.7-3.3-0.7
		"/>
	<path class="st2" d="M44.4,493.8c0-15.4,0-30.8,0-46.2"/>
	<path class="st2" d="M35.6,501.9c2.2,0,4.3-0.8,5.9-2.3c1.6-1.5,2.6-3.6,2.8-5.8"/>
	<line class="st2" x1="18.1" y1="501.9" x2="35.6" y2="501.9"/>
	<path class="st2" d="M315.6,598.6c0.2,2.2,1.2,4.3,2.8,5.8c1.6,1.5,3.7,2.3,5.9,2.3"/>
	<path class="st2" d="M315.6,552.5c0,15.4,0,30.8,0,46.2"/>
	<path class="st2" d="M324.4,543.7c-1.1,0-2.3,0.2-3.3,0.7c-1.1,0.4-2,1.1-2.8,1.9c-0.8,0.8-1.5,1.8-1.9,2.8
		c-0.4,1.1-0.7,2.2-0.7,3.4"/>
	<line class="st2" x1="341.9" y1="543.7" x2="324.4" y2="543.7"/>
	<path class="st2" d="M350.6,552.5c0-1.1-0.2-2.3-0.7-3.3c-0.4-1.1-1.1-2-1.9-2.8c-0.8-0.8-1.8-1.5-2.8-1.9
		c-1.1-0.4-2.2-0.7-3.3-0.7"/>
	<path class="st2" d="M350.6,598.6c0-15.4,0-30.8,0-46.2"/>
	<path class="st2" d="M341.9,606.7c2.2,0,4.3-0.8,5.9-2.3c1.6-1.5,2.6-3.6,2.8-5.8"/>
	<line class="st2" x1="324.4" y1="606.7" x2="341.9" y2="606.7"/>
	<path class="st2" d="M271.9,598.8c0.2,2.2,1.2,4.3,2.8,5.8c1.6,1.5,3.7,2.3,5.9,2.3"/>
	<path class="st2" d="M271.9,552.6c0,15.4,0,30.8,0,46.2"/>
	<path class="st2" d="M280.6,543.9c-1.1,0-2.3,0.2-3.3,0.7c-1.1,0.4-2,1.1-2.8,1.9c-0.8,0.8-1.5,1.8-1.9,2.8s-0.7,2.2-0.7,3.4"/>
	<line class="st2" x1="298.1" y1="543.9" x2="280.6" y2="543.9"/>
	<path class="st2" d="M306.9,552.6c0-1.1-0.2-2.3-0.7-3.4s-1.1-2-1.9-2.8c-0.8-0.8-1.8-1.5-2.8-1.9c-1.1-0.4-2.2-0.7-3.3-0.7"/>
	<path class="st2" d="M306.9,598.8c0-15.4,0-30.8,0-46.2"/>
	<path class="st2" d="M298.1,606.9c2.2,0,4.3-0.8,5.9-2.3c1.6-1.5,2.6-3.6,2.8-5.8"/>
	<line class="st2" x1="280.6" y1="606.9" x2="298.1" y2="606.9"/>
	<path class="st2" d="M228.1,598.8c0.2,2.2,1.2,4.3,2.8,5.8c1.6,1.5,3.7,2.3,5.9,2.3"/>
	<path class="st2" d="M228.1,552.6c0,15.4,0,30.8,0,46.2"/>
	<path class="st2" d="M236.9,543.9c-1.1,0-2.3,0.2-3.3,0.7c-1.1,0.4-2,1.1-2.8,1.9c-0.8,0.8-1.5,1.8-1.9,2.8s-0.7,2.2-0.7,3.4"/>
	<line class="st2" x1="254.4" y1="543.9" x2="236.9" y2="543.9"/>
	<path class="st2" d="M263.1,552.6c0-1.1-0.2-2.3-0.7-3.4s-1.1-2-1.9-2.8c-0.8-0.8-1.8-1.5-2.8-1.9c-1.1-0.4-2.2-0.7-3.3-0.7"/>
	<path class="st2" d="M263.1,598.8c0-15.4,0-30.8,0-46.2"/>
	<path class="st2" d="M254.4,606.9c2.2,0,4.3-0.8,5.9-2.3c1.6-1.5,2.6-3.6,2.8-5.8"/>
	<line class="st2" x1="236.9" y1="606.9" x2="254.4" y2="606.9"/>
	<path class="st2" d="M184.4,598.8c0.2,2.2,1.2,4.3,2.8,5.8c1.6,1.5,3.7,2.3,5.9,2.3"/>
	<path class="st2" d="M184.4,552.6c0,15.4,0,30.8,0,46.2"/>
	<path class="st2" d="M193.1,543.9c-1.1,0-2.3,0.2-3.3,0.7c-1.1,0.4-2,1.1-2.8,1.9c-0.8,0.8-1.5,1.8-1.9,2.8
		c-0.4,1.1-0.7,2.2-0.7,3.4"/>
	<line class="st2" x1="210.6" y1="543.9" x2="193.1" y2="543.9"/>
	<path class="st2" d="M219.4,552.6c0-1.1-0.2-2.3-0.7-3.4c-0.4-1.1-1.1-2-1.9-2.8c-0.8-0.8-1.8-1.5-2.8-1.9
		c-1.1-0.4-2.2-0.7-3.3-0.7"/>
	<path class="st2" d="M219.4,598.8c0-15.4,0-30.8,0-46.2"/>
	<path class="st2" d="M210.6,606.9c2.2,0,4.3-0.8,5.9-2.3c1.6-1.5,2.6-3.6,2.8-5.8"/>
	<line class="st2" x1="193.1" y1="606.9" x2="210.6" y2="606.9"/>
	<path class="st2" d="M140.6,598.8c0.2,2.2,1.2,4.3,2.8,5.8c1.6,1.5,3.7,2.3,5.9,2.3"/>
	<path class="st2" d="M140.6,552.6c0,15.4,0,30.8,0,46.2"/>
	<path class="st2" d="M149.4,543.9c-1.1,0-2.3,0.2-3.3,0.7c-1.1,0.4-2,1.1-2.8,1.9c-0.8,0.8-1.5,1.8-1.9,2.8
		c-0.4,1.1-0.7,2.2-0.7,3.4"/>
	<line class="st2" x1="166.9" y1="543.9" x2="149.4" y2="543.9"/>
	<path class="st2" d="M175.6,552.6c0-1.1-0.2-2.3-0.7-3.4c-0.4-1.1-1.1-2-1.9-2.8c-0.8-0.8-1.8-1.5-2.8-1.9
		c-1.1-0.4-2.2-0.7-3.3-0.7"/>
	<path class="st2" d="M175.6,598.8c0-15.4,0-30.8,0-46.2"/>
	<path class="st2" d="M166.9,606.9c2.2,0,4.3-0.8,5.9-2.3c1.6-1.5,2.6-3.6,2.8-5.8"/>
	<line class="st2" x1="149.4" y1="606.9" x2="166.9" y2="606.9"/>
	<path class="st2" d="M96.9,598.8c0.2,2.2,1.2,4.3,2.8,5.8c1.6,1.5,3.7,2.3,5.9,2.3"/>
	<path class="st2" d="M96.9,552.6c0,15.4,0,30.8,0,46.2"/>
	<path class="st2" d="M105.6,543.9c-1.1,0-2.3,0.2-3.3,0.7c-1.1,0.4-2,1.1-2.8,1.9c-0.8,0.8-1.5,1.8-1.9,2.8
		c-0.4,1.1-0.7,2.2-0.7,3.4"/>
	<line class="st2" x1="123.1" y1="543.9" x2="105.6" y2="543.9"/>
	<path class="st2" d="M131.9,552.6c0-1.1-0.2-2.3-0.7-3.4s-1.1-2-1.9-2.8c-0.8-0.8-1.8-1.5-2.8-1.9c-1.1-0.4-2.2-0.7-3.3-0.7"/>
	<path class="st2" d="M131.9,598.8c0-15.4,0-30.8,0-46.2"/>
	<path class="st2" d="M123.1,606.9c2.2,0,4.3-0.8,5.9-2.3c1.6-1.5,2.6-3.6,2.8-5.8"/>
	<line class="st2" x1="105.6" y1="606.9" x2="123.1" y2="606.9"/>
	<path class="st2" d="M53.1,598.8c0.2,2.2,1.2,4.3,2.8,5.8c1.6,1.5,3.7,2.3,5.9,2.3"/>
	<path class="st2" d="M53.1,552.6c0,15.4,0,30.8,0,46.2"/>
	<path class="st2" d="M61.9,543.9c-1.1,0-2.3,0.2-3.3,0.7c-1.1,0.4-2,1.1-2.8,1.9c-0.8,0.8-1.5,1.8-1.9,2.8s-0.7,2.2-0.7,3.4"/>
	<line class="st2" x1="79.4" y1="543.9" x2="61.9" y2="543.9"/>
	<path class="st2" d="M88.1,552.6c0-1.1-0.2-2.3-0.7-3.4c-0.4-1.1-1.1-2-1.9-2.8c-0.8-0.8-1.8-1.5-2.8-1.9c-1.1-0.4-2.2-0.7-3.3-0.7
		"/>
	<path class="st2" d="M88.1,598.8c0-15.4,0-30.8,0-46.2"/>
	<path class="st2" d="M79.4,606.9c2.2,0,4.3-0.8,5.9-2.3c1.6-1.5,2.6-3.6,2.8-5.8"/>
	<line class="st2" x1="61.9" y1="606.9" x2="79.4" y2="606.9"/>
	<path class="st2" d="M9.4,598.8c0.2,2.2,1.2,4.3,2.8,5.8c1.6,1.5,3.7,2.3,5.9,2.3"/>
	<path class="st2" d="M9.4,552.6c0,15.4,0,30.8,0,46.2"/>
	<path class="st2" d="M18.1,543.9c-1.1,0-2.3,0.2-3.3,0.7c-1.1,0.4-2,1.1-2.8,1.9c-0.8,0.8-1.5,1.8-1.9,2.8
		c-0.4,1.1-0.7,2.2-0.7,3.4"/>
	<line class="st2" x1="35.6" y1="543.9" x2="18.1" y2="543.9"/>
	<path class="st2" d="M44.4,552.6c0-1.1-0.2-2.3-0.7-3.4s-1.1-2-1.9-2.8c-0.8-0.8-1.8-1.5-2.8-1.9c-1.1-0.4-2.2-0.7-3.3-0.7"/>
	<path class="st2" d="M44.4,598.8c0-15.4,0-30.8,0-46.2"/>
	<path class="st2" d="M35.6,606.9c2.2,0,4.3-0.8,5.9-2.3c1.6-1.5,2.6-3.6,2.8-5.8"/>
	<line class="st2" x1="18.1" y1="606.9" x2="35.6" y2="606.9"/>
	<line class="st2" x1="92.5" y1="380.4" x2="92.5" y2="639.5"/>
	<line class="st2" x1="136.2" y1="380.4" x2="136.2" y2="639.5"/>
	<line class="st2" x1="180" y1="380.4" x2="180" y2="639.5"/>
	<line class="st2" x1="223.8" y1="380.4" x2="223.8" y2="639.5"/>
	<line class="st2" x1="267.5" y1="380.4" x2="267.5" y2="639.5"/>
	<line class="st2" x1="311.2" y1="380.4" x2="311.2" y2="639.5"/>
	<line class="st2" x1="48.8" y1="380.4" x2="48.8" y2="639.5"/>
</g>
</svg>
