<?xml version="1.0" encoding="utf-8"?>
<!-- Generator: Adobe Illustrator 26.5.1, SVG Export Plug-In . SVG Version: 6.00 Build 0)  -->
<svg version="1.1" xmlns="http://www.w3.org/2000/svg" xmlns:xlink="http://www.w3.org/1999/xlink" x="0px" y="0px"
	 viewBox="0 0 360 640" style="enable-background:new 0 0 360 640;" xml:space="preserve">
<style type="text/css">
	.st0{fill:#0000FF;}
	.st1{fill:#FFFFFF;}
	.st2{fill:none;stroke:#FFFFFF;stroke-width:0.5;}
</style>
<g id="background">
	<rect x="-0.5" y="-0.5" class="st0" width="360" height="640"/>
</g>
<g id="Layer_3">
	<path class="st1" d="M274.3,96.3c-5.1,2.4-7.7,4.1-11,9.4c-4.8,7.8-8.9,8.7-13.2,9.6c-3.8,0.8-7.8,1.7-12.8,9.1
		c-5.7,8.3-12.5,8.8-20.1,9.4c-6.7,0.5-14,1.1-21.3,8c-4.3,4-7.6,9.8-9.3,15.7c-2.3,8.1-1,16,1.8,23.8c0.7,1.9-2.2,2.9-2.9,1
		c-3-8.4-4.2-16.9-1.9-25.6c0.9-3.2,0.5-3.7-2.4-2.1c-6.8,3.7-14.5,5.4-22.2,6.1c-10.2,1-18,2.4-23.3,6.9c-5.3,4.4-8.3,12-9,25.3
		c-0.3,5.3-2.8,10.1-5.5,15.2c-6.4,12.1-10.3,24.3-2.6,37c7.8,12.9,26.3,20.8,37.9,35.9c9,11.8,23.2,12,36.6,9.9
		c15.7-2.5,21.4,1.4,35.4,2.5c14.7,1.2,21.2-5,28.2-11.8c5.3-5.1,11-10.6,20.6-13.7c20.9-6.8,23.6-21.1,26.5-36.9
		c0.8-4.3,1.6-8.6,2.8-13c1.4-5.1,2.2-5.8-1.4-0.8c-4.3,5.9-8.1,11.8-10.2,18.4c-4.9,15.2-8,20.5-24.5,26.1
		c-0.8,0.3-1.7-0.2-1.9-0.9c-0.3-0.8,0.2-1.7,0.9-1.9c15.3-5.3,18-10.1,22.6-24.2c2.8-8.7,8.2-16,13.8-23.6c5.7-7.7,11-15.1,14.5-24
		c6.6-16.6,8.4-33.5,4.1-50.9c-1.4-5.8-3.7-11.2-7-16.1c-2.8-4.2-1.8-5.5-2.7,0.6c-0.7,4.7-1.8,9.3-3.4,13.8
		c-6.9,20.3-23.1,36.1-44.4,40.5c-2,0.4-2.6-2.6-0.6-3c20.2-4.1,35.6-19.2,42.1-38.5c2.2-6.4,3.5-12.9,4-19.6
		c0.5-6.9,0.2-15.8-1.4-22.7c-3.2-13.6-16.4-17.7-25-7.3C281.9,89.6,281.7,92.7,274.3,96.3L274.3,96.3z M196.1,91.6
		c-1.2,0.7-2.2-1.2-1-1.9c8.9-4.8,14.2-5.2,19-5.6c4.3-0.3,8.1-0.6,13.9-4.3c7.3-4.7,17.4-7.4,19.3,3.8c0.7,4.3,0.1,10.1-2.1,17.2
		c-0.4,1.3-2.4,0.7-2-0.6c2.1-6.7,2.7-12.3,2-16.2c-1.6-9.5-10.2-6.1-16-2.3c-6.2,4-10.3,4.3-14.9,4.6
		C209.7,86.6,204.6,87,196.1,91.6L196.1,91.6z M68.6,185c0.5,0.6-0.4,1.4-0.9,0.8c-5.5-6.8-9.6-15.1-12-23.5c-0.2-0.8,1-1.1,1.2-0.3
		C59.2,170.2,63.2,178.4,68.6,185L68.6,185z M119.9,142.7c0.1,0.6-0.8,0.7-0.9,0.2c-1.5-8.8-1.1-23.8,9.8-26.7
		c4.8-1.3,9.7,1.1,10.6,6.3c1.7,9.8,9.5,6.9,11.5-2.1c1.2-5.7,3.5-8.3,6.4-9.2c7.7-2.4,13.1,5.6,21.8-1.3c2.8-2.2,6-4.7,14.8-4
		c0.6,0,0.5,1-0.1,0.9c-8.4-0.7-11.4,1.7-14.1,3.8c-9.3,7.2-14.7-1-22.1,1.4c-2.6,0.8-4.6,3.2-5.7,8.5c-2.2,10.2-11.5,12.7-13.3,2.1
		c-0.8-4.6-5.2-6.7-9.5-5.6C118.7,119.8,118.5,134.4,119.9,142.7L119.9,142.7z M73.1,142.8c0,0.6-0.9,0.6-0.9,0
		c0-5.6,2-11.7,6.4-15.5c0.5-0.4,1.1,0.3,0.6,0.7C75,131.6,73.1,137.4,73.1,142.8L73.1,142.8z M108.1,200.9c1.3,0.4,0.7,2.5-0.6,2
		c-8.2-2.6-16-6.4-22.9-11.6c-14.4-10.9-23.5-29.8-22.2-47.9c1.2-16.6,10.6-29.2,26-35.3c23.7-9.5,52.4-6.4,77.1-13
		c1.4-0.4,1.9,1.7,0.5,2.1c-24.6,6.5-53.5,3.6-76.9,12.9c-14.6,5.8-23.5,17.7-24.7,33.5c-1.2,17.4,7.5,35.6,21.3,46.1
		C92.5,194.6,100.1,198.4,108.1,200.9L108.1,200.9z M270.7,85.2c0.6,1.9-2.3,2.8-2.9,0.9c-1.8-5.6-1.6-9.8-1.3-13.8
		c0.5-8.2-1-19.1-10.3-21.8c-9.2-2.6-21.3,5.2-29.2,9.6c-8.8,4.9-12.2,7.3-22.9,7.2c-5.5,0-11,0-19.1,6.1
		c-16.2,12.2-27.7-7.7-48.9,5.3c-11.5,7.1-24.1,7-36.9,4c-22.5-5.3-31.9-2.6-41,20.1c-4.1,10.3-16.9,16-22.2,27.8
		c-6.7,14.7-1.2,27,8,39c6.3,8.2,10.8,16.6,14.1,26.3c4.8,14.1,18.1,18.9,31.5,21.2c5.9,1,10.2,1.9,15.3,5.3
		c1.7,1.1-0.1,3.6-1.7,2.5c-4.6-3.1-8.7-3.9-14.1-4.8c-14.6-2.5-28.7-7.9-33.9-23.2c-3.2-9.4-7.5-17.6-13.6-25.5
		c-9.9-12.9-15.5-26.3-8.3-42.1c5.4-12,18.4-18.2,22.2-27.6c9.6-24.1,20.4-27.6,44.5-22c12,2.8,23.8,3.1,34.6-3.6
		c22.2-13.6,34.2,5.7,48.6-5.2c8.9-6.7,14.9-6.7,20.9-6.7c10.1,0,13.2-2.3,21.5-6.9c8.8-4.9,21.1-12.8,31.5-9.8
		c10.9,3.1,13.1,15,12.5,24.9C269.3,76.3,269,80.1,270.7,85.2L270.7,85.2z M193.7,139.7c8.1-7.7,16-8.3,23.3-8.9
		c6.8-0.5,13-1,17.8-8.1c5.7-8.4,10.3-9.4,14.7-10.3c3.7-0.8,7.1-1.6,11.2-8.2c3.6-5.9,6.5-7.9,12.3-10.6c6.2-2.9,6.8-5.7,10.3-10.4
		c9.8-13.1,26.9-9.2,30.9,7.6c0.9,3.7,1.2,7.6,1.6,11.4c0.5,5.8,1.2,11.5,4.4,16.4c3.5,5.2,5.9,11,7.4,17.1
		c4.4,17.9,2.7,35.2-4.1,52.3c-3.6,9.2-9.4,17.5-12.5,26.6c-1.9,5.7-3,11.5-4,17.1c-3.1,16.7-5.9,31.9-28.6,39.3
		c-8.9,2.9-14.3,8.1-19.4,13c-7.5,7.3-14.5,13.9-30.6,12.6c-13.6-1.1-19.6-5-34.7-2.6c-14.6,2.3-29.7,1.7-39.5-11.1
		c-11.7-15.3-29.9-22.5-38.1-36.2c-8.3-13.8-4.4-26.9,2.5-40c2.6-4.9,4.9-9.4,5.2-14c0.7-14.3,4.1-22.5,10.1-27.5
		c5.9-5,14.2-6.5,25-7.6c7.3-0.7,13.5-2.2,18.7-4.6C186,149.2,187.7,145.4,193.7,139.7L193.7,139.7z M306.5,103.4
		c-0.1,1-1.6,0.9-1.5-0.1c0.2-3.2-0.2-7.2-1.5-10.2c-0.4-0.9,1-1.5,1.4-0.6C306.2,95.8,306.7,100,306.5,103.4L306.5,103.4z
		 M198.1,152.7c-0.2,0.6-1.1,0.2-0.9-0.3c1.2-3.4,3.6-6.5,6.7-8.3c0.5-0.3,1,0.5,0.5,0.8C201.5,146.6,199.3,149.5,198.1,152.7
		L198.1,152.7z M138.1,179.6c-0.3,0.9-1.8,0.5-1.4-0.5c1.2-3.6,3.7-6.6,7.4-7.8c0.4-0.1,0.8,0.1,1,0.5c0.1,0.4-0.1,0.8-0.5,1
		C141.3,173.8,139.2,176.5,138.1,179.6L138.1,179.6z M151.8,245.6c-0.3-0.5,0.5-1,0.8-0.4c4.3,7.9,15.5,15.3,24.2,17.5
		c0.6,0.1,0.4,1-0.2,0.9C167.6,261.3,156.2,253.7,151.8,245.6L151.8,245.6z M129.7,216c0-1.4,2.1-1.5,2.1-0.1
		c1.1,45.6,52.9,71.1,93.6,60.7c1.4-0.3,1.9,1.7,0.5,2.1C183.9,289.4,130.8,262.9,129.7,216L129.7,216z M282,224.5
		c0.9-0.8,2.1,0.5,1.3,1.3c-17.5,16.5-48,21-71,17.8c-1.2-0.2-0.9-2,0.3-1.8C235,245,264.9,240.7,282,224.5L282,224.5z M221.9,169.4
		c-0.8-0.6,0.2-1.8,0.9-1.2c6.3,5,18.3,7.6,26.2,6.4c1-0.2,1.2,1.4,0.2,1.5C240.9,177.4,228.5,174.6,221.9,169.4L221.9,169.4z
		 M314.2,138c-0.1-1.4,2-1.5,2.1-0.1c2.8,47.4-33.5,88.8-81.6,88.8c-1.4,0-1.4-2.1,0-2.1C281.6,224.5,317,184.2,314.2,138L314.2,138
		z M250.1,161.3c-1-0.1-0.8-1.6,0.2-1.5c12.3,1.3,32-4.3,39.2-15c0.6-0.8,1.8,0,1.3,0.8C283.2,156.9,262.9,162.7,250.1,161.3
		L250.1,161.3z"/>
	<g>
		<path class="st1" d="M102.6,63c0,0,0.1-0.1,0.1-0.3c0.1-0.3-0.1-0.7-0.5-0.9c-0.4-0.3-0.9-0.5-1.6-0.7c-0.8-0.2-1.5-0.2-1.9-0.1
			c-0.4,0.1-0.7,0.4-0.7,0.7c0,0.2,0,0.3,0.1,0.4c0.1,0.1,0.2,0.2,0.4,0.2l6.2,2.3c1.2,0.5,2,1,2.6,1.7c0.5,0.7,0.7,1.4,0.5,2.3
			c-0.2,1.1-0.8,2-1.6,2.8c-0.9,0.8-2.1,1.3-3.7,1.5c-1.6,0.2-3.6,0-6-0.5c-1.4-0.3-2.7-0.6-3.7-1c-1-0.4-1.8-0.8-2.3-1.2
			c-1.1-0.9-1.5-2-1.3-3.2c0.1-0.3,0.2-0.6,0.3-0.9l6.7,1.4L96,67.8c-0.1,0.4,0,0.6,0.4,0.9c0.3,0.2,0.9,0.4,1.6,0.6
			c0.8,0.2,1.5,0.2,1.9,0.1c0.4-0.1,0.7-0.4,0.8-0.8s-0.1-0.8-0.7-1l-5.7-2.2c-1.1-0.4-1.8-0.9-2.3-1.5c-0.4-0.6-0.5-1.3-0.4-2.2
			c0.2-0.9,0.6-1.7,1.4-2.5c0.7-0.8,1.8-1.3,3.2-1.5c1.4-0.2,3.3-0.1,5.7,0.4c1.3,0.3,2.5,0.6,3.5,1c1,0.4,1.8,0.8,2.3,1.2
			c1.2,0.9,1.7,2.1,1.4,3.4c0,0.1-0.1,0.4-0.2,0.6L102.6,63z"/>
		<path class="st1" d="M122.1,74.1l0.6-5.8l-6.3,0.7l-0.6,5.8l-5.6,0.6l1.5-14.5l5.6-0.6l-0.5,5.1l6.3-0.7l0.5-5.1l5.6-0.6
			l-1.5,14.5L122.1,74.1z"/>
		<path class="st1" d="M142.4,56.2l-0.1-0.2c-0.3-0.7-0.7-1.2-1.2-1.4c-0.6-0.2-1.2-0.2-1.9,0.1c-1.1,0.4-1.8,1-2.3,1.8
			c-0.5,0.8-0.7,1.7-0.6,2.7c0.1,1,0.2,1.8,0.4,2.3c0.3,0.8,0.8,1.4,1.4,1.6c0.6,0.2,1.3,0.2,2.2-0.1c0.9-0.3,1.5-0.8,1.9-1.4
			c0.4-0.6,0.7-1.3,0.7-2.3l5.9-2.3c0,2.3-0.6,4.2-1.8,5.7c-1.2,1.5-3.2,2.7-6,3.8c-1.7,0.6-3,1-4,1.1c-1,0.1-1.9,0.1-2.6-0.1
			c-0.7-0.2-1.3-0.5-1.9-1.1c-0.5-0.5-1-1.2-1.3-2.1c-0.2-0.5-0.4-1.3-0.5-2.1c-0.1-0.9-0.2-1.7-0.1-2.6s0.2-1.6,0.5-2.3
			c0.3-0.7,0.6-1.3,1-1.9c0.4-0.6,0.9-1.1,1.5-1.6c0.6-0.5,1.3-1,2.1-1.4c0.8-0.4,1.8-0.9,2.8-1.2c1.7-0.7,3.2-1,4.4-1.1
			c1.2-0.1,2.2,0.1,3.1,0.7c0.9,0.5,1.6,1.4,2,2.7c0,0.1,0.1,0.3,0.2,0.6L142.4,56.2z"/>
		<path class="st1" d="M161.5,65.5l-1.7-5.9l-2.5,1.2l-1.5,3.6l-5.5-1.1l5.6-13.5l5.5,1.1l-2,4.8l7.1-3.8l7.3,1.4l-8.4,4l3.3,9.6
			L161.5,65.5z"/>
		<path class="st1" d="M177.2,68l-5.6-13.5l9.2-6.3c0.8-0.6,1.6-1,2.4-1.3c0.7-0.3,1.4-0.4,2-0.4c1.3,0.1,2.4,0.8,3.3,2.1
			c0.4,0.6,0.8,1.3,1.1,2.1c0.3,0.7,0.6,1.5,0.8,2.4c0.7,3.4-0.5,6.2-3.8,8.5L177.2,68z M183.2,59.6c1.2-0.8,1.9-1.8,2-3
			c0.1-1.2-0.2-2.3-1-3.3c-0.9-1.3-2.2-1.4-3.8-0.3l-2.7,1.9l2.8,6.7L183.2,59.6z"/>
		<path class="st1" d="M201.5,58.4c0.1-2.2,0.7-4,1.8-5.4c1.1-1.4,2.8-2.6,5.1-3.5l4-1.5c0.4-0.2,0.8-0.4,1-0.6
			c0.2-0.3,0.3-0.6,0.2-0.9c0-0.3-0.3-0.5-0.6-0.6s-0.9-0.1-1.6,0c-1.1,0.2-1.9,0.5-2.4,0.8c-0.5,0.4-0.7,0.9-0.9,1.7l-5.9,1
			c0.3-2,1.1-3.5,2.5-4.6c1.4-1.1,3.5-1.9,6.1-2.3c1.4-0.2,2.6-0.3,3.6-0.4s1.9,0.1,2.5,0.3c1.4,0.4,2.1,1.2,2.3,2.5
			c0.2,1.2-0.1,2.3-0.9,3.3c-0.8,1-2.2,1.9-4.3,2.7l-4.3,1.6c-0.8,0.3-1.3,0.5-1.6,0.7c-0.3,0.2-0.6,0.5-0.8,0.8l11.5-1.9l-0.1,3.6
			L201.5,58.4z"/>
		<path class="st1" d="M222.6,52.1c-0.6-2.1-0.7-4-0.1-5.7c0.6-1.7,1.8-3.4,3.7-5l3.2-2.8c0.4-0.3,0.6-0.6,0.7-0.9
			c0.1-0.3,0.1-0.6-0.1-0.9c-0.1-0.3-0.4-0.4-0.8-0.3c-0.4,0-0.9,0.2-1.5,0.5c-1,0.6-1.6,1.1-2,1.6s-0.4,1.1-0.3,1.9l-5.2,2.9
			c-0.4-1.9-0.1-3.7,0.8-5.2c1-1.5,2.6-2.9,5-4.3c1.2-0.7,2.3-1.2,3.3-1.5c1-0.3,1.8-0.5,2.5-0.6c1.4-0.1,2.4,0.4,3,1.5
			c0.6,1.1,0.7,2.2,0.3,3.4c-0.4,1.2-1.4,2.6-3.2,4l-3.6,2.9c-0.7,0.5-1.1,0.9-1.3,1.2c-0.2,0.3-0.4,0.6-0.5,1l10.2-5.6l1.1,3.4
			L222.6,52.1z"/>
	</g>
</g>
<g id="Layer_4">
	<g>
		<path class="st1" d="M68.7,324.7h-4.6v1.8h4.2v1.5h-4.2v2.2h4.8v1.6h-6.5v-8.6h6.3V324.7z"/>
		<path class="st1" d="M70.3,323.2h1.9l3.4,6v-6h1.7v8.6h-1.8l-3.5-6.1v6.1h-1.7V323.2z"/>
		<path class="st1" d="M84.1,323.4c0.6,0.2,1.1,0.6,1.5,1.1c0.3,0.4,0.5,0.9,0.6,1.4c0.1,0.5,0.2,1,0.2,1.4c0,1.1-0.2,2.1-0.7,2.9
			c-0.6,1.1-1.6,1.6-2.9,1.6H79v-8.6h3.7C83.3,323.2,83.7,323.2,84.1,323.4z M80.8,324.7v5.6h1.7c0.9,0,1.4-0.4,1.8-1.3
			c0.2-0.5,0.3-1,0.3-1.6c0-0.9-0.1-1.6-0.4-2c-0.3-0.5-0.8-0.7-1.6-0.7H80.8z"/>
		<path class="st1" d="M87,327.7h3.3v1.6H87V327.7z"/>
		<path class="st1" d="M98.3,331c-0.7,0.7-1.6,1-2.8,1s-2.2-0.3-2.8-1c-0.9-0.8-1.3-2-1.3-3.6c0-1.6,0.4-2.8,1.3-3.6
			c0.7-0.7,1.6-1,2.8-1s2.2,0.3,2.8,1c0.9,0.8,1.3,2,1.3,3.6C99.6,329,99.2,330.2,98.3,331z M97.2,329.7c0.4-0.5,0.6-1.3,0.6-2.2
			c0-1-0.2-1.7-0.6-2.2s-1-0.8-1.7-0.8s-1.3,0.3-1.7,0.8s-0.6,1.3-0.6,2.2s0.2,1.7,0.6,2.2s1,0.8,1.7,0.8S96.8,330.3,97.2,329.7z"/>
		<path class="st1" d="M101,323.2h6.2v1.5h-4.4v2h3.8v1.5h-3.8v3.6H101V323.2z"/>
		<path class="st1" d="M107.7,327.7h3.3v1.6h-3.3V327.7z"/>
		<path class="st1" d="M117.3,323.2h2l-2.9,5.4v3.2h-1.8v-3.2l-3-5.4h2.1l1.8,3.8L117.3,323.2z"/>
		<path class="st1" d="M126.7,324.7h-4.6v1.8h4.2v1.5h-4.2v2.2h4.8v1.6h-6.5v-8.6h6.3V324.7z"/>
		<path class="st1" d="M130.8,323.2h2l3.1,8.6h-2l-0.6-1.8h-3.2l-0.6,1.8h-1.9L130.8,323.2z M130.7,328.6h2.2l-1.1-3.4L130.7,328.6z
			"/>
		<path class="st1" d="M142.6,323.4c0.3,0.1,0.6,0.3,0.8,0.6c0.2,0.2,0.3,0.5,0.4,0.7c0.1,0.3,0.2,0.6,0.2,0.9
			c0,0.4-0.1,0.8-0.3,1.2s-0.5,0.7-1,0.8c0.4,0.2,0.7,0.4,0.8,0.7s0.2,0.7,0.2,1.4v0.6c0,0.4,0,0.7,0,0.8c0,0.2,0.2,0.4,0.3,0.5v0.2
			h-2c-0.1-0.2-0.1-0.3-0.1-0.5c0-0.2-0.1-0.5-0.1-0.7l0-0.8c0-0.6-0.1-0.9-0.3-1.1c-0.2-0.2-0.5-0.3-1-0.3h-1.8v3.4h-1.8v-8.6h4.1
			C141.8,323.2,142.2,323.3,142.6,323.4z M138.8,324.7v2.3h1.9c0.4,0,0.7,0,0.9-0.1c0.3-0.2,0.5-0.5,0.5-1c0-0.5-0.2-0.9-0.5-1.1
			c-0.2-0.1-0.5-0.2-0.8-0.2H138.8z"/>
		<path class="st1" d="M149.8,324.1c0.7-0.7,1.6-1.1,2.7-1.1c1.4,0,2.5,0.5,3.2,1.4c0.4,0.5,0.6,1.1,0.6,1.6h-1.8
			c-0.1-0.4-0.3-0.7-0.4-0.9c-0.3-0.4-0.8-0.6-1.4-0.6c-0.6,0-1.2,0.3-1.5,0.8s-0.6,1.3-0.6,2.2s0.2,1.7,0.6,2.2s0.9,0.7,1.5,0.7
			c0.6,0,1.1-0.2,1.4-0.6c0.2-0.2,0.3-0.6,0.4-1h1.8c-0.2,0.9-0.5,1.7-1.2,2.3s-1.5,0.9-2.4,0.9c-1.2,0-2.2-0.4-2.9-1.2
			c-0.7-0.8-1.1-1.9-1.1-3.3C148.6,326.1,149,324.9,149.8,324.1z"/>
		<path class="st1" d="M157.7,331.8v-8.6h1.8v3.3h3.4v-3.3h1.8v8.6h-1.8V328h-3.4v3.9H157.7z"/>
		<path class="st1" d="M168.8,323.2h2l3.1,8.6h-2l-0.6-1.8h-3.2l-0.6,1.8h-1.9L168.8,323.2z M168.7,328.6h2.2l-1.1-3.4L168.7,328.6z
			"/>
		<path class="st1" d="M180.7,323.2h2.6v8.6h-1.7V326c0-0.2,0-0.4,0-0.7s0-0.5,0-0.7l-1.6,7.2h-1.8l-1.6-7.2c0,0.2,0,0.4,0,0.7
			s0,0.5,0,0.7v5.8H175v-8.6h2.6l1.6,6.8L180.7,323.2z"/>
		<path class="st1" d="M190.8,328.1c-0.5,0.4-1.2,0.6-2.2,0.6h-1.8v3.1H185v-8.6h3.7c0.9,0,1.5,0.2,2,0.7c0.5,0.4,0.8,1.1,0.8,2.1
			C191.6,326.9,191.3,327.7,190.8,328.1z M189.4,325c-0.2-0.2-0.5-0.3-1-0.3h-1.6v2.5h1.6c0.4,0,0.7-0.1,1-0.3s0.3-0.5,0.3-1
			S189.7,325.2,189.4,325z"/>
		<path class="st1" d="M194.6,323.2h2l3.1,8.6h-2l-0.6-1.8H194l-0.6,1.8h-1.9L194.6,323.2z M194.5,328.6h2.2l-1.1-3.4L194.5,328.6z"
			/>
		<path class="st1" d="M206.6,325.9c-0.1-0.6-0.5-1-1-1.2c-0.3-0.1-0.6-0.2-1-0.2c-0.7,0-1.3,0.3-1.7,0.8s-0.7,1.3-0.7,2.4
			c0,1.1,0.2,1.8,0.7,2.3s1,0.7,1.7,0.7c0.6,0,1.1-0.2,1.5-0.5s0.6-0.8,0.7-1.4h-2v-1.4h3.6v4.6h-1.2l-0.2-1.1
			c-0.3,0.4-0.7,0.7-0.9,0.9c-0.5,0.3-1.1,0.4-1.8,0.4c-1.1,0-2.1-0.4-2.8-1.2c-0.8-0.8-1.1-1.9-1.1-3.3c0-1.4,0.4-2.5,1.2-3.4
			c0.8-0.8,1.8-1.3,3.1-1.3c1.1,0,2,0.3,2.6,0.8s1,1.3,1.1,2.1H206.6z"/>
		<path class="st1" d="M210.1,323.2h1.9l3.4,6v-6h1.7v8.6h-1.8l-3.5-6.1v6.1h-1.7V323.2z"/>
		<path class="st1" d="M225.2,324.7h-4.6v1.8h4.2v1.5h-4.2v2.2h4.8v1.6h-6.5v-8.6h6.3V324.7z"/>
		<path class="st1" d="M230.3,328.2c0.3-0.4,0.7-0.7,1.3-1.1l0.2-0.1c-0.2-0.3-0.4-0.6-0.6-0.9s-0.2-0.6-0.2-0.9
			c0-0.6,0.2-1.1,0.6-1.5c0.4-0.4,1-0.5,1.7-0.5c0.6,0,1.1,0.2,1.5,0.5c0.4,0.4,0.6,0.8,0.6,1.4c0,0.5-0.1,0.9-0.4,1.2
			s-0.6,0.6-1.1,0.9l1.2,1.5c0.1-0.2,0.3-0.4,0.3-0.7s0.1-0.5,0.1-0.8h1.5c0,0.5-0.2,1.1-0.4,1.6c-0.1,0.3-0.3,0.6-0.6,1l1.6,1.9h-2
			l-0.6-0.7c-0.3,0.3-0.6,0.5-0.8,0.6c-0.5,0.2-1,0.3-1.6,0.3c-0.9,0-1.6-0.3-2.1-0.8c-0.5-0.5-0.7-1.1-0.7-1.7
			C229.9,329,230,328.6,230.3,328.2z M231.9,330.3c0.2,0.2,0.5,0.4,0.9,0.4c0.3,0,0.5-0.1,0.8-0.2c0.2-0.1,0.5-0.3,0.6-0.4l-1.6-2
			c-0.4,0.3-0.7,0.5-0.8,0.7c-0.1,0.2-0.2,0.4-0.2,0.7C231.5,329.8,231.7,330,231.9,330.3z M232.6,325.6c0.1,0.1,0.2,0.3,0.5,0.6
			c0.2-0.2,0.4-0.3,0.5-0.4c0.2-0.2,0.3-0.4,0.3-0.7c0-0.2-0.1-0.3-0.2-0.5c-0.1-0.1-0.3-0.2-0.6-0.2c-0.2,0-0.3,0-0.4,0.1
			c-0.2,0.1-0.3,0.3-0.3,0.6C232.5,325.3,232.5,325.5,232.6,325.6z"/>
		<path class="st1" d="M248.8,331c-0.7,0.7-1.6,1-2.8,1s-2.2-0.3-2.8-1c-0.9-0.8-1.3-2-1.3-3.6c0-1.6,0.4-2.8,1.3-3.6
			c0.7-0.7,1.6-1,2.8-1s2.2,0.3,2.8,1c0.9,0.8,1.3,2,1.3,3.6C250.1,329,249.7,330.2,248.8,331z M247.7,329.7
			c0.4-0.5,0.6-1.3,0.6-2.2c0-1-0.2-1.7-0.6-2.2s-1-0.8-1.7-0.8s-1.3,0.3-1.7,0.8s-0.6,1.3-0.6,2.2s0.2,1.7,0.6,2.2s1,0.8,1.7,0.8
			S247.2,330.3,247.7,329.7z"/>
		<path class="st1" d="M256.4,323.2h2l-2.9,5.4v3.2h-1.8v-3.2l-3-5.4h2.1l1.8,3.8L256.4,323.2z"/>
		<path class="st1" d="M260.8,329.1c0.1,0.4,0.2,0.7,0.3,0.9c0.3,0.4,0.8,0.5,1.5,0.5c0.4,0,0.8,0,1.1-0.1c0.5-0.2,0.8-0.5,0.8-1
			c0-0.3-0.1-0.5-0.4-0.7c-0.3-0.2-0.7-0.3-1.2-0.4l-0.9-0.2c-0.9-0.2-1.6-0.4-1.9-0.7c-0.6-0.4-0.9-1-0.9-1.9
			c0-0.8,0.3-1.4,0.9-1.9c0.6-0.5,1.4-0.8,2.5-0.8c0.9,0,1.7,0.2,2.4,0.7s1,1.2,1,2.1h-1.7c0-0.5-0.3-0.9-0.7-1.1
			c-0.3-0.1-0.6-0.2-1.1-0.2c-0.5,0-0.9,0.1-1.1,0.3s-0.4,0.4-0.4,0.8c0,0.3,0.1,0.5,0.4,0.7c0.2,0.1,0.6,0.2,1.1,0.4l1.5,0.4
			c0.7,0.2,1.2,0.4,1.5,0.6c0.5,0.4,0.8,1,0.8,1.8c0,0.8-0.3,1.4-0.9,2s-1.5,0.8-2.6,0.8c-1.1,0-2-0.3-2.7-0.8c-0.7-0.5-1-1.2-1-2.1
			H260.8z"/>
		<path class="st1" d="M273.7,323.2v1.5h-2.6v7.1h-1.8v-7.1h-2.6v-1.5H273.7z"/>
		<path class="st1" d="M281.2,324.7h-4.6v1.8h4.2v1.5h-4.2v2.2h4.8v1.6h-6.5v-8.6h6.3V324.7z"/>
		<path class="st1" d="M288.3,323.4c0.3,0.1,0.6,0.3,0.8,0.6c0.2,0.2,0.3,0.5,0.4,0.7s0.2,0.6,0.2,0.9c0,0.4-0.1,0.8-0.3,1.2
			s-0.5,0.7-1,0.8c0.4,0.2,0.7,0.4,0.8,0.7s0.2,0.7,0.2,1.4v0.6c0,0.4,0,0.7,0,0.8c0,0.2,0.2,0.4,0.3,0.5v0.2h-2
			c-0.1-0.2-0.1-0.3-0.1-0.5c0-0.2-0.1-0.5-0.1-0.7l0-0.8c0-0.6-0.1-0.9-0.3-1.1c-0.2-0.2-0.5-0.3-1-0.3h-1.8v3.4h-1.8v-8.6h4.1
			C287.6,323.2,288,323.3,288.3,323.4z M284.6,324.7v2.3h1.9c0.4,0,0.7,0,0.9-0.1c0.3-0.2,0.5-0.5,0.5-1c0-0.5-0.2-0.9-0.5-1.1
			c-0.2-0.1-0.5-0.2-0.8-0.2H284.6z"/>
		<path class="st1" d="M292.8,329.1c0.1,0.4,0.2,0.7,0.3,0.9c0.3,0.4,0.8,0.5,1.5,0.5c0.4,0,0.8,0,1.1-0.1c0.5-0.2,0.8-0.5,0.8-1
			c0-0.3-0.1-0.5-0.4-0.7c-0.3-0.2-0.7-0.3-1.2-0.4l-0.9-0.2c-0.9-0.2-1.6-0.4-1.9-0.7c-0.6-0.4-0.9-1-0.9-1.9
			c0-0.8,0.3-1.4,0.9-1.9c0.6-0.5,1.4-0.8,2.5-0.8c0.9,0,1.7,0.2,2.4,0.7s1,1.2,1,2.1h-1.7c0-0.5-0.3-0.9-0.7-1.1
			c-0.3-0.1-0.6-0.2-1.1-0.2c-0.5,0-0.9,0.1-1.1,0.3s-0.4,0.4-0.4,0.8c0,0.3,0.1,0.5,0.4,0.7c0.2,0.1,0.6,0.2,1.1,0.4l1.5,0.4
			c0.7,0.2,1.2,0.4,1.5,0.6c0.5,0.4,0.8,1,0.8,1.8c0,0.8-0.3,1.4-0.9,2s-1.5,0.8-2.6,0.8c-1.1,0-2-0.3-2.7-0.8c-0.7-0.5-1-1.2-1-2.1
			H292.8z"/>
	</g>
	<g>
		<path class="st1" d="M180.5,366.9h1.1v4.1h2.5v0.9h-3.6V366.9z"/>
		<path class="st1" d="M184.8,368.5v-0.7c0.3,0,0.5,0,0.6-0.1c0.2,0,0.4-0.1,0.5-0.3c0.1-0.1,0.1-0.2,0.2-0.4c0-0.1,0-0.2,0-0.2h0.8
			v5h-1v-3.4H184.8z"/>
		<path class="st1" d="M188.3,368.5v-0.7c0.3,0,0.5,0,0.6-0.1c0.2,0,0.4-0.1,0.5-0.3c0.1-0.1,0.1-0.2,0.2-0.4c0-0.1,0-0.2,0-0.2h0.8
			v5h-1v-3.4H188.3z"/>
		<path class="st1" d="M191.8,369.5h1.9v0.9h-1.9V369.5z"/>
		<path class="st1" d="M194.5,371c0.1-0.3,0.5-0.7,1-1c0.4-0.3,0.7-0.6,0.9-0.7c0.2-0.2,0.3-0.5,0.3-0.7c0-0.2-0.1-0.4-0.2-0.5
			c-0.1-0.1-0.3-0.2-0.5-0.2c-0.3,0-0.5,0.1-0.6,0.3c-0.1,0.1-0.1,0.3-0.1,0.6h-0.9c0-0.4,0.1-0.8,0.2-1c0.3-0.5,0.7-0.7,1.4-0.7
			c0.5,0,0.9,0.1,1.3,0.4c0.3,0.3,0.5,0.7,0.5,1.2c0,0.4-0.1,0.7-0.3,1c-0.1,0.2-0.4,0.4-0.7,0.6l-0.4,0.3c-0.2,0.2-0.4,0.3-0.5,0.4
			c-0.1,0.1-0.2,0.2-0.2,0.3h2.2v0.9h-3.4C194.2,371.6,194.3,371.3,194.5,371z"/>
		<path class="st1" d="M198.4,371c0.1-0.3,0.5-0.7,1-1c0.4-0.3,0.7-0.6,0.9-0.7c0.2-0.2,0.3-0.5,0.3-0.7c0-0.2-0.1-0.4-0.2-0.5
			c-0.1-0.1-0.3-0.2-0.5-0.2c-0.3,0-0.5,0.1-0.6,0.3c-0.1,0.1-0.1,0.3-0.1,0.6h-0.9c0-0.4,0.1-0.8,0.2-1c0.3-0.5,0.7-0.7,1.4-0.7
			c0.5,0,0.9,0.1,1.3,0.4c0.3,0.3,0.5,0.7,0.5,1.2c0,0.4-0.1,0.7-0.3,1c-0.1,0.2-0.4,0.4-0.7,0.6l-0.4,0.3c-0.2,0.2-0.4,0.3-0.5,0.4
			c-0.1,0.1-0.2,0.2-0.2,0.3h2.2v0.9h-3.4C198.1,371.6,198.2,371.3,198.4,371z"/>
		<path class="st1" d="M202.3,368.5v-0.7c0.3,0,0.5,0,0.6-0.1c0.2,0,0.4-0.1,0.5-0.3c0.1-0.1,0.1-0.2,0.2-0.4c0-0.1,0-0.2,0-0.2h0.8
			v5h-1v-3.4H202.3z"/>
		<path class="st1" d="M213.1,370.5c-0.1,0.3-0.2,0.5-0.4,0.7l0.6,0.5l-0.5,0.6l-0.6-0.6c-0.2,0.1-0.3,0.2-0.5,0.2
			c-0.2,0.1-0.5,0.1-0.8,0.1c-0.7,0-1.2-0.2-1.6-0.6c-0.5-0.5-0.8-1.2-0.8-2.1c0-0.9,0.3-1.6,0.8-2.1c0.4-0.4,1-0.6,1.6-0.6
			c0.7,0,1.2,0.2,1.6,0.6c0.5,0.5,0.8,1.1,0.8,2C213.2,369.8,213.2,370.2,213.1,370.5z M211.2,371.2c0.1,0,0.1,0,0.2-0.1l-0.5-0.5
			l0.5-0.6l0.5,0.5c0.1-0.2,0.1-0.3,0.2-0.4c0-0.2,0.1-0.4,0.1-0.6c0-0.6-0.1-1-0.3-1.3c-0.2-0.3-0.6-0.5-1-0.5
			c-0.4,0-0.8,0.1-1,0.4c-0.2,0.3-0.4,0.7-0.4,1.3c0,0.7,0.2,1.2,0.5,1.5c0.2,0.2,0.5,0.3,0.8,0.3
			C210.9,371.2,211,371.2,211.2,371.2z"/>
		<path class="st1" d="M214.9,368.2v2.2c0,0.2,0,0.4,0.1,0.5c0.1,0.2,0.3,0.3,0.5,0.3c0.3,0,0.6-0.1,0.7-0.4
			c0.1-0.1,0.1-0.3,0.1-0.6v-2h1v3.7h-0.9v-0.5c0,0,0,0-0.1,0.1c0,0.1-0.1,0.1-0.1,0.2c-0.2,0.1-0.3,0.2-0.4,0.3
			c-0.1,0-0.3,0.1-0.5,0.1c-0.6,0-0.9-0.2-1.1-0.6c-0.1-0.2-0.2-0.5-0.2-1v-2.2H214.9z"/>
		<path class="st1" d="M220.7,368.3c0.3,0.1,0.5,0.3,0.6,0.6c0.2,0.2,0.3,0.5,0.3,0.8c0,0.2,0,0.4,0,0.7h-2.7c0,0.4,0.1,0.6,0.4,0.8
			c0.1,0.1,0.3,0.1,0.5,0.1c0.2,0,0.4-0.1,0.5-0.2c0.1-0.1,0.1-0.1,0.2-0.3h1c0,0.2-0.1,0.4-0.4,0.7c-0.3,0.4-0.8,0.5-1.4,0.5
			c-0.5,0-0.9-0.2-1.3-0.5c-0.4-0.3-0.6-0.8-0.6-1.5c0-0.6,0.2-1.1,0.5-1.5c0.3-0.3,0.8-0.5,1.3-0.5
			C220.1,368.1,220.4,368.2,220.7,368.3z M219.2,369.1c-0.1,0.1-0.2,0.3-0.3,0.6h1.7c0-0.3-0.1-0.5-0.3-0.6
			c-0.2-0.1-0.3-0.2-0.6-0.2C219.5,368.9,219.3,369,219.2,369.1z"/>
		<path class="st1" d="M224.6,368.3c0.3,0.1,0.5,0.3,0.6,0.6c0.2,0.2,0.3,0.5,0.3,0.8c0,0.2,0,0.4,0,0.7h-2.7c0,0.4,0.1,0.6,0.4,0.8
			c0.1,0.1,0.3,0.1,0.5,0.1c0.2,0,0.4-0.1,0.5-0.2c0.1-0.1,0.1-0.1,0.2-0.3h1c0,0.2-0.1,0.4-0.4,0.7c-0.3,0.4-0.8,0.5-1.4,0.5
			c-0.5,0-0.9-0.2-1.3-0.5s-0.6-0.8-0.6-1.5c0-0.6,0.2-1.1,0.5-1.5c0.3-0.3,0.8-0.5,1.3-0.5C224,368.1,224.3,368.2,224.6,368.3z
			 M223.1,369.1c-0.1,0.1-0.2,0.3-0.3,0.6h1.7c0-0.3-0.1-0.5-0.3-0.6c-0.2-0.1-0.3-0.2-0.6-0.2C223.4,368.9,223.2,369,223.1,369.1z"
			/>
		<path class="st1" d="M229,368.4c0.2,0.2,0.4,0.5,0.4,1v2.5h-1v-2.3c0-0.2,0-0.3-0.1-0.5c-0.1-0.2-0.3-0.3-0.5-0.3
			c-0.3,0-0.6,0.1-0.7,0.4c-0.1,0.1-0.1,0.3-0.1,0.6v2h-1v-3.7h0.9v0.5c0.1-0.2,0.2-0.3,0.4-0.4c0.2-0.2,0.5-0.2,0.8-0.2
			C228.5,368.1,228.8,368.2,229,368.4z"/>
		<path class="st1" d="M233.5,370.4c0,0.2,0.1,0.4,0.2,0.5c0.2,0.2,0.5,0.3,0.9,0.3c0.3,0,0.5,0,0.6-0.1c0.3-0.1,0.5-0.3,0.5-0.6
			c0-0.2-0.1-0.3-0.2-0.4c-0.1-0.1-0.4-0.2-0.7-0.2l-0.5-0.1c-0.5-0.1-0.9-0.2-1.1-0.4c-0.3-0.2-0.5-0.6-0.5-1.1
			c0-0.5,0.2-0.8,0.5-1.1c0.3-0.3,0.8-0.4,1.5-0.4c0.5,0,1,0.1,1.4,0.4c0.4,0.3,0.6,0.7,0.6,1.2h-1c0-0.3-0.2-0.5-0.4-0.6
			c-0.2-0.1-0.4-0.1-0.6-0.1c-0.3,0-0.5,0.1-0.7,0.2s-0.2,0.3-0.2,0.5c0,0.2,0.1,0.3,0.2,0.4c0.1,0.1,0.3,0.1,0.7,0.2l0.9,0.2
			c0.4,0.1,0.7,0.2,0.9,0.4c0.3,0.2,0.5,0.6,0.5,1c0,0.5-0.2,0.8-0.5,1.1c-0.4,0.3-0.9,0.5-1.5,0.5c-0.7,0-1.2-0.2-1.6-0.4
			c-0.4-0.3-0.6-0.7-0.6-1.2H233.5z"/>
		<path class="st1" d="M236.9,369v-0.7h0.5v-1h1v1h0.6v0.7h-0.6v2c0,0.2,0,0.2,0.1,0.3c0,0,0.2,0.1,0.4,0.1c0,0,0.1,0,0.1,0
			c0,0,0.1,0,0.1,0v0.7l-0.5,0c-0.5,0-0.8-0.1-0.9-0.2c-0.1-0.1-0.2-0.3-0.2-0.5V369H236.9z"/>
		<path class="st1" d="M243.1,366.8h0.8l-2,5.2h-0.8L243.1,366.8z"/>
		<path class="st1" d="M246.4,366.9h3.6v0.9h-2.5v1.2h2.2v0.9h-2.2v2.1h-1V366.9z"/>
		<path class="st1" d="M252.7,368.1C252.7,368.1,252.7,368.1,252.7,368.1l0.1,1c-0.1,0-0.1,0-0.2,0c0,0-0.1,0-0.1,0
			c-0.4,0-0.7,0.1-0.8,0.4c-0.1,0.1-0.1,0.4-0.1,0.7v1.8h-1v-3.7h0.9v0.6c0.2-0.2,0.3-0.4,0.4-0.5
			C252.1,368.2,252.4,368.1,252.7,368.1C252.7,368.1,252.7,368.1,252.7,368.1z"/>
		<path class="st1" d="M254.3,367.8h-1v-0.9h1V367.8z M253.4,368.2h1v3.7h-1V368.2z"/>
		<path class="st1" d="M257.3,368.3c0.2,0.1,0.3,0.2,0.4,0.4v-1.8h1v5h-0.9v-0.5c-0.1,0.2-0.3,0.4-0.5,0.5c-0.2,0.1-0.4,0.2-0.7,0.2
			c-0.4,0-0.8-0.2-1.1-0.5c-0.3-0.4-0.4-0.8-0.4-1.4c0-0.6,0.1-1.1,0.4-1.5c0.3-0.4,0.7-0.5,1.2-0.5
			C256.9,368.1,257.1,368.2,257.3,368.3z M257.5,370.9c0.1-0.2,0.2-0.5,0.2-0.8c0-0.5-0.1-0.8-0.3-1c-0.1-0.1-0.3-0.2-0.5-0.2
			c-0.3,0-0.5,0.1-0.6,0.3c-0.1,0.2-0.2,0.5-0.2,0.8c0,0.3,0.1,0.6,0.2,0.8s0.3,0.3,0.6,0.3C257.2,371.2,257.4,371.1,257.5,370.9z"
			/>
		<path class="st1" d="M261,369.7c0.2,0,0.3-0.1,0.4-0.1c0.1-0.1,0.2-0.2,0.2-0.3c0-0.2-0.1-0.3-0.2-0.3c-0.1-0.1-0.3-0.1-0.5-0.1
			c-0.2,0-0.4,0.1-0.5,0.2c-0.1,0.1-0.1,0.2-0.1,0.3h-0.9c0-0.3,0.1-0.6,0.3-0.8c0.3-0.3,0.7-0.5,1.3-0.5c0.4,0,0.8,0.1,1.1,0.2
			c0.3,0.2,0.5,0.5,0.5,0.9v1.7c0,0.1,0,0.3,0,0.4c0,0.1,0,0.2,0.1,0.3c0,0,0.1,0.1,0.1,0.1v0.1h-1.1c0-0.1,0-0.1-0.1-0.2
			c0-0.1,0-0.1,0-0.2c-0.1,0.1-0.3,0.3-0.5,0.4c-0.2,0.1-0.4,0.2-0.7,0.2c-0.3,0-0.6-0.1-0.8-0.3c-0.2-0.2-0.3-0.5-0.3-0.8
			c0-0.5,0.2-0.8,0.5-1c0.2-0.1,0.5-0.2,0.9-0.2L261,369.7z M261.6,370.1c-0.1,0-0.1,0.1-0.2,0.1c-0.1,0-0.2,0-0.3,0.1l-0.2,0
			c-0.2,0-0.4,0.1-0.4,0.1c-0.2,0.1-0.2,0.2-0.2,0.4c0,0.2,0,0.3,0.1,0.4c0.1,0.1,0.2,0.1,0.3,0.1c0.2,0,0.4-0.1,0.6-0.2
			c0.2-0.1,0.3-0.3,0.3-0.7V370.1z"/>
		<path class="st1" d="M263.6,372.7l0.1,0c0.1,0,0.2,0,0.3,0c0.1,0,0.2,0,0.2-0.1c0.1,0,0.1-0.1,0.2-0.2s0.1-0.2,0.1-0.2l-1.4-3.9
			h1.1l0.8,2.7l0.8-2.7h1l-1.3,3.7c-0.2,0.7-0.4,1.1-0.6,1.3c-0.1,0.2-0.4,0.3-0.9,0.3c-0.1,0-0.2,0-0.2,0c-0.1,0-0.1,0-0.2,0V372.7
			z"/>
		<path class="st1" d="M269.9,367.4c0.3-0.3,0.7-0.5,1.2-0.5c0.8,0,1.3,0.3,1.6,1c0.2,0.4,0.2,0.9,0.2,1.5c0,0.6-0.1,1.1-0.2,1.5
			c-0.3,0.8-0.8,1.1-1.6,1.1c-0.4,0-0.7-0.1-1-0.3c-0.3-0.2-0.5-0.5-0.5-1h1c0,0.1,0.1,0.3,0.2,0.4c0.1,0.1,0.2,0.1,0.4,0.1
			c0.3,0,0.5-0.2,0.7-0.5c0.1-0.2,0.1-0.5,0.1-0.9c-0.1,0.1-0.2,0.2-0.3,0.3c-0.2,0.1-0.4,0.2-0.7,0.2c-0.4,0-0.7-0.1-1-0.4
			c-0.3-0.3-0.5-0.7-0.5-1.2C269.5,368.2,269.6,367.8,269.9,367.4z M271.6,369.4c0.2-0.1,0.3-0.4,0.3-0.7c0-0.3-0.1-0.5-0.2-0.7
			s-0.3-0.2-0.5-0.2c-0.2,0-0.3,0-0.4,0.1c-0.2,0.1-0.3,0.4-0.3,0.7c0,0.3,0.1,0.5,0.2,0.7c0.1,0.1,0.3,0.2,0.6,0.2
			C271.3,369.5,271.5,369.5,271.6,369.4z"/>
		<path class="st1" d="M279,367c0.4,0.1,0.6,0.3,0.9,0.6c0.2,0.3,0.3,0.5,0.4,0.8c0.1,0.3,0.1,0.6,0.1,0.8c0,0.7-0.1,1.2-0.4,1.7
			c-0.4,0.6-0.9,0.9-1.7,0.9h-2.2v-5h2.2C278.5,366.9,278.8,367,279,367z M277.1,367.8v3.3h1c0.5,0,0.8-0.2,1-0.7
			c0.1-0.3,0.2-0.6,0.2-1c0-0.5-0.1-0.9-0.2-1.2c-0.2-0.3-0.5-0.4-1-0.4H277.1z"/>
		<path class="st1" d="M283.5,368.3c0.3,0.1,0.5,0.3,0.6,0.6c0.2,0.2,0.3,0.5,0.3,0.8c0,0.2,0,0.4,0,0.7h-2.7c0,0.4,0.1,0.6,0.4,0.8
			c0.1,0.1,0.3,0.1,0.5,0.1c0.2,0,0.4-0.1,0.5-0.2c0.1-0.1,0.1-0.1,0.2-0.3h1c0,0.2-0.1,0.4-0.4,0.7c-0.3,0.4-0.8,0.5-1.4,0.5
			c-0.5,0-0.9-0.2-1.3-0.5s-0.6-0.8-0.6-1.5c0-0.6,0.2-1.1,0.5-1.5c0.3-0.3,0.8-0.5,1.3-0.5C282.9,368.1,283.2,368.2,283.5,368.3z
			 M282,369.1c-0.1,0.1-0.2,0.3-0.3,0.6h1.7c0-0.3-0.1-0.5-0.3-0.6c-0.2-0.1-0.3-0.2-0.6-0.2C282.3,368.9,282.1,369,282,369.1z"/>
		<path class="st1" d="M287.2,369.6c0-0.1-0.1-0.3-0.1-0.4c-0.1-0.2-0.3-0.2-0.5-0.2c-0.3,0-0.6,0.2-0.7,0.5
			c-0.1,0.2-0.1,0.4-0.1,0.7c0,0.3,0,0.5,0.1,0.7c0.1,0.3,0.3,0.5,0.7,0.5c0.2,0,0.4-0.1,0.5-0.2c0.1-0.1,0.2-0.3,0.2-0.5h1
			c0,0.3-0.1,0.6-0.3,0.8c-0.3,0.4-0.8,0.6-1.4,0.6c-0.6,0-1-0.2-1.3-0.5s-0.4-0.8-0.4-1.4c0-0.6,0.2-1.1,0.5-1.5s0.7-0.5,1.3-0.5
			c0.5,0,0.8,0.1,1.1,0.3c0.3,0.2,0.5,0.6,0.5,1.1H287.2z"/>
		<path class="st1" d="M291.2,368.3c0.3,0.1,0.5,0.3,0.6,0.6c0.2,0.2,0.3,0.5,0.3,0.8c0,0.2,0,0.4,0,0.7h-2.7c0,0.4,0.1,0.6,0.4,0.8
			c0.1,0.1,0.3,0.1,0.5,0.1c0.2,0,0.4-0.1,0.5-0.2c0.1-0.1,0.1-0.1,0.2-0.3h1c0,0.2-0.1,0.4-0.4,0.7c-0.3,0.4-0.8,0.5-1.4,0.5
			c-0.5,0-0.9-0.2-1.3-0.5s-0.6-0.8-0.6-1.5c0-0.6,0.2-1.1,0.5-1.5c0.3-0.3,0.8-0.5,1.3-0.5C290.7,368.1,291,368.2,291.2,368.3z
			 M289.8,369.1c-0.1,0.1-0.2,0.3-0.3,0.6h1.7c0-0.3-0.1-0.5-0.3-0.6c-0.2-0.1-0.3-0.2-0.6-0.2C290.1,368.9,289.9,369,289.8,369.1z"
			/>
		<path class="st1" d="M297.4,368.2c0.2,0.1,0.3,0.2,0.4,0.3c0.1,0.1,0.2,0.3,0.2,0.5c0,0.1,0,0.3,0,0.5l0,2.3h-1v-2.4
			c0-0.1,0-0.3-0.1-0.3c-0.1-0.2-0.2-0.3-0.5-0.3c-0.3,0-0.5,0.1-0.6,0.3c-0.1,0.1-0.1,0.3-0.1,0.4v2.2h-1v-2.2c0-0.2,0-0.4-0.1-0.5
			c-0.1-0.2-0.2-0.3-0.5-0.3c-0.3,0-0.5,0.1-0.6,0.3c-0.1,0.1-0.1,0.3-0.1,0.5v2.2h-1v-3.7h0.9v0.5c0.1-0.2,0.2-0.3,0.3-0.4
			c0.2-0.1,0.4-0.2,0.7-0.2c0.3,0,0.5,0.1,0.7,0.2c0.1,0.1,0.2,0.3,0.3,0.4c0.1-0.2,0.3-0.4,0.5-0.5c0.2-0.1,0.4-0.2,0.7-0.2
			C297,368.1,297.2,368.2,297.4,368.2z"/>
		<path class="st1" d="M302.1,368.7c0.3,0.4,0.4,0.8,0.4,1.4c0,0.6-0.1,1.1-0.4,1.4c-0.3,0.4-0.7,0.6-1.2,0.6
			c-0.3,0-0.6-0.1-0.7-0.2c-0.1-0.1-0.2-0.2-0.4-0.4v0.5h-1v-5h1v1.8c0.1-0.2,0.3-0.3,0.4-0.4c0.2-0.1,0.4-0.2,0.7-0.2
			C301.5,368.1,301.8,368.3,302.1,368.7z M301.3,370.9c0.1-0.2,0.2-0.5,0.2-0.8c0-0.3,0-0.5-0.1-0.7c-0.1-0.3-0.4-0.5-0.7-0.5
			c-0.4,0-0.6,0.2-0.7,0.5c-0.1,0.2-0.1,0.4-0.1,0.7c0,0.3,0.1,0.6,0.2,0.8c0.1,0.2,0.4,0.3,0.7,0.3
			C301,371.2,301.2,371.1,301.3,370.9z"/>
		<path class="st1" d="M305.6,368.3c0.3,0.1,0.5,0.3,0.6,0.6c0.2,0.2,0.3,0.5,0.3,0.8c0,0.2,0,0.4,0,0.7h-2.7c0,0.4,0.1,0.6,0.4,0.8
			c0.1,0.1,0.3,0.1,0.5,0.1c0.2,0,0.4-0.1,0.5-0.2c0.1-0.1,0.1-0.1,0.2-0.3h1c0,0.2-0.1,0.4-0.4,0.7c-0.3,0.4-0.8,0.5-1.4,0.5
			c-0.5,0-0.9-0.2-1.3-0.5s-0.6-0.8-0.6-1.5c0-0.6,0.2-1.1,0.5-1.5c0.3-0.3,0.8-0.5,1.3-0.5C305.1,368.1,305.4,368.2,305.6,368.3z
			 M304.2,369.1c-0.1,0.1-0.2,0.3-0.3,0.6h1.7c0-0.3-0.1-0.5-0.3-0.6c-0.2-0.1-0.3-0.2-0.6-0.2C304.5,368.9,304.3,369,304.2,369.1z"
			/>
		<path class="st1" d="M309.2,368.1C309.2,368.1,309.2,368.1,309.2,368.1l0.1,1c-0.1,0-0.1,0-0.2,0c0,0-0.1,0-0.1,0
			c-0.4,0-0.7,0.1-0.8,0.4c-0.1,0.1-0.1,0.4-0.1,0.7v1.8h-1v-3.7h0.9v0.6c0.2-0.2,0.3-0.4,0.4-0.5
			C308.6,368.2,308.8,368.1,309.2,368.1C309.1,368.1,309.2,368.1,309.2,368.1z"/>
		<path class="st1" d="M312.2,371c0.1-0.3,0.5-0.7,1-1c0.4-0.3,0.7-0.6,0.9-0.7c0.2-0.2,0.3-0.5,0.3-0.7c0-0.2-0.1-0.4-0.2-0.5
			c-0.1-0.1-0.3-0.2-0.5-0.2c-0.3,0-0.5,0.1-0.6,0.3c-0.1,0.1-0.1,0.3-0.1,0.6H312c0-0.4,0.1-0.8,0.2-1c0.3-0.5,0.7-0.7,1.4-0.7
			c0.5,0,0.9,0.1,1.3,0.4c0.3,0.3,0.5,0.7,0.5,1.2c0,0.4-0.1,0.7-0.3,1c-0.1,0.2-0.4,0.4-0.7,0.6l-0.4,0.3c-0.2,0.2-0.4,0.3-0.5,0.4
			c-0.1,0.1-0.2,0.2-0.2,0.3h2.2v0.9H312C312,371.6,312,371.3,312.2,371z"/>
		<path class="st1" d="M318.9,367.6c0.3,0.4,0.4,1.1,0.4,1.9c0,0.8-0.1,1.4-0.4,1.9c-0.3,0.4-0.7,0.7-1.3,0.7s-1.1-0.2-1.3-0.7
			c-0.3-0.4-0.4-1.1-0.4-1.9c0-0.8,0.1-1.4,0.4-1.9s0.7-0.7,1.3-0.7S318.6,367.2,318.9,367.6z M317,370.8c0.1,0.3,0.3,0.5,0.6,0.5
			s0.5-0.2,0.6-0.5s0.1-0.7,0.1-1.3c0-0.6,0-1-0.1-1.3s-0.3-0.4-0.6-0.4s-0.5,0.1-0.6,0.4s-0.1,0.7-0.1,1.3
			C316.8,370.1,316.9,370.5,317,370.8z"/>
		<path class="st1" d="M320,371c0.1-0.3,0.5-0.7,1-1c0.4-0.3,0.7-0.6,0.9-0.7c0.2-0.2,0.3-0.5,0.3-0.7c0-0.2-0.1-0.4-0.2-0.5
			c-0.1-0.1-0.3-0.2-0.5-0.2c-0.3,0-0.5,0.1-0.6,0.3c-0.1,0.1-0.1,0.3-0.1,0.6h-0.9c0-0.4,0.1-0.8,0.2-1c0.3-0.5,0.7-0.7,1.4-0.7
			c0.5,0,0.9,0.1,1.3,0.4c0.3,0.3,0.5,0.7,0.5,1.2c0,0.4-0.1,0.7-0.3,1c-0.1,0.2-0.4,0.4-0.7,0.6l-0.4,0.3c-0.2,0.2-0.4,0.3-0.5,0.4
			c-0.1,0.1-0.2,0.2-0.2,0.3h2.2v0.9h-3.4C319.8,371.6,319.8,371.3,320,371z"/>
		<path class="st1" d="M323.9,371c0.1-0.3,0.5-0.7,1-1c0.4-0.3,0.7-0.6,0.9-0.7c0.2-0.2,0.3-0.5,0.3-0.7c0-0.2-0.1-0.4-0.2-0.5
			c-0.1-0.1-0.3-0.2-0.5-0.2c-0.3,0-0.5,0.1-0.6,0.3c-0.1,0.1-0.1,0.3-0.1,0.6h-0.9c0-0.4,0.1-0.8,0.2-1c0.3-0.5,0.7-0.7,1.4-0.7
			c0.5,0,0.9,0.1,1.3,0.4c0.3,0.3,0.5,0.7,0.5,1.2c0,0.4-0.1,0.7-0.3,1c-0.1,0.2-0.4,0.4-0.7,0.6l-0.4,0.3c-0.2,0.2-0.4,0.3-0.5,0.4
			c-0.1,0.1-0.2,0.2-0.2,0.3h2.2v0.9h-3.4C323.6,371.6,323.7,371.3,323.9,371z"/>
		<path class="st1" d="M331.3,366.8h0.8l-2,5.2h-0.8L331.3,366.8z"/>
		<path class="st1" d="M334.4,369.8c0.1-0.2,0.3-0.4,0.6-0.5c-0.2-0.2-0.4-0.3-0.5-0.5c-0.1-0.2-0.1-0.4-0.1-0.5
			c0-0.4,0.1-0.7,0.4-0.9c0.3-0.3,0.7-0.4,1.2-0.4s0.9,0.1,1.2,0.4c0.3,0.3,0.4,0.6,0.4,0.9c0,0.2,0,0.3-0.1,0.5
			c-0.1,0.2-0.2,0.3-0.5,0.5c0.2,0.1,0.4,0.3,0.6,0.5c0.1,0.2,0.2,0.5,0.2,0.8c0,0.4-0.2,0.8-0.5,1.1c-0.3,0.3-0.7,0.4-1.3,0.4
			c-0.6,0-1-0.1-1.3-0.4s-0.4-0.6-0.4-1.1C334.2,370.3,334.2,370,334.4,369.8z M335.4,371.1c0.1,0.1,0.3,0.2,0.5,0.2
			c0.2,0,0.4-0.1,0.5-0.2c0.1-0.1,0.2-0.3,0.2-0.6c0-0.3-0.1-0.4-0.2-0.6c-0.1-0.1-0.3-0.2-0.5-0.2s-0.4,0.1-0.5,0.2
			c-0.1,0.1-0.2,0.3-0.2,0.6C335.2,370.8,335.3,370.9,335.4,371.1z M335.4,368.8c0.1,0.1,0.3,0.2,0.5,0.2c0.2,0,0.4-0.1,0.5-0.2
			c0.1-0.1,0.2-0.3,0.2-0.4c0-0.2-0.1-0.3-0.2-0.5s-0.3-0.2-0.5-0.2c-0.2,0-0.4,0.1-0.5,0.2c-0.1,0.1-0.2,0.3-0.2,0.5
			C335.3,368.6,335.3,368.7,335.4,368.8z"/>
		<path class="st1" d="M338,369.5h1.9v0.9H338V369.5z"/>
		<path class="st1" d="M340.9,367.4c0.3-0.3,0.7-0.5,1.2-0.5c0.8,0,1.3,0.3,1.6,1c0.2,0.4,0.2,0.9,0.2,1.5c0,0.6-0.1,1.1-0.2,1.5
			c-0.3,0.8-0.8,1.1-1.6,1.1c-0.4,0-0.7-0.1-1-0.3c-0.3-0.2-0.5-0.5-0.5-1h1c0,0.1,0.1,0.3,0.2,0.4c0.1,0.1,0.2,0.1,0.4,0.1
			c0.3,0,0.5-0.2,0.7-0.5c0.1-0.2,0.1-0.5,0.1-0.9c-0.1,0.1-0.2,0.2-0.3,0.3c-0.2,0.1-0.4,0.2-0.7,0.2c-0.4,0-0.7-0.1-1-0.4
			c-0.3-0.3-0.5-0.7-0.5-1.2C340.4,368.2,340.6,367.8,340.9,367.4z M342.5,369.4c0.2-0.1,0.3-0.4,0.3-0.7c0-0.3-0.1-0.5-0.2-0.7
			s-0.3-0.2-0.5-0.2c-0.2,0-0.3,0-0.4,0.1c-0.2,0.1-0.3,0.4-0.3,0.7c0,0.3,0.1,0.5,0.2,0.7c0.1,0.1,0.3,0.2,0.6,0.2
			C342.3,369.5,342.4,369.5,342.5,369.4z"/>
		<path class="st1" d="M346.1,366.9h1.2l1.8,5h-1.1l-0.3-1h-1.9l-0.3,1h-1.1L346.1,366.9z M346,370h1.3l-0.6-2L346,370z"/>
		<path class="st1" d="M353,366.9h1.5v5h-1v-3.4c0-0.1,0-0.2,0-0.4c0-0.2,0-0.3,0-0.4l-1,4.2h-1l-0.9-4.2c0,0.1,0,0.2,0,0.4
			c0,0.2,0,0.3,0,0.4v3.4h-1v-5h1.5l0.9,4L353,366.9z"/>
	</g>
</g>
<g id="_x33_D::EXISTING_CONDITIONS::OP4">
	<path class="st2" d="M5,380.4c1.5,0,2.9,0,4.4,0c0,2.6,0,5.1,0,7.7c0,1.1,0.2,2.3,0.7,3.4c0.4,1.1,1.1,2,1.9,2.8
		c0.8,0.8,1.8,1.5,2.8,1.9c1.1,0.4,2.2,0.7,3.3,0.7c5.8,0,11.7,0,17.5,0c1.1,0,2.3-0.2,3.3-0.7c1.1-0.4,2-1.1,2.8-1.9
		c0.8-0.8,1.5-1.8,1.9-2.8s0.7-2.2,0.7-3.4c0-2.6,0-5.1,0-7.7c2.9,0,5.8,0,8.7,0c0,2.6,0,5.1,0,7.7c0,1.1,0.2,2.3,0.7,3.4
		s1.1,2,1.9,2.8c0.8,0.8,1.8,1.5,2.8,1.9c1.1,0.4,2.2,0.7,3.3,0.7c5.8,0,11.7,0,17.5,0c1.1,0,2.3-0.2,3.3-0.7c1.1-0.4,2-1.1,2.8-1.9
		c0.8-0.8,1.5-1.8,1.9-2.8c0.4-1.1,0.7-2.2,0.7-3.4c0-2.6,0-5.1,0-7.7c2.9,0,5.8,0,8.8,0c0,2.6,0,5.1,0,7.7c0,1.1,0.2,2.3,0.7,3.4
		c0.4,1.1,1.1,2,1.9,2.8c0.8,0.8,1.8,1.5,2.8,1.9c1.1,0.4,2.2,0.7,3.3,0.7c5.8,0,11.7,0,17.5,0c1.1,0,2.3-0.2,3.3-0.7
		c1.1-0.4,2-1.1,2.8-1.9c0.8-0.8,1.5-1.8,1.9-2.8s0.7-2.2,0.7-3.4c0-2.6,0-5.1,0-7.7c2.9,0,5.8,0,8.7,0c0,2.6,0,5.1,0,7.7
		c0,1.1,0.2,2.3,0.7,3.4c0.4,1.1,1.1,2,1.9,2.8c0.8,0.8,1.8,1.5,2.8,1.9c1.1,0.4,2.2,0.7,3.3,0.7c5.8,0,11.7,0,17.5,0
		c1.1,0,2.3-0.2,3.3-0.7c1.1-0.4,2-1.1,2.8-1.9c0.8-0.8,1.5-1.8,1.9-2.8c0.4-1.1,0.7-2.2,0.7-3.4c0-2.6,0-5.1,0-7.7
		c2.9,0,5.8,0,8.7,0c0,2.6,0,5.1,0,7.7c0,1.1,0.2,2.3,0.7,3.4c0.4,1.1,1.1,2,1.9,2.8c0.8,0.8,1.8,1.5,2.8,1.9
		c1.1,0.4,2.2,0.7,3.3,0.7c5.8,0,11.7,0,17.5,0c1.1,0,2.3-0.2,3.3-0.7c1.1-0.4,2-1.1,2.8-1.9c0.8-0.8,1.5-1.8,1.9-2.8
		c0.4-1.1,0.7-2.2,0.7-3.4c0-2.6,0-5.1,0-7.7c2.9,0,5.8,0,8.7,0c0,2.6,0,5.1,0,7.7c0,1.1,0.2,2.3,0.7,3.4s1.1,2,1.9,2.8
		c0.8,0.8,1.8,1.5,2.8,1.9c1.1,0.4,2.2,0.7,3.3,0.7c5.8,0,11.7,0,17.5,0c1.1,0,2.3-0.2,3.3-0.7c1.1-0.4,2-1.1,2.8-1.9
		c0.8-0.8,1.5-1.8,1.9-2.8s0.7-2.2,0.7-3.4c0-2.6,0-5.1,0-7.7c2.9,0,5.8,0,8.7,0c0,2.6,0,5.1,0,7.7c0,1.1,0.2,2.3,0.7,3.4
		s1.1,2,1.9,2.8c0.8,0.8,1.8,1.5,2.8,1.9c1.1,0.4,2.2,0.7,3.3,0.7c5.8,0,11.7,0,17.5,0c1.1,0,2.3-0.2,3.3-0.7c1.1-0.4,2-1.1,2.8-1.9
		c0.8-0.8,1.5-1.8,1.9-2.8s0.7-2.2,0.7-3.4c0-2.6,0-5.1,0-7.7c2.9,0,5.8,0,8.7,0c0,2.6,0,5.1,0,7.7c0,1.1,0.2,2.3,0.7,3.4
		c0.4,1.1,1.1,2,1.9,2.8c0.8,0.8,1.8,1.5,2.8,1.9c1.1,0.4,2.2,0.7,3.3,0.7c5.8,0,11.7,0,17.5,0c1.1,0,2.3-0.2,3.3-0.7
		c1.1-0.4,2-1.1,2.8-1.9c0.8-0.8,1.5-1.8,1.9-2.8c0.4-1.1,0.7-2.2,0.7-3.4c0-2.6,0-5.1,0-7.7c1.5,0,2.9,0,4.4,0"/>
	<path class="st2" d="M288.5,396.9c0-6.4,0-12.8,0-19.1c0,0,0,0,0,0c0,0,0,0,0.1,0c0,0,0,0,0.1,0c0,0,0,0,0.1,0c0,0,0,0,0.1,0
		c0,0,0,0,0.1,0s0,0,0.1,0c0,0,0,0,0.1,0c0,0,0,0,0,0c0,0,0,0,0,0c0,0,0,0,0,0c0,0,0,0,0,0c0,0,0,0,0,0c0,0,0,0,0,0c0,0,0,0,0,0
		c0,0,0,0,0,0c0,0,0,0,0,0c0,0,0,0,0,0c0,0,0,0,0,0c0,0,0,0,0,0c0,0,0,0,0,0c0,0,0,0,0,0c0,0,0,0,0,0c0,0,0,0,0,0c0,0,0,0,0,0
		c0,0,0,0,0,0c0,0,0,0,0,0c0,0,0,0,0,0c0,0,0,0,0,0c0,0,0,0,0,0c0,0,0,0,0,0c0,0,0,0,0,0c0,0,0,0,0,0c0,0,0,0,0,0c0,0,0,0,0,0
		c0,0,0,0,0,0c0,0,0,0,0,0c0,0,0,0,0,0c0,0,0,0,0,0c0,0,0,0,0,0c0,0,0,0,0,0c0,0,0,0,0,0c0,0,0,0,0,0c0,0,0,0,0,0c0,0,0,0,0,0
		c0,0,0,0,0,0c0,0,0,0,0,0c0,0,0,0,0,0c0,0,0,0,0.1,0c0,0,0,0,0.1,0c0,0,0,0,0.1,0c0,0,0,0,0.1,0c0,0,0,0,0.1,0c0,0,0,0,0,0
		c0,0,0,0,0,0c0,0,0,0,0.1,0c0,0,0,0,0,0c0,6.4,0,12.8,0,19.1"/>
	<path class="st2" d="M69.7,396.9c0-6.4,0-12.8,0-19.3c0,0,0,0,0,0c0,0,0,0,0.1,0c0,0,0,0,0.1,0c0,0,0,0,0.1,0c0,0,0,0,0.1,0
		c0,0,0,0,0.1,0c0,0,0,0,0.1,0c0,0,0,0,0.1,0c0,0,0,0,0,0c0,0,0,0,0,0c0,0,0,0,0,0c0,0,0,0,0,0s0,0,0,0c0,0,0,0,0,0c0,0,0,0,0,0
		c0,0,0,0,0,0c0,0,0,0,0,0c0,0,0,0,0,0c0,0,0,0,0,0c0,0,0,0,0,0c0,0,0,0,0,0c0,0,0,0,0,0c0,0,0,0,0,0c0,0,0,0,0,0c0,0,0,0,0,0
		c0,0,0,0,0,0c0,0,0,0,0,0c0,0,0,0,0,0c0,0,0,0,0,0c0,0,0,0,0,0c0,0,0,0,0,0c0,0,0,0,0,0c0,0,0,0,0,0c0,0,0,0,0,0c0,0,0,0,0,0
		c0,0,0,0,0,0c0,0,0,0,0,0c0,0,0,0,0,0c0,0,0,0,0,0c0,0,0,0,0,0c0,0,0,0,0,0c0,0,0,0,0,0c0,0,0,0,0,0c0,0,0,0,0,0c0,0,0,0,0,0
		c0,0,0,0,0,0c0,0,0,0,0,0c0,0,0,0,0,0c0,0,0,0,0.1,0c0,0,0,0,0.1,0c0,0,0,0,0.1,0c0,0,0,0,0.1,0c0,0,0,0,0.1,0c0,0,0,0,0,0
		c0,0,0,0,0,0c0,0,0,0,0.1,0c0,0,0,0,0,0c0,6.4,0,12.8,0,19.3"/>
	<path class="st2" d="M113.5,396.9c0-6.4,0-12.8,0-19.3c0,0,0,0,0,0c0,0,0,0,0.1,0c0,0,0,0,0.1,0c0,0,0,0,0.1,0c0,0,0,0,0.1,0
		c0,0,0,0,0.1,0c0,0,0,0,0.1,0c0,0,0,0,0.1,0c0,0,0,0,0,0c0,0,0,0,0,0c0,0,0,0,0,0s0,0,0,0s0,0,0,0c0,0,0,0,0,0c0,0,0,0,0,0
		c0,0,0,0,0,0c0,0,0,0,0,0c0,0,0,0,0,0c0,0,0,0,0,0c0,0,0,0,0,0c0,0,0,0,0,0c0,0,0,0,0,0c0,0,0,0,0,0c0,0,0,0,0,0c0,0,0,0,0,0
		c0,0,0,0,0,0c0,0,0,0,0,0c0,0,0,0,0,0c0,0,0,0,0,0c0,0,0,0,0,0c0,0,0,0,0,0c0,0,0,0,0,0c0,0,0,0,0,0c0,0,0,0,0,0c0,0,0,0,0,0
		c0,0,0,0,0,0c0,0,0,0,0,0c0,0,0,0,0,0s0,0,0,0c0,0,0,0,0,0c0,0,0,0,0,0c0,0,0,0,0,0c0,0,0,0,0,0c0,0,0,0,0,0c0,0,0,0,0,0
		c0,0,0,0,0,0c0,0,0,0,0,0c0,0,0,0,0,0c0,0,0,0,0.1,0c0,0,0,0,0.1,0c0,0,0,0,0.1,0c0,0,0,0,0.1,0c0,0,0,0,0.1,0c0,0,0,0,0,0
		c0,0,0,0,0,0c0,0,0,0,0.1,0c0,0,0,0,0,0c0,6.4,0,12.8,0,19.3"/>
	<path class="st2" d="M157.3,396.9c0-6.4,0-12.8,0-19.3c0,0,0,0,0,0c0,0,0,0,0.1,0c0,0,0,0,0.1,0c0,0,0,0,0.1,0c0,0,0,0,0.1,0
		c0,0,0,0,0.1,0c0,0,0,0,0.1,0c0,0,0,0,0.1,0c0,0,0,0,0,0c0,0,0,0,0,0c0,0,0,0,0,0s0,0,0,0c0,0,0,0,0,0c0,0,0,0,0,0c0,0,0,0,0,0
		c0,0,0,0,0,0c0,0,0,0,0,0c0,0,0,0,0,0c0,0,0,0,0,0c0,0,0,0,0,0c0,0,0,0,0,0c0,0,0,0,0,0c0,0,0,0,0,0c0,0,0,0,0,0c0,0,0,0,0,0
		c0,0,0,0,0,0c0,0,0,0,0,0c0,0,0,0,0,0c0,0,0,0,0,0c0,0,0,0,0,0c0,0,0,0,0,0c0,0,0,0,0,0c0,0,0,0,0,0c0,0,0,0,0,0c0,0,0,0,0,0
		c0,0,0,0,0,0c0,0,0,0,0,0c0,0,0,0,0,0c0,0,0,0,0,0c0,0,0,0,0,0c0,0,0,0,0,0c0,0,0,0,0,0c0,0,0,0,0,0c0,0,0,0,0,0c0,0,0,0,0,0
		c0,0,0,0,0,0c0,0,0,0,0,0c0,0,0,0,0,0c0,0,0,0,0.1,0c0,0,0,0,0.1,0c0,0,0,0,0.1,0c0,0,0,0,0.1,0c0,0,0,0,0.1,0c0,0,0,0,0,0
		c0,0,0,0,0,0c0,0,0,0,0.1,0c0,0,0,0,0,0c0,6.4,0,12.8,0,19.3"/>
	<path class="st2" d="M201,396.9c0-6.4,0-12.8,0-19.3c0,0,0,0,0,0c0,0,0,0,0.1,0c0,0,0,0,0.1,0c0,0,0,0,0.1,0c0,0,0,0,0.1,0
		c0,0,0,0,0.1,0c0,0,0,0,0.1,0c0,0,0,0,0.1,0c0,0,0,0,0,0c0,0,0,0,0,0c0,0,0,0,0,0c0,0,0,0,0,0c0,0,0,0,0,0c0,0,0,0,0,0c0,0,0,0,0,0
		c0,0,0,0,0,0c0,0,0,0,0,0c0,0,0,0,0,0c0,0,0,0,0,0c0,0,0,0,0,0c0,0,0,0,0,0c0,0,0,0,0,0c0,0,0,0,0,0c0,0,0,0,0,0c0,0,0,0,0,0
		c0,0,0,0,0,0c0,0,0,0,0,0c0,0,0,0,0,0c0,0,0,0,0,0c0,0,0,0,0,0c0,0,0,0,0,0c0,0,0,0,0,0c0,0,0,0,0,0c0,0,0,0,0,0c0,0,0,0,0,0
		c0,0,0,0,0,0c0,0,0,0,0,0c0,0,0,0,0,0c0,0,0,0,0,0c0,0,0,0,0,0c0,0,0,0,0,0c0,0,0,0,0,0c0,0,0,0,0,0c0,0,0,0,0,0s0,0,0,0
		c0,0,0,0,0,0c0,0,0,0,0,0c0,0,0,0,0,0c0,0,0,0,0.1,0c0,0,0,0,0.1,0c0,0,0,0,0.1,0c0,0,0,0,0.1,0c0,0,0,0,0.1,0c0,0,0,0,0,0
		c0,0,0,0,0,0c0,0,0,0,0.1,0c0,0,0,0,0,0c0,6.4,0,12.8,0,19.3"/>
	<path class="st2" d="M244.7,396.9c0-6.4,0-12.8,0-19.3c0,0,0,0,0,0c0,0,0,0,0.1,0c0,0,0,0,0.1,0c0,0,0,0,0.1,0c0,0,0,0,0.1,0
		c0,0,0,0,0.1,0c0,0,0,0,0.1,0c0,0,0,0,0.1,0c0,0,0,0,0,0c0,0,0,0,0,0c0,0,0,0,0,0c0,0,0,0,0,0c0,0,0,0,0,0c0,0,0,0,0,0c0,0,0,0,0,0
		c0,0,0,0,0,0c0,0,0,0,0,0c0,0,0,0,0,0c0,0,0,0,0,0c0,0,0,0,0,0c0,0,0,0,0,0c0,0,0,0,0,0c0,0,0,0,0,0c0,0,0,0,0,0c0,0,0,0,0,0
		c0,0,0,0,0,0c0,0,0,0,0,0c0,0,0,0,0,0c0,0,0,0,0,0c0,0,0,0,0,0c0,0,0,0,0,0c0,0,0,0,0,0c0,0,0,0,0,0c0,0,0,0,0,0c0,0,0,0,0,0
		c0,0,0,0,0,0c0,0,0,0,0,0c0,0,0,0,0,0s0,0,0,0c0,0,0,0,0,0c0,0,0,0,0,0c0,0,0,0,0,0c0,0,0,0,0,0c0,0,0,0,0,0c0,0,0,0,0,0
		c0,0,0,0,0,0c0,0,0,0,0,0c0,0,0,0,0,0c0,0,0,0,0.1,0s0,0,0.1,0c0,0,0,0,0.1,0c0,0,0,0,0.1,0c0,0,0,0,0.1,0c0,0,0,0,0,0c0,0,0,0,0,0
		c0,0,0,0,0.1,0c0,0,0,0,0,0c0,6.4,0,12.8,0,19.3"/>
	<path class="st2" d="M26,396.9c0-6.4,0-12.8,0-19.3c0,0,0,0,0,0c0,0,0,0,0.1,0c0,0,0,0,0.1,0c0,0,0,0,0.1,0c0,0,0,0,0.1,0
		c0,0,0,0,0.1,0c0,0,0,0,0.1,0c0,0,0,0,0.1,0c0,0,0,0,0,0c0,0,0,0,0,0c0,0,0,0,0,0s0,0,0,0c0,0,0,0,0,0c0,0,0,0,0,0c0,0,0,0,0,0
		c0,0,0,0,0,0c0,0,0,0,0,0c0,0,0,0,0,0c0,0,0,0,0,0c0,0,0,0,0,0c0,0,0,0,0,0c0,0,0,0,0,0c0,0,0,0,0,0c0,0,0,0,0,0c0,0,0,0,0,0
		c0,0,0,0,0,0c0,0,0,0,0,0c0,0,0,0,0,0c0,0,0,0,0,0c0,0,0,0,0,0c0,0,0,0,0,0c0,0,0,0,0,0c0,0,0,0,0,0c0,0,0,0,0,0c0,0,0,0,0,0
		c0,0,0,0,0,0c0,0,0,0,0,0c0,0,0,0,0,0c0,0,0,0,0,0c0,0,0,0,0,0c0,0,0,0,0,0c0,0,0,0,0,0c0,0,0,0,0,0c0,0,0,0,0,0s0,0,0,0
		c0,0,0,0,0,0c0,0,0,0,0,0c0,0,0,0,0,0c0,0,0,0,0.1,0s0,0,0.1,0c0,0,0,0,0.1,0c0,0,0,0,0.1,0c0,0,0,0,0.1,0c0,0,0,0,0,0c0,0,0,0,0,0
		c0,0,0,0,0.1,0c0,0,0,0,0,0c0,6.4,0,12.8,0,19.3"/>
	<path class="st2" d="M332.2,396.9c0-6.4,0-12.8,0-19.1c0,0,0,0,0,0c0,0,0,0,0.1,0c0,0,0,0,0.1,0c0,0,0,0,0.1,0c0,0,0,0,0.1,0
		c0,0,0,0,0.1,0c0,0,0,0,0.1,0c0,0,0,0,0.1,0c0,0,0,0,0,0c0,0,0,0,0,0c0,0,0,0,0,0c0,0,0,0,0,0c0,0,0,0,0,0c0,0,0,0,0,0c0,0,0,0,0,0
		c0,0,0,0,0,0c0,0,0,0,0,0c0,0,0,0,0,0c0,0,0,0,0,0c0,0,0,0,0,0c0,0,0,0,0,0c0,0,0,0,0,0c0,0,0,0,0,0c0,0,0,0,0,0c0,0,0,0,0,0
		c0,0,0,0,0,0c0,0,0,0,0,0c0,0,0,0,0,0s0,0,0,0c0,0,0,0,0,0c0,0,0,0,0,0c0,0,0,0,0,0c0,0,0,0,0,0c0,0,0,0,0,0c0,0,0,0,0,0
		c0,0,0,0,0,0c0,0,0,0,0,0c0,0,0,0,0,0c0,0,0,0,0,0c0,0,0,0,0,0c0,0,0,0,0,0c0,0,0,0,0,0c0,0,0,0,0,0c0,0,0,0,0,0c0,0,0,0,0,0
		c0,0,0,0,0,0c0,0,0,0,0,0c0,0,0,0,0,0c0,0,0,0,0.1,0c0,0,0,0,0.1,0c0,0,0,0,0.1,0c0,0,0,0,0.1,0c0,0,0,0,0.1,0c0,0,0,0,0,0
		c0,0,0,0,0,0c0,0,0,0,0.1,0c0,0,0,0,0,0c0,6.4,0,12.8,0,19.1"/>
	<line class="st2" x1="288.7" y1="377.6" x2="246.5" y2="377.6"/>
	<line class="st2" x1="113.5" y1="377.6" x2="71.5" y2="377.6"/>
	<line class="st2" x1="157.2" y1="377.6" x2="115.3" y2="377.6"/>
	<line class="st2" x1="201" y1="377.6" x2="159" y2="377.6"/>
	<line class="st2" x1="244.7" y1="377.6" x2="202.7" y2="377.6"/>
	<line class="st2" x1="69.7" y1="377.6" x2="27.7" y2="377.6"/>
	<line class="st2" x1="355" y1="377.6" x2="290.1" y2="377.6"/>
	<line class="st2" x1="26" y1="377.6" x2="5" y2="377.6"/>
	<line class="st2" x1="5" y1="375" x2="355" y2="375"/>
	<path class="st2" d="M315.6,493.6c0.2,2.2,1.2,4.3,2.8,5.8c1.6,1.5,3.7,2.3,5.9,2.3"/>
	<path class="st2" d="M315.6,447.5c0,15.4,0,30.8,0,46.2"/>
	<path class="st2" d="M324.4,438.7c-1.1,0-2.3,0.2-3.3,0.7c-1.1,0.4-2,1.1-2.8,1.9c-0.8,0.8-1.5,1.8-1.9,2.8
		c-0.4,1.1-0.7,2.2-0.7,3.4"/>
	<line class="st2" x1="341.9" y1="438.7" x2="324.4" y2="438.7"/>
	<path class="st2" d="M350.6,447.5c0-1.1-0.2-2.3-0.7-3.4c-0.4-1.1-1.1-2-1.9-2.8c-0.8-0.8-1.8-1.5-2.8-1.9
		c-1.1-0.4-2.2-0.7-3.3-0.7"/>
	<path class="st2" d="M350.6,493.6c0-15.4,0-30.8,0-46.2"/>
	<path class="st2" d="M341.9,501.7c2.2,0,4.3-0.8,5.9-2.3c1.6-1.5,2.6-3.6,2.8-5.8"/>
	<line class="st2" x1="324.4" y1="501.7" x2="341.9" y2="501.7"/>
	<path class="st2" d="M271.9,493.8c0.2,2.2,1.2,4.3,2.8,5.8c1.6,1.5,3.7,2.3,5.9,2.3"/>
	<path class="st2" d="M271.9,447.6c0,15.4,0,30.8,0,46.2"/>
	<path class="st2" d="M280.6,438.9c-1.1,0-2.3,0.2-3.3,0.7c-1.1,0.4-2,1.1-2.8,1.9c-0.8,0.8-1.5,1.8-1.9,2.8
		c-0.4,1.1-0.7,2.2-0.7,3.4"/>
	<line class="st2" x1="298.1" y1="438.9" x2="280.6" y2="438.9"/>
	<path class="st2" d="M306.9,447.6c0-1.1-0.2-2.3-0.7-3.4c-0.4-1.1-1.1-2-1.9-2.8c-0.8-0.8-1.8-1.5-2.8-1.9
		c-1.1-0.4-2.2-0.7-3.3-0.7"/>
	<path class="st2" d="M306.9,493.8c0-15.4,0-30.8,0-46.2"/>
	<path class="st2" d="M298.1,501.9c2.2,0,4.3-0.8,5.9-2.3c1.6-1.5,2.6-3.6,2.8-5.8"/>
	<line class="st2" x1="280.6" y1="501.9" x2="298.1" y2="501.9"/>
	<path class="st2" d="M228.1,493.8c0.2,2.2,1.2,4.3,2.8,5.8c1.6,1.5,3.7,2.3,5.9,2.3"/>
	<path class="st2" d="M228.1,447.6c0,15.4,0,30.8,0,46.2"/>
	<path class="st2" d="M236.9,438.9c-1.1,0-2.3,0.2-3.3,0.7c-1.1,0.4-2,1.1-2.8,1.9c-0.8,0.8-1.5,1.8-1.9,2.8
		c-0.4,1.1-0.7,2.2-0.7,3.4"/>
	<line class="st2" x1="254.4" y1="438.9" x2="236.9" y2="438.9"/>
	<path class="st2" d="M263.1,447.6c0-1.1-0.2-2.3-0.7-3.4c-0.4-1.1-1.1-2-1.9-2.8c-0.8-0.8-1.8-1.5-2.8-1.9
		c-1.1-0.4-2.2-0.7-3.3-0.7"/>
	<path class="st2" d="M263.1,493.8c0-15.4,0-30.8,0-46.2"/>
	<path class="st2" d="M254.4,501.9c2.2,0,4.3-0.8,5.9-2.3c1.6-1.5,2.6-3.6,2.8-5.8"/>
	<line class="st2" x1="236.9" y1="501.9" x2="254.4" y2="501.9"/>
	<path class="st2" d="M184.4,493.8c0.2,2.2,1.2,4.3,2.8,5.8c1.6,1.5,3.7,2.3,5.9,2.3"/>
	<path class="st2" d="M184.4,447.6c0,15.4,0,30.8,0,46.2"/>
	<path class="st2" d="M193.1,438.9c-1.1,0-2.3,0.2-3.3,0.7c-1.1,0.4-2,1.1-2.8,1.9c-0.8,0.8-1.5,1.8-1.9,2.8
		c-0.4,1.1-0.7,2.2-0.7,3.4"/>
	<line class="st2" x1="210.6" y1="438.9" x2="193.1" y2="438.9"/>
	<path class="st2" d="M219.4,447.6c0-1.1-0.2-2.3-0.7-3.4c-0.4-1.1-1.1-2-1.9-2.8c-0.8-0.8-1.8-1.5-2.8-1.9
		c-1.1-0.4-2.2-0.7-3.3-0.7"/>
	<path class="st2" d="M219.4,493.8c0-15.4,0-30.8,0-46.2"/>
	<path class="st2" d="M210.6,501.9c2.2,0,4.3-0.8,5.9-2.3c1.6-1.5,2.6-3.6,2.8-5.8"/>
	<line class="st2" x1="193.1" y1="501.9" x2="210.6" y2="501.9"/>
	<path class="st2" d="M140.6,493.8c0.2,2.2,1.2,4.3,2.8,5.8c1.6,1.5,3.7,2.3,5.9,2.3"/>
	<path class="st2" d="M140.6,447.6c0,15.4,0,30.8,0,46.2"/>
	<path class="st2" d="M149.4,438.9c-1.1,0-2.3,0.2-3.3,0.7c-1.1,0.4-2,1.1-2.8,1.9c-0.8,0.8-1.5,1.8-1.9,2.8
		c-0.4,1.1-0.7,2.2-0.7,3.4"/>
	<line class="st2" x1="166.9" y1="438.9" x2="149.4" y2="438.9"/>
	<path class="st2" d="M175.6,447.6c0-1.1-0.2-2.3-0.7-3.4c-0.4-1.1-1.1-2-1.9-2.8c-0.8-0.8-1.8-1.5-2.8-1.9
		c-1.1-0.4-2.2-0.7-3.3-0.7"/>
	<path class="st2" d="M175.6,493.8c0-15.4,0-30.8,0-46.2"/>
	<path class="st2" d="M166.9,501.9c2.2,0,4.3-0.8,5.9-2.3c1.6-1.5,2.6-3.6,2.8-5.8"/>
	<line class="st2" x1="149.4" y1="501.9" x2="166.9" y2="501.9"/>
	<path class="st2" d="M96.9,493.8c0.2,2.2,1.2,4.3,2.8,5.8c1.6,1.5,3.7,2.3,5.9,2.3"/>
	<path class="st2" d="M96.9,447.6c0,15.4,0,30.8,0,46.2"/>
	<path class="st2" d="M105.6,438.9c-1.1,0-2.3,0.2-3.3,0.7c-1.1,0.4-2,1.1-2.8,1.9c-0.8,0.8-1.5,1.8-1.9,2.8
		c-0.4,1.1-0.7,2.2-0.7,3.4"/>
	<line class="st2" x1="123.1" y1="438.9" x2="105.6" y2="438.9"/>
	<path class="st2" d="M131.9,447.6c0-1.1-0.2-2.3-0.7-3.4c-0.4-1.1-1.1-2-1.9-2.8c-0.8-0.8-1.8-1.5-2.8-1.9
		c-1.1-0.4-2.2-0.7-3.3-0.7"/>
	<path class="st2" d="M131.9,493.8c0-15.4,0-30.8,0-46.2"/>
	<path class="st2" d="M123.1,501.9c2.2,0,4.3-0.8,5.9-2.3c1.6-1.5,2.6-3.6,2.8-5.8"/>
	<line class="st2" x1="105.6" y1="501.9" x2="123.1" y2="501.9"/>
	<path class="st2" d="M53.1,493.8c0.2,2.2,1.2,4.3,2.8,5.8c1.6,1.5,3.7,2.3,5.9,2.3"/>
	<path class="st2" d="M53.1,447.6c0,15.4,0,30.8,0,46.2"/>
	<path class="st2" d="M61.9,438.9c-1.1,0-2.3,0.2-3.3,0.7c-1.1,0.4-2,1.1-2.8,1.9c-0.8,0.8-1.5,1.8-1.9,2.8
		c-0.4,1.1-0.7,2.2-0.7,3.4"/>
	<line class="st2" x1="79.4" y1="438.9" x2="61.9" y2="438.9"/>
	<path class="st2" d="M88.1,447.6c0-1.1-0.2-2.3-0.7-3.4c-0.4-1.1-1.1-2-1.9-2.8c-0.8-0.8-1.8-1.5-2.8-1.9c-1.1-0.4-2.2-0.7-3.3-0.7
		"/>
	<path class="st2" d="M88.1,493.8c0-15.4,0-30.8,0-46.2"/>
	<path class="st2" d="M79.4,501.9c2.2,0,4.3-0.8,5.9-2.3c1.6-1.5,2.6-3.6,2.8-5.8"/>
	<line class="st2" x1="61.9" y1="501.9" x2="79.4" y2="501.9"/>
	<path class="st2" d="M9.4,493.8c0.2,2.2,1.2,4.3,2.8,5.8c1.6,1.5,3.7,2.3,5.9,2.3"/>
	<path class="st2" d="M9.4,447.6c0,15.4,0,30.8,0,46.2"/>
	<path class="st2" d="M18.1,438.9c-1.1,0-2.3,0.2-3.3,0.7c-1.1,0.4-2,1.1-2.8,1.9c-0.8,0.8-1.5,1.8-1.9,2.8
		c-0.4,1.1-0.7,2.2-0.7,3.4"/>
	<line class="st2" x1="35.6" y1="438.9" x2="18.1" y2="438.9"/>
	<path class="st2" d="M44.4,447.6c0-1.1-0.2-2.3-0.7-3.4c-0.4-1.1-1.1-2-1.9-2.8c-0.8-0.8-1.8-1.5-2.8-1.9c-1.1-0.4-2.2-0.7-3.3-0.7
		"/>
	<path class="st2" d="M44.4,493.8c0-15.4,0-30.8,0-46.2"/>
	<path class="st2" d="M35.6,501.9c2.2,0,4.3-0.8,5.9-2.3c1.6-1.5,2.6-3.6,2.8-5.8"/>
	<line class="st2" x1="18.1" y1="501.9" x2="35.6" y2="501.9"/>
	<path class="st2" d="M315.6,598.6c0.2,2.2,1.2,4.3,2.8,5.8c1.6,1.5,3.7,2.3,5.9,2.3"/>
	<path class="st2" d="M315.6,552.5c0,15.4,0,30.8,0,46.2"/>
	<path class="st2" d="M324.4,543.7c-1.1,0-2.3,0.2-3.3,0.7c-1.1,0.4-2,1.1-2.8,1.9c-0.8,0.8-1.5,1.8-1.9,2.8
		c-0.4,1.1-0.7,2.2-0.7,3.4"/>
	<line class="st2" x1="341.9" y1="543.7" x2="324.4" y2="543.7"/>
	<path class="st2" d="M350.6,552.5c0-1.1-0.2-2.3-0.7-3.3c-0.4-1.1-1.1-2-1.9-2.8c-0.8-0.8-1.8-1.5-2.8-1.9
		c-1.1-0.4-2.2-0.7-3.3-0.7"/>
	<path class="st2" d="M350.6,598.6c0-15.4,0-30.8,0-46.2"/>
	<path class="st2" d="M341.9,606.7c2.2,0,4.3-0.8,5.9-2.3c1.6-1.5,2.6-3.6,2.8-5.8"/>
	<line class="st2" x1="324.4" y1="606.7" x2="341.9" y2="606.7"/>
	<path class="st2" d="M271.9,598.8c0.2,2.2,1.2,4.3,2.8,5.8c1.6,1.5,3.7,2.3,5.9,2.3"/>
	<path class="st2" d="M271.9,552.6c0,15.4,0,30.8,0,46.2"/>
	<path class="st2" d="M280.6,543.9c-1.1,0-2.3,0.2-3.3,0.7c-1.1,0.4-2,1.1-2.8,1.9c-0.8,0.8-1.5,1.8-1.9,2.8s-0.7,2.2-0.7,3.4"/>
	<line class="st2" x1="298.1" y1="543.9" x2="280.6" y2="543.9"/>
	<path class="st2" d="M306.9,552.6c0-1.1-0.2-2.3-0.7-3.4s-1.1-2-1.9-2.8c-0.8-0.8-1.8-1.5-2.8-1.9c-1.1-0.4-2.2-0.7-3.3-0.7"/>
	<path class="st2" d="M306.9,598.8c0-15.4,0-30.8,0-46.2"/>
	<path class="st2" d="M298.1,606.9c2.2,0,4.3-0.8,5.9-2.3c1.6-1.5,2.6-3.6,2.8-5.8"/>
	<line class="st2" x1="280.6" y1="606.9" x2="298.1" y2="606.9"/>
	<path class="st2" d="M228.1,598.8c0.2,2.2,1.2,4.3,2.8,5.8c1.6,1.5,3.7,2.3,5.9,2.3"/>
	<path class="st2" d="M228.1,552.6c0,15.4,0,30.8,0,46.2"/>
	<path class="st2" d="M236.9,543.9c-1.1,0-2.3,0.2-3.3,0.7c-1.1,0.4-2,1.1-2.8,1.9c-0.8,0.8-1.5,1.8-1.9,2.8s-0.7,2.2-0.7,3.4"/>
	<line class="st2" x1="254.4" y1="543.9" x2="236.9" y2="543.9"/>
	<path class="st2" d="M263.1,552.6c0-1.1-0.2-2.3-0.7-3.4s-1.1-2-1.9-2.8c-0.8-0.8-1.8-1.5-2.8-1.9c-1.1-0.4-2.2-0.7-3.3-0.7"/>
	<path class="st2" d="M263.1,598.8c0-15.4,0-30.8,0-46.2"/>
	<path class="st2" d="M254.4,606.9c2.2,0,4.3-0.8,5.9-2.3c1.6-1.5,2.6-3.6,2.8-5.8"/>
	<line class="st2" x1="236.9" y1="606.9" x2="254.4" y2="606.9"/>
	<path class="st2" d="M184.4,598.8c0.2,2.2,1.2,4.3,2.8,5.8c1.6,1.5,3.7,2.3,5.9,2.3"/>
	<path class="st2" d="M184.4,552.6c0,15.4,0,30.8,0,46.2"/>
	<path class="st2" d="M193.1,543.9c-1.1,0-2.3,0.2-3.3,0.7c-1.1,0.4-2,1.1-2.8,1.9c-0.8,0.8-1.5,1.8-1.9,2.8
		c-0.4,1.1-0.7,2.2-0.7,3.4"/>
	<line class="st2" x1="210.6" y1="543.9" x2="193.1" y2="543.9"/>
	<path class="st2" d="M219.4,552.6c0-1.1-0.2-2.3-0.7-3.4c-0.4-1.1-1.1-2-1.9-2.8c-0.8-0.8-1.8-1.5-2.8-1.9
		c-1.1-0.4-2.2-0.7-3.3-0.7"/>
	<path class="st2" d="M219.4,598.8c0-15.4,0-30.8,0-46.2"/>
	<path class="st2" d="M210.6,606.9c2.2,0,4.3-0.8,5.9-2.3c1.6-1.5,2.6-3.6,2.8-5.8"/>
	<line class="st2" x1="193.1" y1="606.9" x2="210.6" y2="606.9"/>
	<path class="st2" d="M140.6,598.8c0.2,2.2,1.2,4.3,2.8,5.8c1.6,1.5,3.7,2.3,5.9,2.3"/>
	<path class="st2" d="M140.6,552.6c0,15.4,0,30.8,0,46.2"/>
	<path class="st2" d="M149.4,543.9c-1.1,0-2.3,0.2-3.3,0.7c-1.1,0.4-2,1.1-2.8,1.9c-0.8,0.8-1.5,1.8-1.9,2.8
		c-0.4,1.1-0.7,2.2-0.7,3.4"/>
	<line class="st2" x1="166.9" y1="543.9" x2="149.4" y2="543.9"/>
	<path class="st2" d="M175.6,552.6c0-1.1-0.2-2.3-0.7-3.4c-0.4-1.1-1.1-2-1.9-2.8c-0.8-0.8-1.8-1.5-2.8-1.9
		c-1.1-0.4-2.2-0.7-3.3-0.7"/>
	<path class="st2" d="M175.6,598.8c0-15.4,0-30.8,0-46.2"/>
	<path class="st2" d="M166.9,606.9c2.2,0,4.3-0.8,5.9-2.3c1.6-1.5,2.6-3.6,2.8-5.8"/>
	<line class="st2" x1="149.4" y1="606.9" x2="166.9" y2="606.9"/>
	<path class="st2" d="M96.9,598.8c0.2,2.2,1.2,4.3,2.8,5.8c1.6,1.5,3.7,2.3,5.9,2.3"/>
	<path class="st2" d="M96.9,552.6c0,15.4,0,30.8,0,46.2"/>
	<path class="st2" d="M105.6,543.9c-1.1,0-2.3,0.2-3.3,0.7c-1.1,0.4-2,1.1-2.8,1.9c-0.8,0.8-1.5,1.8-1.9,2.8
		c-0.4,1.1-0.7,2.2-0.7,3.4"/>
	<line class="st2" x1="123.1" y1="543.9" x2="105.6" y2="543.9"/>
	<path class="st2" d="M131.9,552.6c0-1.1-0.2-2.3-0.7-3.4s-1.1-2-1.9-2.8c-0.8-0.8-1.8-1.5-2.8-1.9c-1.1-0.4-2.2-0.7-3.3-0.7"/>
	<path class="st2" d="M131.9,598.8c0-15.4,0-30.8,0-46.2"/>
	<path class="st2" d="M123.1,606.9c2.2,0,4.3-0.8,5.9-2.3c1.6-1.5,2.6-3.6,2.8-5.8"/>
	<line class="st2" x1="105.6" y1="606.9" x2="123.1" y2="606.9"/>
	<path class="st2" d="M53.1,598.8c0.2,2.2,1.2,4.3,2.8,5.8c1.6,1.5,3.7,2.3,5.9,2.3"/>
	<path class="st2" d="M53.1,552.6c0,15.4,0,30.8,0,46.2"/>
	<path class="st2" d="M61.9,543.9c-1.1,0-2.3,0.2-3.3,0.7c-1.1,0.4-2,1.1-2.8,1.9c-0.8,0.8-1.5,1.8-1.9,2.8s-0.7,2.2-0.7,3.4"/>
	<line class="st2" x1="79.4" y1="543.9" x2="61.9" y2="543.9"/>
	<path class="st2" d="M88.1,552.6c0-1.1-0.2-2.3-0.7-3.4c-0.4-1.1-1.1-2-1.9-2.8c-0.8-0.8-1.8-1.5-2.8-1.9c-1.1-0.4-2.2-0.7-3.3-0.7
		"/>
	<path class="st2" d="M88.1,598.8c0-15.4,0-30.8,0-46.2"/>
	<path class="st2" d="M79.4,606.9c2.2,0,4.3-0.8,5.9-2.3c1.6-1.5,2.6-3.6,2.8-5.8"/>
	<line class="st2" x1="61.9" y1="606.9" x2="79.4" y2="606.9"/>
	<path class="st2" d="M9.4,598.8c0.2,2.2,1.2,4.3,2.8,5.8c1.6,1.5,3.7,2.3,5.9,2.3"/>
	<path class="st2" d="M9.4,552.6c0,15.4,0,30.8,0,46.2"/>
	<path class="st2" d="M18.1,543.9c-1.1,0-2.3,0.2-3.3,0.7c-1.1,0.4-2,1.1-2.8,1.9c-0.8,0.8-1.5,1.8-1.9,2.8
		c-0.4,1.1-0.7,2.2-0.7,3.4"/>
	<line class="st2" x1="35.6" y1="543.9" x2="18.1" y2="543.9"/>
	<path class="st2" d="M44.4,552.6c0-1.1-0.2-2.3-0.7-3.4s-1.1-2-1.9-2.8c-0.8-0.8-1.8-1.5-2.8-1.9c-1.1-0.4-2.2-0.7-3.3-0.7"/>
	<path class="st2" d="M44.4,598.8c0-15.4,0-30.8,0-46.2"/>
	<path class="st2" d="M35.6,606.9c2.2,0,4.3-0.8,5.9-2.3c1.6-1.5,2.6-3.6,2.8-5.8"/>
	<line class="st2" x1="18.1" y1="606.9" x2="35.6" y2="606.9"/>
	<line class="st2" x1="92.5" y1="380.4" x2="92.5" y2="639.5"/>
	<line class="st2" x1="136.2" y1="380.4" x2="136.2" y2="639.5"/>
	<line class="st2" x1="180" y1="380.4" x2="180" y2="639.5"/>
	<line class="st2" x1="223.8" y1="380.4" x2="223.8" y2="639.5"/>
	<line class="st2" x1="267.5" y1="380.4" x2="267.5" y2="639.5"/>
	<line class="st2" x1="311.2" y1="380.4" x2="311.2" y2="639.5"/>
	<line class="st2" x1="48.8" y1="380.4" x2="48.8" y2="639.5"/>
</g>
</svg>
